<?xml version="1.0" standalone="no"?>
<!DOCTYPE svg PUBLIC "-//W3C//DTD SVG 1.1//EN" "http://www.w3.org/Graphics/SVG/1.1/DTD/svg11.dtd" >
<svg xmlns="http://www.w3.org/2000/svg" width="100%" height="100%">
<metadata>
Created by FontXChange 20100429 at Sat Mar  8 14:04:22 2014
 By HUGE | JP Gary
Copyright (c) 2009 by Village Type &#38; Design LLC. All rights reserved.
</metadata>
<defs>
<font id="GalaxieCopernicus-BookItalic" horiz-adv-x="700" >
  <font-face 
    font-family="Galaxie Copernicus"
    font-weight="525"
    font-style="italic"
    font-stretch="normal"
    units-per-em="1000"
    panose-1="2 0 0 0 0 0 0 0 0 0"
    ascent="800"
    descent="-200"
    x-height="533"
    cap-height="780"
    bbox="-190 -307 1370 1047"
    underline-thickness="30"
    underline-position="-70"
    stemh="53"
    stemv="84"
    unicode-range="U+0020-F778"
  />
<missing-glyph horiz-adv-x="960" 
d="M90 0v780h780v-780h-780zM480 345l-279 -279h558zM201 714l279 -279l279 279h-558zM435 390l-275 275v-550zM525 390l275 -275v550z" />
    <glyph glyph-name="interrobangdown" unicode="&#xa1;&#xbf;" horiz-adv-x="528" 
d="M251 78c-86 -45 -133 -91 -133 -173c0 -66 47 -124 138 -124c81 0 123 39 123 109c0 20 -2 28 -5 40h75c8 -9 19 -33 19 -56c0 -89 -99 -137 -213 -137c-139 0 -212 72 -212 172c0 107 66 173 167 221c94 45 116 86 116 160v36h25c14 -28 28 -55 28 -98
c0 -50 -25 -83 -63 -111l-6 -161l-5 -46h-86l5 46l38 128zM418 474c0 -35 -28 -64 -63 -64s-64 29 -64 64s29 63 64 63s63 -28 63 -63z" />
    <glyph glyph-name="interrobang" unicode="&#x21;&#x3f;" horiz-adv-x="528" 
d="M330 449c86 45 133 91 133 173c0 66 -47 124 -138 124c-81 0 -123 -39 -123 -109c0 -20 2 -28 5 -40h-75c-8 9 -19 33 -19 56c0 89 99 137 213 137c139 0 212 -72 212 -172c0 -107 -66 -173 -167 -221c-94 -45 -116 -86 -116 -160v-36h-25c-14 28 -28 55 -28 98
c0 49 25 82 63 110l6 162l5 46h86l-5 -46l-39 -129zM163 53c0 35 28 64 63 64s64 -29 64 -64s-29 -63 -64 -63s-63 28 -63 63z" />
    <glyph glyph-name="f_f_b" unicode="ffb" horiz-adv-x="1239" 
d="M1066 481c-99 0 -287 -258 -287 -366c0 -58 48 -85 101 -85c159 0 239 198 239 358c0 58 -11 93 -53 93zM542 480l-61 -399c-32 -212 -84 -317 -210 -317c-53 0 -95 27 -95 74c0 28 15 46 37 59h36c0 -65 17 -92 50 -92c53 0 85 57 113 264l56 411h-239l-63 -413
c-33 -218 -107 -317 -229 -317c-86 0 -127 38 -127 84c0 30 16 51 36 59h33c4 -63 28 -101 78 -101c67 0 111 53 134 219l64 469h-76l9 43h72l5 34c20 137 98 241 214 241c56 0 91 -31 91 -73c0 -29 -16 -44 -30 -53h-31c-4 53 -23 79 -65 79c-50 0 -81 -44 -95 -139
l-13 -89h237l7 45c21 134 118 241 249 241c41 0 76 -11 100 -32l56 33h20c-59 -351 -91 -480 -122 -575h4c62 133 183 298 308 298c77 0 106 -63 106 -134c0 -193 -147 -409 -326 -409c-93 0 -156 49 -174 106c39 202 101 496 112 612c-20 41 -60 59 -104 59
c-80 0 -131 -51 -150 -177l-10 -67h143l-9 -43h-141z" />
    <glyph glyph-name="f_f_h" unicode="ffh" horiz-adv-x="1267" 
d="M542 480l-61 -399c-32 -212 -84 -317 -210 -317c-53 0 -95 27 -95 74c0 28 15 46 37 59h36c0 -65 17 -92 50 -92c53 0 85 57 113 264l56 411h-239l-63 -413c-33 -218 -107 -317 -229 -317c-86 0 -127 38 -127 84c0 30 16 51 36 59h33c4 -63 28 -101 78 -101
c67 0 111 53 134 219l64 469h-76l9 43h72l5 34c20 137 98 241 214 241c56 0 91 -31 91 -73c0 -29 -16 -44 -30 -53h-31c-4 53 -23 79 -65 79c-50 0 -81 -44 -95 -139l-13 -89h237l7 45c21 134 118 241 249 241c41 0 76 -11 100 -32l56 33h20c-46 -277 -88 -517 -130 -654h4
c64 158 188 377 320 377c44 0 64 -25 64 -73c0 -104 -75 -310 -75 -384c0 -19 10 -28 25 -28c24 0 58 32 94 82l24 -16c-40 -77 -90 -124 -150 -124c-44 0 -70 24 -70 68c0 68 79 304 79 388c0 20 -5 34 -23 34c-81 0 -241 -242 -306 -480h-70c46 240 106 559 123 707
c-20 41 -61 60 -105 60c-80 0 -131 -51 -150 -177l-10 -67h143l-9 -43h-141z" />
    <glyph glyph-name="f_f_j" unicode="ffj" horiz-adv-x="908" 
d="M745 480h-203l-61 -399c-32 -212 -84 -317 -210 -317c-53 0 -95 27 -95 74c0 28 15 46 37 59h36c0 -65 17 -92 50 -92c53 0 85 57 113 264l56 411h-239l-63 -413c-33 -218 -107 -317 -229 -317c-86 0 -127 38 -127 84c0 30 16 51 36 59h33c4 -63 28 -101 78 -101
c67 0 111 53 134 219l64 469h-76l9 43h72l5 34c20 137 98 241 214 241c56 0 91 -31 91 -73c0 -29 -16 -44 -30 -53h-31c-4 53 -23 79 -65 79c-50 0 -81 -44 -95 -139l-13 -89h237l7 45c21 134 118 241 250 241c74 0 108 -33 108 -75c0 -29 -14 -51 -29 -60h-35
c-2 57 -28 89 -82 89c-64 0 -112 -42 -133 -173l-10 -67h232c45 0 69 -16 69 -54c0 -21 -1 -38 -5 -66l-36 -237c-46 -298 -102 -402 -214 -402c-70 0 -105 35 -105 79c0 28 17 46 37 54h33c0 -61 11 -95 47 -95c49 0 78 55 108 247l52 340c4 25 6 49 6 65
c0 14 -7 26 -28 26z" />
    <glyph glyph-name="f_f_k" unicode="ffk" horiz-adv-x="1225" 
d="M821 330l-18 -95c167 36 264 96 264 188c0 38 -18 57 -51 57c-53 0 -107 -42 -195 -150zM473 523l7 45c21 134 118 241 249 241c41 0 76 -11 100 -32l56 33h20c-20 -134 -45 -286 -75 -431c72 111 149 154 219 154c67 0 102 -36 102 -92c0 -82 -74 -147 -179 -195
l60 -141c20 -48 29 -59 53 -59c26 0 63 25 100 82l25 -16c-43 -76 -96 -122 -155 -122c-43 0 -64 29 -85 83l-61 154c-36 -10 -74 -20 -111 -28l-38 -199h-69c48 256 104 541 123 707c-18 40 -62 60 -105 60c-80 0 -131 -51 -150 -177l-10 -67h143l-9 -43h-141l-61 -399
c-32 -212 -84 -317 -210 -317c-53 0 -95 27 -95 74c0 28 15 46 37 59h36c0 -65 17 -92 50 -92c53 0 85 57 113 264l56 411h-239l-63 -413c-33 -218 -107 -317 -229 -317c-86 0 -127 38 -127 84c0 30 16 51 36 59h33c4 -63 28 -101 78 -101c67 0 111 53 134 219l64 469h-76
l9 43h72l5 34c20 137 98 241 214 241c56 0 91 -31 91 -73c0 -29 -16 -44 -30 -53h-31c-4 53 -23 79 -65 79c-50 0 -81 -44 -95 -139l-13 -89h237z" />
    <glyph glyph-name="f_b" unicode="fb" horiz-adv-x="926" 
d="M753 481c-99 0 -287 -258 -287 -366c0 -58 48 -85 101 -85c159 0 239 198 239 358c0 58 -11 93 -53 93zM500 708c-20 41 -60 59 -104 59c-80 0 -131 -51 -150 -177l-10 -67h143l-9 -43h-141l-63 -413c-33 -218 -107 -317 -229 -317c-86 0 -127 38 -127 84
c0 30 16 51 36 59h33c4 -63 28 -101 78 -101c67 0 111 53 134 219l64 469h-76l9 43h72l7 45c21 134 118 241 249 241c41 0 76 -11 100 -32l56 33h20c-59 -351 -91 -480 -122 -575h4c62 133 183 298 308 298c77 0 106 -63 106 -134c0 -193 -147 -409 -326 -409
c-93 0 -156 49 -174 106c39 202 101 496 112 612z" />
    <glyph glyph-name="f_h" unicode="fh" horiz-adv-x="954" 
d="M501 707c-20 41 -61 60 -105 60c-80 0 -131 -51 -150 -177l-10 -67h143l-9 -43h-141l-63 -413c-33 -218 -107 -317 -229 -317c-86 0 -127 38 -127 84c0 30 16 51 36 59h33c4 -63 28 -101 78 -101c67 0 111 53 134 219l64 469h-76l9 43h72l7 45c21 134 118 241 249 241
c41 0 76 -11 100 -32l56 33h20c-46 -277 -88 -517 -130 -654h4c64 158 188 377 320 377c44 0 64 -25 64 -73c0 -104 -75 -310 -75 -384c0 -19 10 -28 25 -28c24 0 58 32 94 82l24 -16c-40 -77 -90 -124 -150 -124c-44 0 -70 24 -70 68c0 68 79 304 79 388c0 20 -5 34 -23 34
c-81 0 -241 -242 -306 -480h-70c46 240 106 559 123 707z" />
    <glyph glyph-name="f_j" unicode="fj" horiz-adv-x="595" 
d="M460 454c0 14 -7 26 -28 26h-203l-63 -413c-33 -218 -107 -317 -229 -317c-86 0 -127 38 -127 84c0 30 16 51 36 59h33c4 -63 28 -101 78 -101c67 0 111 53 134 219l64 469h-76l9 43h72l7 45c21 134 118 241 250 241c74 0 108 -33 108 -75c0 -29 -14 -51 -29 -60h-35
c-2 57 -28 89 -82 89c-64 0 -112 -42 -133 -173l-10 -67h232c45 0 69 -16 69 -54c0 -21 -1 -38 -5 -66l-37 -238c-46 -298 -102 -402 -214 -402c-70 0 -105 35 -105 79c0 28 17 46 37 54h33c0 -61 11 -95 47 -95c49 0 78 55 108 247l53 341c4 25 6 49 6 65z" />
    <glyph glyph-name="f_k" unicode="fk" horiz-adv-x="912" 
d="M572 810h20c-20 -134 -45 -286 -75 -431c72 111 149 154 219 154c67 0 102 -36 102 -92c0 -82 -74 -147 -179 -195l60 -141c20 -48 29 -59 53 -59c26 0 63 25 100 82l25 -16c-43 -76 -96 -122 -155 -122c-43 0 -64 29 -85 83l-61 154c-36 -10 -74 -20 -111 -28l-38 -199
h-69c48 256 104 541 123 707c-18 40 -62 60 -105 60c-80 0 -131 -51 -150 -177l-10 -67h143l-9 -43h-141l-63 -413c-33 -218 -107 -317 -229 -317c-86 0 -127 38 -127 84c0 30 16 51 36 59h33c4 -63 28 -101 78 -101c67 0 111 53 134 219l64 469h-76l9 43h72l7 45
c21 134 118 241 249 241c41 0 76 -11 100 -32zM508 330l-18 -95c167 36 264 96 264 188c0 38 -18 57 -51 57c-53 0 -107 -42 -195 -150z" />
    <glyph glyph-name="ff" unicode="ff" horiz-adv-x="664" 
d="M542 480l-61 -399c-32 -212 -84 -317 -210 -317c-53 0 -95 27 -95 74c0 28 15 46 37 59h36c0 -65 17 -92 50 -92c53 0 85 57 113 264l56 411h-239l-63 -413c-33 -218 -107 -317 -229 -317c-86 0 -127 38 -127 84c0 30 16 51 36 59h33c4 -63 28 -101 78 -101
c67 0 111 53 134 219l64 469h-76l9 43h72l5 34c20 137 98 241 214 241c56 0 91 -31 91 -73c0 -29 -16 -44 -30 -53h-31c-4 53 -23 79 -65 79c-50 0 -81 -44 -95 -139l-13 -89h237l7 46c20 137 104 241 226 241c68 0 97 -31 97 -73c0 -29 -16 -49 -30 -58h-31
c-4 53 -30 84 -80 84c-51 0 -83 -39 -98 -139l-15 -101h143l-9 -43h-141z" />
    <glyph glyph-name="ffi" unicode="ffi" horiz-adv-x="963" 
d="M542 480l-61 -399c-32 -212 -84 -317 -210 -317c-53 0 -95 27 -95 74c0 28 15 46 37 59h36c0 -65 17 -92 50 -92c53 0 85 57 113 264l56 411h-239l-63 -413c-33 -218 -107 -317 -229 -317c-86 0 -127 38 -127 84c0 30 16 51 36 59h33c4 -63 28 -101 78 -101
c67 0 111 53 134 219l64 469h-76l9 43h72l5 34c20 137 98 241 214 241c56 0 91 -31 91 -73c0 -29 -16 -44 -30 -53h-31c-4 53 -23 79 -65 79c-50 0 -81 -44 -95 -139l-13 -89h237l7 45c21 134 118 241 250 241c74 0 108 -33 108 -75c0 -29 -14 -51 -29 -60h-35
c-2 57 -28 89 -82 89c-64 0 -112 -42 -133 -173l-10 -67h232c45 0 69 -16 69 -54c0 -87 -66 -307 -66 -393c0 -19 10 -28 25 -28c24 0 58 32 94 82l24 -16c-40 -77 -90 -124 -150 -124c-44 0 -69 24 -69 68c0 87 66 310 66 396c0 14 -7 26 -28 26h-204z" />
    <glyph glyph-name="ffl" unicode="ffl" horiz-adv-x="960" 
d="M542 480l-61 -399c-32 -212 -84 -317 -210 -317c-53 0 -95 27 -95 74c0 28 15 46 37 59h36c0 -65 17 -92 50 -92c53 0 85 57 113 264l56 411h-239l-63 -413c-33 -218 -107 -317 -229 -317c-86 0 -127 38 -127 84c0 30 16 51 36 59h33c4 -63 28 -101 78 -101
c67 0 111 53 134 219l64 469h-76l9 43h72l5 34c20 137 98 241 214 241c56 0 91 -31 91 -73c0 -29 -16 -44 -30 -53h-31c-4 53 -23 79 -65 79c-50 0 -81 -44 -95 -139l-13 -89h237l7 45c21 134 118 241 249 241c41 0 76 -11 100 -32l56 33h20c-16 -183 -122 -644 -122 -734
c0 -19 9 -28 24 -28c25 0 59 32 95 82l23 -16c-39 -77 -90 -124 -149 -124c-44 0 -67 24 -67 73c0 85 96 541 108 638c-19 45 -62 66 -108 66c-80 0 -131 -51 -150 -177l-10 -67h143l-9 -43h-141z" />
    <glyph glyph-name="fi" unicode="fi" horiz-adv-x="650" 
d="M236 523h232c45 0 69 -16 69 -54c0 -87 -66 -307 -66 -393c0 -19 10 -28 25 -28c24 0 58 32 94 82l24 -16c-40 -77 -90 -124 -150 -124c-44 0 -69 24 -69 68c0 87 66 310 66 396c0 14 -7 26 -28 26h-204l-63 -413c-33 -218 -107 -317 -229 -317c-86 0 -127 38 -127 84
c0 30 16 51 36 59h33c4 -63 28 -101 78 -101c67 0 111 53 134 219l64 469h-76l9 43h72l7 45c21 134 118 241 250 241c74 0 108 -33 108 -75c0 -29 -14 -51 -29 -60h-35c-2 57 -28 89 -82 89c-64 0 -112 -42 -133 -173z" />
    <glyph glyph-name="fl" unicode="fl" horiz-adv-x="647" 
d="M516 777l56 33h20c-16 -183 -122 -644 -122 -734c0 -19 9 -28 24 -28c25 0 59 32 95 82l23 -16c-39 -77 -90 -124 -149 -124c-44 0 -67 24 -67 73c0 85 96 541 108 638c-19 45 -62 66 -108 66c-80 0 -131 -51 -150 -177l-10 -67h143l-9 -43h-141l-63 -413
c-33 -218 -107 -317 -229 -317c-86 0 -127 38 -127 84c0 30 16 51 36 59h33c4 -63 28 -101 78 -101c67 0 111 53 134 219l64 469h-76l9 43h72l7 45c21 134 118 241 249 241c41 0 76 -11 100 -32z" />
    <glyph glyph-name=".notdef" horiz-adv-x="960" 
d="M90 0v780h780v-780h-780zM480 345l-279 -279h558zM201 714l279 -279l279 279h-558zM435 390l-275 275v-550zM525 390l275 -275v550z" />
    <glyph glyph-name="space" unicode=" " horiz-adv-x="200" 
 />
    <glyph glyph-name="exclam" unicode="!" horiz-adv-x="315" 
d="M284 780l-5 -46l-56 -292c-16 -81 -36 -182 -44 -245h-38c6 63 11 162 16 245l16 292l5 46h106zM79 53c0 35 28 64 63 64s64 -29 64 -64s-29 -63 -64 -63s-63 28 -63 63z" />
    <glyph glyph-name="quotedbl" unicode="&#x22;" horiz-adv-x="333" 
d="M156 524h-43l5 256h95zM308 524h-43l5 256h95z" />
    <glyph glyph-name="quotesingle" unicode="'" horiz-adv-x="181" 
d="M156 524h-43l5 256h95z" />
    <glyph glyph-name="numbersign" unicode="#" horiz-adv-x="648" 
d="M606 724l-79 -235h113l-6 -42h-121l-91 -272h116l-6 -42h-124l-81 -241h-45l81 241h-184l-81 -241h-45l81 241h-110l6 42h118l91 272h-113l6 42h121l79 235h45l-79 -235h184l79 235h45zM284 447l-91 -272h184l91 272h-184z" />
    <glyph glyph-name="dollar" unicode="$" horiz-adv-x="527" 
d="M131 -105l30 103c-60 11 -108 36 -138 66l12 148h29c12 -96 53 -147 111 -167l73 250c-1 0 -2 0 -3 1c-96 42 -153 87 -153 173c0 100 78 162 200 162c18 0 36 -1 53 -4l28 96h43l-31 -104c44 -11 81 -30 107 -52l-16 -135h-29c-6 68 -30 114 -76 137l-65 -223
c87 -39 153 -87 153 -178c0 -114 -91 -178 -221 -178c-12 0 -24 1 -35 2l-28 -97h-44zM386 152c0 58 -23 88 -100 125l-70 -241c8 -1 17 -1 26 -1c84 0 144 39 144 117zM162 480c0 -57 33 -85 105 -118l65 220c-14 2 -28 4 -44 4c-80 0 -126 -42 -126 -106z" />
    <glyph glyph-name="percent" unicode="%" horiz-adv-x="1030" 
d="M225 304c93 0 119 125 119 214c0 64 -23 119 -99 119c-93 0 -119 -125 -119 -214c0 -64 23 -119 99 -119zM225 263c-103 0 -171 65 -171 176c0 125 63 239 191 239c103 0 171 -65 171 -176c0 -125 -63 -239 -191 -239zM211 0l518 668h56l-518 -668h-56zM771 364
c-93 0 -119 -125 -119 -214c0 -64 23 -119 99 -119c93 0 119 125 119 214c0 64 -23 119 -99 119zM771 405c103 0 171 -65 171 -176c0 -125 -63 -239 -191 -239c-103 0 -171 65 -171 176c0 125 63 239 191 239z" />
    <glyph glyph-name="ampersand" unicode="&#x26;" horiz-adv-x="936" 
d="M806 362c-42 0 -78 19 -109 39c27 -24 38 -57 38 -105c0 -137 -108 -306 -366 -306c-208 0 -329 99 -329 241c0 133 114 215 214 245c-45 21 -74 66 -74 122c0 99 92 192 231 192c110 0 169 -44 169 -111c0 -35 -23 -60 -51 -69h-34c3 15 5 27 5 41c0 54 -31 99 -106 99
c-87 0 -138 -62 -138 -134c0 -60 32 -98 106 -110l-9 -27c-140 -25 -229 -102 -229 -224c0 -126 111 -211 268 -211c218 0 301 145 301 251c0 107 -68 171 -168 171c-51 0 -87 -28 -87 -69c0 -28 23 -51 93 -51v-22c0 -27 -28 -48 -63 -48c-43 0 -71 31 -71 90
c0 58 43 159 161 159c111 0 190 -104 273 -104c51 0 87 28 87 69c0 28 -23 51 -93 51v22c0 27 28 48 63 48c43 0 71 -31 71 -90c0 -58 -43 -159 -153 -159z" />
    <glyph glyph-name="parenleft" unicode="(" horiz-adv-x="395" 
d="M386 830l33 -27c-153 -129 -264 -288 -264 -547c0 -158 54 -254 152 -358l-38 -28c-111 109 -165 230 -165 386c0 238 98 425 282 574z" />
    <glyph glyph-name="parenright" unicode=")" horiz-adv-x="395" 
d="M48 -130l-33 27c153 129 264 288 264 547c0 158 -54 254 -152 358l38 28c111 -109 165 -230 165 -386c0 -238 -98 -425 -282 -574z" />
    <glyph glyph-name="asterisk" unicode="*" horiz-adv-x="379" 
d="M230 579l-109 -92l-27 26l101 100l-118 75l20 32l124 -69l37 141l39 -8l-24 -142l140 9l4 -36l-140 -17l52 -135l-38 -13z" />
    <glyph glyph-name="plus" unicode="+" 
d="M277 15l30 245h-242l7 51h242l30 244h56l-30 -244h242l-7 -51h-242l-30 -245h-56z" />
    <glyph glyph-name="comma" unicode="," horiz-adv-x="315" 
d="M161 -4h-37c-27 7 -45 26 -45 57c0 37 27 64 64 64c52 0 74 -49 74 -93c0 -90 -83 -162 -203 -174l7 38c81 12 140 60 140 108z" />
    <glyph glyph-name="hyphen" unicode="-" horiz-adv-x="348" 
d="M310 309h-248l8 58h248z" />
    <glyph glyph-name="period" unicode="." horiz-adv-x="315" 
d="M79 53c0 35 28 64 63 64s64 -29 64 -64s-29 -63 -64 -63s-63 28 -63 63z" />
    <glyph glyph-name="slash" unicode="/" horiz-adv-x="378" 
d="M429 830l-408 -951h-55l407 951h56z" />
    <glyph glyph-name="zero" unicode="0" horiz-adv-x="601" 
d="M331 524c-131 0 -200 -141 -200 -287c0 -118 44 -203 139 -203c131 0 200 141 200 287c0 118 -44 203 -139 203zM270 -10c-130 0 -220 89 -220 247c0 151 107 331 281 331c130 0 220 -89 220 -247c0 -151 -107 -331 -281 -331z" />
    <glyph glyph-name="one" unicode="1" horiz-adv-x="487" 
d="M337 565l-54 -419c-2 -18 -3 -36 -3 -47c0 -54 36 -63 147 -66l-4 -33h-399l4 33c120 5 169 11 177 79l40 327h-167l2 24l32 4c110 16 142 25 208 98h17z" />
    <glyph glyph-name="two" unicode="2" horiz-adv-x="577" 
d="M122 61h202c86 0 109 28 159 92h34l-81 -153h-445l5 17c277 181 395 267 395 386c0 71 -46 106 -112 106c-83 0 -139 -47 -180 -104l-25 19c50 87 123 143 223 143c117 0 182 -61 182 -151c0 -144 -197 -259 -357 -355z" />
    <glyph glyph-name="three" unicode="3" horiz-adv-x="513" 
d="M153 -180c107 0 189 56 189 186c0 90 -64 169 -156 169c-21 0 -47 -4 -71 -11l-10 31c138 40 260 90 260 199c0 72 -41 116 -116 116c-76 0 -132 -48 -169 -95l-20 20c45 75 110 132 213 132c100 0 170 -53 170 -149c0 -120 -127 -182 -192 -202
c100 -13 167 -90 167 -187c0 -175 -163 -261 -329 -261c-92 0 -134 34 -134 70c0 22 13 40 34 46c29 -28 89 -64 164 -64z" />
    <glyph glyph-name="four" unicode="4" horiz-adv-x="649" 
d="M73 54h305l48 386zM419 -223h-75l28 223h-377l4 38l490 533h28l-64 -517h146l-6 -54h-146z" />
    <glyph glyph-name="five" unicode="5" horiz-adv-x="512" 
d="M155 -180c107 0 190 77 190 189c0 138 -126 222 -282 260l134 289h170c53 0 83 13 110 59h35l-62 -131h-244l-72 -158c165 -54 275 -139 275 -280c0 -166 -130 -280 -318 -280c-92 0 -134 34 -134 70c0 22 13 40 34 46c29 -28 89 -64 164 -64z" />
    <glyph glyph-name="six" unicode="6" horiz-adv-x="587" 
d="M597 761c-216 -69 -366 -196 -429 -346c45 38 101 62 167 62c129 0 206 -92 206 -214c0 -166 -118 -273 -252 -273c-129 0 -234 94 -234 256c0 272 226 469 534 544zM289 32c106 0 172 93 172 218c0 112 -66 177 -157 177c-56 0 -107 -15 -150 -48
c-13 -42 -20 -86 -20 -130c0 -125 58 -217 155 -217z" />
    <glyph glyph-name="seven" unicode="7" horiz-adv-x="574" 
d="M103 557h466l-2 -17l-429 -763h-56l403 707h-302c-52 0 -77 -17 -110 -71h-35z" />
    <glyph glyph-name="eight" unicode="8" horiz-adv-x="565" 
d="M46 187c0 110 71 172 204 216l-15 15c-63 64 -99 120 -99 193c0 88 57 179 200 179c135 0 204 -80 204 -172c0 -117 -82 -162 -194 -213l69 -72c49 -52 73 -104 73 -165c0 -100 -86 -178 -214 -178c-142 0 -228 88 -228 197zM331 321l-61 62
c-109 -50 -145 -110 -145 -195c0 -96 66 -155 152 -155c77 0 140 44 140 122c0 69 -39 118 -86 166zM209 624c0 -59 26 -101 70 -148l47 -50c85 44 138 101 138 187c0 79 -48 134 -131 134c-73 0 -124 -47 -124 -123z" />
    <glyph glyph-name="nine" unicode="9" horiz-adv-x="587" 
d="M-10 -203c215 69 365 196 429 346c-46 -38 -101 -62 -167 -62c-129 0 -206 92 -206 214c0 166 118 273 252 273c129 0 234 -94 234 -256c0 -272 -226 -469 -534 -544zM298 526c-106 0 -172 -93 -172 -218c0 -112 66 -177 157 -177c55 0 106 15 149 47c14 42 21 86 21 131
c0 125 -58 217 -155 217z" />
    <glyph glyph-name="colon" unicode=":" horiz-adv-x="315" 
d="M79 53c0 35 28 64 63 64s64 -29 64 -64s-29 -63 -64 -63s-63 28 -63 63zM124 375c0 35 28 64 63 64s64 -29 64 -64s-29 -63 -64 -63s-63 28 -63 63z" />
    <glyph glyph-name="semicolon" unicode=";" horiz-adv-x="315" 
d="M161 -4h-37c-27 7 -45 26 -45 57c0 37 27 64 64 64c52 0 74 -49 74 -93c0 -90 -83 -162 -203 -174l7 38c81 12 140 60 140 108zM124 375c0 35 28 64 63 64s64 -29 64 -64s-29 -63 -64 -63s-63 28 -63 63z" />
    <glyph glyph-name="less" unicode="&#x3c;" 
d="M276 351l-163 -68l146 -65l330 -153l-6 -55l-510 244l7 63l570 244l-6 -53z" />
    <glyph glyph-name="equal" unicode="=" 
d="M624 318h-540l6 50h540zM606 172h-540l6 50h540z" />
    <glyph glyph-name="greater" unicode="&#x3e;" 
d="M436 220l163 68l-146 65l-330 153l6 55l510 -244l-7 -63l-570 -244l6 53z" />
    <glyph glyph-name="question" unicode="?" horiz-adv-x="513" 
d="M317 463c82 47 124 83 124 164c0 69 -46 120 -121 120c-84 0 -123 -48 -123 -113c0 -26 3 -36 5 -46h-69c-12 13 -20 33 -20 56c0 90 96 146 207 146c131 0 203 -73 203 -168c0 -111 -63 -157 -159 -212c-91 -52 -125 -93 -125 -175v-34h-26c-11 20 -25 50 -25 95
c0 76 52 123 129 167zM150 53c0 35 28 64 63 64s64 -29 64 -64s-29 -63 -64 -63s-63 28 -63 63z" />
    <glyph glyph-name="at" unicode="@" horiz-adv-x="1108" 
d="M460 98c37 0 72 22 130 98c66 86 113 211 115 274c-13 33 -37 47 -73 47c-129 0 -222 -152 -223 -313c0 -60 11 -106 51 -106zM748 92c135 0 239 129 239 311c0 226 -128 379 -381 379c-269 0 -461 -229 -461 -510c0 -258 172 -439 419 -439c132 0 237 27 343 95l16 -32
c-79 -64 -220 -110 -359 -110c-299 0 -494 198 -494 486c0 302 234 554 536 554c277 0 452 -168 452 -423c0 -209 -132 -350 -328 -350c-54 0 -82 21 -82 57c0 29 28 136 39 190h-4c-17 -36 -23 -66 -61 -117c-75 -101 -123 -130 -181 -130c-77 0 -108 63 -108 151
c0 184 135 356 299 356c57 0 88 -29 97 -53l66 60h25l-34 -102c-29 -116 -61 -295 -61 -345c0 -18 7 -28 23 -28z" />
    <glyph glyph-name="A" unicode="A" horiz-adv-x="786" 
d="M589 136l-34 124h-335l-66 -125c-12 -22 -19 -37 -19 -58c0 -27 13 -41 100 -44l-4 -33h-242l4 33c35 3 60 12 76 42l350 656l-17 62h88l200 -718c8 -30 32 -40 63 -42l-4 -33h-270l4 33c82 1 117 11 117 40c0 18 -4 37 -11 63zM441 673l-197 -368h298z" />
    <glyph glyph-name="B" unicode="B" horiz-adv-x="765" 
d="M411 378h-131l-26 -218c-3 -27 -4 -44 -4 -59c0 -41 32 -58 95 -58h44c132 0 225 52 225 178c0 99 -62 157 -203 157zM445 736h-121l-38 -314h106c136 0 222 43 222 171c0 94 -65 143 -169 143zM126 780h333c156 0 247 -66 247 -174c0 -139 -107 -194 -225 -205
c151 -11 226 -84 226 -181c0 -146 -134 -220 -326 -220h-351l4 33c74 3 125 13 133 83l65 533c3 21 3 31 3 36c0 53 -44 59 -113 62z" />
    <glyph glyph-name="C" unicode="C" horiz-adv-x="777" 
d="M409 35c133 0 215 75 278 196h28l-43 -180c-67 -43 -176 -61 -263 -61c-195 0 -338 120 -338 347c0 213 126 453 405 453c102 0 197 -28 266 -79l-13 -158h-22c-22 129 -124 191 -231 191c-215 0 -314 -187 -314 -394c0 -208 109 -315 247 -315z" />
    <glyph glyph-name="D" unicode="D" horiz-adv-x="858" 
d="M397 0h-367l4 33c74 3 125 13 133 83l65 533c3 21 3 31 3 36c0 53 -44 59 -113 62l4 33h345c254 0 362 -152 362 -325c0 -285 -186 -455 -436 -455zM350 44h40c200 0 351 136 351 398c0 168 -88 294 -291 294h-126l-71 -579c-3 -27 -4 -44 -4 -59c0 -41 31 -54 101 -54z
" />
    <glyph glyph-name="E" unicode="E" horiz-adv-x="777" 
d="M665 0h-635l4 33c74 3 125 13 133 83l65 533c3 21 3 31 3 36c0 53 -44 59 -113 62l4 33h629l-19 -177h-20c-30 99 -58 133 -149 133h-243l-39 -317h223c50 0 74 38 94 105h27l-31 -253h-27c-4 67 -20 104 -70 104h-221l-27 -218c-3 -27 -4 -44 -4 -59
c0 -41 31 -54 112 -54h129c106 0 126 27 207 146h26z" />
    <glyph glyph-name="F" unicode="F" horiz-adv-x="698" 
d="M126 780h607l-19 -177h-20c-30 99 -58 133 -149 133h-221l-42 -341h200c50 0 74 38 94 105h28l-31 -253h-28c-4 67 -19 104 -69 104h-199l-24 -191c-3 -27 -4 -44 -4 -59c0 -38 24 -62 127 -67l-4 -34h-342l4 33c74 3 125 13 133 83l65 533c3 21 3 31 3 36
c0 53 -44 59 -113 62z" />
    <glyph glyph-name="G" unicode="G" horiz-adv-x="812" 
d="M599 106l14 117c2 21 2 31 2 36c0 53 -44 59 -113 62l4 33h326l-4 -33c-74 -3 -125 -13 -133 -83l-21 -171c-72 -50 -163 -77 -265 -77c-195 0 -338 120 -338 347c0 213 126 453 405 453c102 0 197 -28 266 -79l-13 -158h-22c-22 129 -124 191 -231 191
c-215 0 -314 -187 -314 -394c0 -208 109 -315 247 -315c75 0 149 24 190 71z" />
    <glyph glyph-name="H" unicode="H" horiz-adv-x="959" 
d="M656 780h326l-4 -33c-74 -3 -125 -13 -133 -83l-65 -533c-3 -21 -3 -31 -3 -36c0 -53 44 -59 113 -62l-4 -33h-326l4 33c74 3 125 13 133 83l31 258h-449l-29 -243c-3 -21 -3 -31 -3 -36c0 -53 44 -59 113 -62l-4 -33h-326l4 33c74 3 125 13 133 83l65 533
c3 21 3 31 3 36c0 53 -44 59 -113 62l4 33h326l-4 -33c-74 -3 -125 -13 -133 -83l-30 -245h449l28 230c3 21 3 31 3 36c0 53 -44 59 -113 62z" />
    <glyph glyph-name="I" unicode="I" horiz-adv-x="429" 
d="M126 780h326l-4 -33c-74 -3 -125 -13 -133 -83l-65 -533c-3 -21 -3 -31 -3 -36c0 -53 44 -59 113 -62l-4 -33h-326l4 33c74 3 125 13 133 83l65 533c3 21 3 31 3 36c0 53 -44 59 -113 62z" />
    <glyph glyph-name="J" unicode="J" horiz-adv-x="544" 
d="M334 199l54 450c2 21 2 31 2 36c0 53 -44 59 -113 62l4 33h326l-4 -33c-74 -3 -125 -13 -133 -83l-54 -448c-18 -149 -85 -226 -222 -226c-130 0 -188 58 -188 128c0 39 19 62 44 74h65c-7 -17 -14 -35 -14 -63c0 -54 26 -100 93 -100c81 0 124 37 140 170z" />
    <glyph glyph-name="K" unicode="K" horiz-adv-x="824" 
d="M385 416l217 -261c65 -77 110 -122 191 -122l-4 -33h-143c-37 28 -74 62 -122 120l-226 276l301 279c16 15 30 28 30 41c0 21 -11 26 -83 31l4 33h271l-4 -33c-63 -2 -91 -17 -143 -65zM126 780h326l-4 -33c-74 -3 -125 -13 -133 -83l-65 -533c-3 -21 -3 -31 -3 -36
c0 -53 44 -59 113 -62l-4 -33h-326l4 33c74 3 125 13 133 83l65 533c3 21 3 31 3 36c0 53 -44 59 -113 62z" />
    <glyph glyph-name="L" unicode="L" horiz-adv-x="722" 
d="M315 664l-62 -507c-3 -27 -4 -44 -4 -59c0 -41 33 -54 93 -54h127c93 0 134 51 209 161h24l-62 -205h-610l4 33c74 3 125 13 133 83l65 533c3 21 3 31 3 36c0 53 -44 59 -113 62l4 33h326l-4 -33c-74 -3 -125 -13 -133 -83z" />
    <glyph glyph-name="M" unicode="M" horiz-adv-x="1065" 
d="M526 139l301 582c9 18 19 34 24 59h171l-4 -34c-75 -3 -98 -22 -105 -81l22 -565c2 -48 23 -64 87 -67l-4 -33h-287l4 33c72 4 121 14 118 98l-19 497l-331 -628h-23l-157 628l-150 -500c-4 -17 -6 -29 -6 -41c0 -40 28 -50 101 -54l-4 -33h-257l4 33c64 3 88 15 103 67
l169 565c0 59 -11 78 -85 81l4 34h170c0 -25 5 -41 11 -66z" />
    <glyph glyph-name="N" unicode="N" horiz-adv-x="924" 
d="M708 146l60 503c2 15 3 31 3 36c0 53 -44 59 -113 62l4 33h297l-4 -33c-74 -3 -124 -13 -133 -83l-81 -664h-32l-426 636l-62 -505c-2 -15 -3 -31 -3 -36c0 -53 44 -59 113 -62l-4 -33h-297l4 33c74 3 125 13 133 83l69 564c-42 57 -56 67 -115 67l4 33h162z" />
    <glyph glyph-name="O" unicode="O" horiz-adv-x="809" 
d="M395 36c197 0 298 200 298 402c0 181 -89 306 -233 306c-197 0 -298 -200 -298 -402c0 -181 89 -306 233 -306zM385 -10c-186 0 -314 126 -314 340c0 237 150 460 399 460c186 0 314 -126 314 -340c0 -237 -150 -460 -399 -460z" />
    <glyph glyph-name="P" unicode="P" horiz-adv-x="724" 
d="M275 336l-22 -176c-4 -27 -4 -44 -4 -59c0 -38 24 -62 127 -67l-4 -34h-342l4 33c74 3 125 13 133 83l65 533c3 21 3 31 3 36c0 53 -44 59 -113 62l4 33h328c193 0 280 -71 280 -202c0 -163 -116 -242 -302 -242h-157zM324 736l-44 -356h154c130 0 209 56 209 190
c0 105 -64 166 -191 166h-128z" />
    <glyph glyph-name="Q" unicode="Q" horiz-adv-x="809" 
d="M784 450c0 -223 -133 -433 -355 -457l156 -113c58 -42 100 -46 149 -46h21v-19c-18 -12 -53 -32 -109 -32c-64 0 -117 26 -162 71l-139 138c-164 17 -274 139 -274 338c0 237 150 460 399 460c186 0 314 -126 314 -340zM395 36c197 0 298 200 298 402
c0 181 -89 306 -233 306c-197 0 -298 -200 -298 -402c0 -181 89 -306 233 -306z" />
    <glyph glyph-name="R" unicode="R" horiz-adv-x="817" 
d="M432 736h-108l-41 -334h124c129 0 210 48 210 179c0 101 -60 155 -185 155zM278 359l-28 -228c-3 -21 -3 -31 -3 -36c0 -53 44 -59 113 -62l-4 -33h-326l4 33c74 3 125 13 133 83l65 533c3 21 3 31 3 36c0 53 -44 59 -113 62l4 33h309c179 0 273 -67 273 -188
c0 -154 -122 -223 -255 -231l134 -187c84 -117 125 -141 199 -141l-4 -33h-152c-35 33 -70 67 -122 142l-150 217h-80z" />
    <glyph glyph-name="S" unicode="S" horiz-adv-x="616" 
d="M289 -10c-99 0 -186 32 -238 77l17 183h25c24 -158 97 -214 203 -214c105 0 173 44 173 149c0 92 -66 134 -179 197c-111 62 -159 118 -159 210c0 118 90 198 230 198c82 0 159 -22 215 -63l-20 -159h-23c-16 114 -79 176 -180 176c-94 0 -149 -54 -149 -137
c0 -78 47 -113 139 -163c125 -68 204 -130 204 -245c0 -138 -112 -209 -258 -209z" />
    <glyph glyph-name="T" unicode="T" horiz-adv-x="744" 
d="M400 738h-73c-134 0 -154 -36 -227 -155h-25l41 197h656l-7 -197h-21c-43 120 -53 155 -168 155h-95l-74 -607c-3 -21 -3 -31 -3 -36c0 -53 44 -59 113 -62l-4 -33h-326l4 33c74 3 124 13 133 83z" />
    <glyph glyph-name="U" unicode="U" horiz-adv-x="856" 
d="M148 318l40 331c3 21 3 31 3 36c0 53 -44 59 -113 62l4 33h326l-4 -33c-74 -3 -124 -13 -133 -83l-44 -350c-4 -33 -6 -58 -6 -82c0 -121 86 -185 207 -185c162 0 239 92 258 249l42 353c2 15 3 31 3 36c0 53 -44 59 -113 62l4 33h297l-4 -33c-74 -3 -125 -13 -133 -83
l-47 -388c-22 -180 -141 -286 -311 -286c-169 0 -283 75 -283 241c0 20 2 42 7 87z" />
    <glyph glyph-name="V" unicode="V" horiz-adv-x="763" 
d="M380 121l267 513c15 29 23 49 23 65c0 34 -22 45 -107 48l4 33h255l-4 -33c-37 -4 -59 -12 -75 -42l-380 -717h-26l-187 717c-8 29 -27 41 -65 42l4 33h273l-4 -33c-82 -3 -119 -14 -119 -46c0 -14 2 -29 6 -43z" />
    <glyph glyph-name="W" unicode="W" horiz-adv-x="1120" 
d="M634 658l132 -531l243 507c14 30 23 49 23 65c0 34 -22 45 -107 48l4 33h250l-4 -33c-37 -4 -60 -12 -75 -42l-353 -717h-19l-135 524l-258 -524h-19l-166 717c-7 29 -27 41 -65 42l4 33h270l-4 -33c-82 -3 -119 -14 -119 -46c0 -14 3 -29 6 -43l120 -522l215 438
l-33 131c-8 29 -27 41 -65 42l4 33h268l-4 -33c-84 -2 -119 -14 -119 -48c0 -12 2 -27 6 -41z" />
    <glyph glyph-name="X" unicode="X" horiz-adv-x="804" 
d="M561 128l-148 233l-212 -231c-20 -22 -38 -45 -38 -65c0 -21 11 -32 95 -32l-4 -33h-265l4 33c51 0 74 15 116 62l278 306l-182 284c-35 54 -56 62 -104 62l4 33h300l-4 -33c-88 0 -108 -11 -108 -39c0 -17 8 -34 22 -56l128 -203l182 200c21 24 37 43 37 64
c0 24 -10 34 -100 34l5 33h268l-6 -33c-43 0 -61 -9 -109 -62l-251 -275l202 -315c32 -50 52 -62 100 -62l-4 -33h-297l4 33c92 0 111 12 111 36c0 20 -10 36 -24 59z" />
    <glyph glyph-name="Y" unicode="Y" horiz-adv-x="760" 
d="M332 116l25 209l-207 381c-15 28 -30 39 -65 41l4 33h280l-4 -33c-87 0 -113 -13 -113 -43c0 -16 5 -30 13 -45l152 -287l223 282c12 15 23 30 23 50c0 29 -19 42 -100 43l4 33h252l-4 -33c-35 -4 -51 -11 -75 -41l-302 -378l-23 -197c-2 -21 -2 -31 -2 -36
c0 -53 43 -59 112 -62l-4 -33h-326l4 33c74 3 125 13 133 83z" />
    <glyph glyph-name="Z" unicode="Z" horiz-adv-x="721" 
d="M142 44h284c99 0 114 12 218 140h22l-57 -184h-585l2 20l578 716h-269c-93 0 -132 -31 -183 -128h-22l25 172h569l-2 -21z" />
    <glyph glyph-name="bracketleft" unicode="[" horiz-adv-x="333" 
d="M224 788l-106 -876h120l-6 -42h-169l117 960h169l-5 -42h-120z" />
    <glyph glyph-name="backslash" unicode="\" horiz-adv-x="378" 
d="M290 -121l-173 951h53l173 -951h-53z" />
    <glyph glyph-name="bracketright" unicode="]" horiz-adv-x="333" 
d="M142 -88l106 876h-120l5 42h169l-117 -960h-169l6 42h120z" />
    <glyph glyph-name="asciicircum" unicode="^" horiz-adv-x="476" 
d="M296 735l-194 -335h-64l232 390h64l138 -390h-61z" />
    <glyph glyph-name="underscore" unicode="_" horiz-adv-x="300" 
d="M242 -200h-260l8 53h260z" />
    <glyph glyph-name="grave" unicode="`" horiz-adv-x="600" 
d="M209 800h98l84 -208h-33z" />
    <glyph glyph-name="a" unicode="a" horiz-adv-x="614" 
d="M170 38c37 0 76 33 125 101c69 93 119 213 136 304c-9 31 -41 55 -81 55c-130 0 -232 -190 -233 -350c0 -66 13 -110 53 -110zM365 58c0 44 23 144 40 202h-4c-14 -36 -37 -86 -78 -143c-68 -94 -119 -127 -174 -127c-79 0 -111 59 -111 150c0 195 150 393 304 393
c53 0 90 -24 104 -57l65 66h27l-35 -111c-30 -123 -60 -300 -60 -355c0 -19 9 -28 24 -28c24 0 58 32 95 82l23 -16c-40 -77 -90 -124 -150 -124c-44 0 -70 24 -70 68z" />
    <glyph glyph-name="b" unicode="b" horiz-adv-x="593" 
d="M420 481c-99 0 -287 -258 -287 -366c0 -58 48 -85 101 -85c159 0 239 198 239 358c0 58 -11 93 -53 93zM168 716l-77 29l1 16l146 49h21c-59 -351 -91 -480 -122 -575h4c62 133 183 298 308 298c77 0 106 -63 106 -134c0 -193 -147 -409 -326 -409
c-93 0 -156 49 -174 106c40 206 104 509 113 620z" />
    <glyph glyph-name="c" unicode="c" horiz-adv-x="451" 
d="M287 487c-109 0 -170 -149 -170 -284c0 -108 30 -162 107 -162c65 0 117 48 157 111l26 -18c-37 -73 -108 -144 -204 -144c-118 0 -165 88 -165 185c0 190 116 358 280 358c83 0 119 -46 119 -88c0 -27 -16 -45 -32 -53h-33c-4 54 -30 95 -85 95z" />
    <glyph glyph-name="d" unicode="d" horiz-adv-x="629" 
d="M179 38c36 0 76 32 127 99c71 94 126 213 143 304c-16 36 -51 57 -92 57c-132 0 -237 -190 -238 -350c0 -66 19 -110 60 -110zM499 716l-77 29l1 16l148 49h20c-32 -158 -134 -679 -134 -734c0 -19 9 -28 24 -28c25 0 59 32 95 82l23 -16c-39 -77 -90 -124 -149 -124
c-44 0 -70 24 -70 68s24 143 40 201h-4c-14 -36 -40 -85 -81 -142c-68 -95 -122 -127 -178 -127c-81 0 -119 59 -119 150c0 195 154 393 312 393c44 0 87 -18 108 -48c14 72 34 169 41 231z" />
    <glyph glyph-name="e" unicode="e" horiz-adv-x="471" 
d="M399 153l26 -18c-44 -87 -123 -145 -214 -145c-116 0 -173 71 -173 192c0 171 107 351 279 351c70 0 119 -32 119 -97c0 -114 -129 -168 -323 -234v-10c0 -112 49 -152 110 -152c83 0 132 47 176 113zM293 490c-98 0 -162 -127 -177 -250c165 61 245 109 245 185
c0 38 -22 65 -68 65z" />
    <glyph glyph-name="f" unicode="f" horiz-adv-x="352" 
d="M229 480l-63 -413c-33 -218 -107 -317 -229 -317c-86 0 -127 38 -127 84c0 30 16 51 36 59h33c4 -63 28 -101 78 -101c67 0 111 53 134 219l64 469h-76l9 43h72l7 46c20 137 104 241 226 241c68 0 97 -31 97 -73c0 -29 -16 -49 -30 -58h-31c-4 53 -30 84 -80 84
c-51 0 -83 -39 -98 -139l-15 -101h143l-9 -43h-141z" />
    <glyph glyph-name="g" unicode="g" horiz-adv-x="534" 
d="M228 149c-17 0 -33 2 -47 5c-27 -14 -43 -29 -43 -52c0 -17 13 -25 34 -32l146 -46c62 -20 121 -49 121 -127c0 -92 -117 -147 -248 -147c-146 0 -241 60 -241 143c0 62 48 107 158 131c-15 13 -23 29 -23 53c0 37 32 67 68 88c-49 22 -79 68 -79 131
c0 143 100 237 219 237c44 0 82 -14 108 -40c23 30 57 55 92 55c34 0 56 -19 56 -52c0 -24 -19 -48 -39 -54h-26c0 24 -4 46 -29 46c-17 0 -27 -5 -39 -11c19 -24 30 -55 30 -91c0 -143 -99 -237 -218 -237zM288 -38l-154 49c-77 -27 -109 -58 -109 -113
c0 -72 74 -110 169 -110c121 0 182 39 182 99c0 45 -35 58 -88 75zM240 187c65 0 135 68 135 191c0 69 -25 117 -93 117c-66 0 -135 -68 -135 -191c0 -69 24 -117 93 -117z" />
    <glyph glyph-name="h" unicode="h" horiz-adv-x="631" 
d="M125 0h-70c47 244 108 571 124 716l-77 29l1 16l146 49h20c-46 -277 -88 -517 -130 -654h4c64 158 188 377 320 377c44 0 64 -25 64 -73c0 -104 -75 -310 -75 -384c0 -19 10 -28 25 -28c24 0 58 32 94 82l24 -16c-40 -77 -90 -124 -150 -124c-44 0 -70 24 -70 68
c0 68 79 304 79 388c0 20 -5 34 -23 34c-81 0 -241 -242 -306 -480z" />
    <glyph glyph-name="i" unicode="i" horiz-adv-x="366" 
d="M253 469c0 -87 -66 -307 -66 -393c0 -19 10 -28 25 -28c24 0 58 32 94 82l24 -16c-40 -77 -90 -124 -150 -124c-44 0 -69 24 -69 68c0 87 66 307 66 393c0 14 -5 21 -19 21c-36 0 -79 -45 -108 -91l-28 15c51 102 116 137 164 137c45 0 67 -26 67 -64zM231 635
c-32 0 -56 23 -56 54c0 33 25 63 60 63c32 0 56 -23 56 -54c0 -33 -25 -63 -60 -63z" />
    <glyph glyph-name="j" unicode="j" horiz-adv-x="311" 
d="M157 472c-36 0 -78 -45 -107 -91l-28 15c51 102 116 137 164 137c45 0 67 -26 67 -64c0 -21 -1 -38 -5 -66l-39 -251c-46 -298 -102 -402 -214 -402c-70 0 -105 35 -105 79c0 28 17 46 37 54h33c0 -61 11 -95 47 -95c49 0 78 55 108 247l55 351c4 25 6 49 6 65
c0 14 -5 21 -19 21zM234 635c-32 0 -56 23 -56 54c0 33 25 63 60 63c32 0 56 -23 56 -54c0 -33 -25 -63 -60 -63z" />
    <glyph glyph-name="k" unicode="k" horiz-adv-x="589" 
d="M179 716l-77 29l1 16l146 49h20c-20 -134 -45 -286 -75 -431c72 111 149 154 219 154c67 0 102 -36 102 -92c0 -82 -74 -147 -179 -195l60 -141c20 -48 29 -59 53 -59c26 0 63 25 100 82l25 -16c-43 -76 -96 -122 -155 -122c-43 0 -64 29 -85 83l-61 154
c-36 -10 -74 -20 -111 -28l-38 -199h-69c49 261 106 552 124 716zM185 330l-18 -95c167 36 264 96 264 188c0 38 -18 57 -51 57c-53 0 -107 -42 -195 -150z" />
    <glyph glyph-name="l" unicode="l" horiz-adv-x="316" 
d="M65 63c0 85 103 555 112 653l-77 29l1 16l140 49h20c-16 -183 -122 -644 -122 -734c0 -19 9 -28 24 -28c25 0 59 32 95 82l23 -16c-39 -77 -90 -124 -149 -124c-44 0 -67 24 -67 73z" />
    <glyph glyph-name="m" unicode="m" horiz-adv-x="973" 
d="M550 356l-53 -200h4c64 157 173 377 306 377c43 0 63 -25 63 -73c0 -104 -75 -310 -75 -384c0 -19 9 -28 24 -28c24 0 59 32 95 82l23 -16c-40 -77 -90 -124 -149 -124c-45 0 -70 24 -70 68c0 68 79 304 79 388c0 20 -4 34 -22 34c-82 0 -223 -242 -293 -480h-70
c58 283 79 420 79 446c0 20 -4 34 -20 34c-83 0 -224 -242 -295 -480h-70l74 414c2 12 4 30 4 37c0 14 -5 21 -19 21c-36 0 -79 -45 -108 -91l-28 15c51 102 116 137 164 137c45 0 68 -26 68 -64c0 -11 -3 -32 -14 -78l-56 -235h4c65 158 176 377 306 377
c45 0 65 -25 65 -73c0 -18 -4 -60 -16 -104z" />
    <glyph glyph-name="n" unicode="n" horiz-adv-x="682" 
d="M427 58c0 68 78 304 78 388c0 20 -5 34 -23 34c-81 0 -241 -242 -306 -480h-70l74 414c2 12 4 30 4 37c0 14 -5 21 -19 21c-36 0 -79 -45 -108 -91l-28 15c51 102 116 137 164 137c45 0 68 -26 68 -64c0 -11 -3 -32 -14 -78l-57 -235h4c64 158 188 377 320 377
c44 0 64 -25 64 -73c0 -104 -75 -310 -75 -384c0 -19 10 -28 25 -28c24 0 58 32 94 82l24 -16c-40 -77 -90 -124 -150 -124c-44 0 -69 24 -69 68z" />
    <glyph glyph-name="o" unicode="o" horiz-adv-x="512" 
d="M221 33c107 0 176 140 176 292c0 102 -34 165 -106 165c-107 0 -176 -140 -176 -292c0 -102 34 -165 106 -165zM203 -10c-117 0 -165 84 -165 191c0 166 100 352 270 352c118 0 166 -84 166 -191c0 -166 -101 -352 -271 -352z" />
    <glyph glyph-name="p" unicode="p" horiz-adv-x="648" 
d="M289 28c159 0 239 200 239 360c0 58 -11 92 -53 92c-106 0 -267 -250 -295 -406c21 -30 67 -46 109 -46zM291 -10c-54 0 -92 14 -118 37c-17 -97 -29 -160 -29 -186c0 -43 34 -47 79 -53l-5 -28h-240l5 28c49 3 80 11 88 57l102 569c2 12 4 30 4 37c0 14 -5 21 -19 21
c-36 0 -79 -45 -108 -91l-27 15c50 102 115 137 164 137c44 0 68 -26 68 -64c0 -11 -2 -32 -14 -78l-43 -166h5c60 137 165 308 302 308c77 0 105 -63 105 -134c0 -204 -137 -409 -319 -409z" />
    <glyph glyph-name="q" unicode="q" horiz-adv-x="574" 
d="M157 -10c-81 0 -119 59 -119 150c0 195 154 393 312 393c41 0 88 -18 106 -57l72 66h26l-35 -111c-27 -121 -109 -535 -109 -590c0 -43 34 -47 79 -53l-5 -28h-240l5 28c48 3 79 11 87 57c33 201 56 316 84 414h-4c-14 -36 -40 -85 -81 -142c-68 -95 -122 -127 -178 -127
zM179 38c36 0 76 32 127 99c71 94 126 213 143 304c-16 36 -51 57 -92 57c-132 0 -237 -190 -238 -350c0 -66 19 -110 60 -110z" />
    <glyph glyph-name="r" unicode="r" horiz-adv-x="499" 
d="M191 156h4c58 159 108 268 168 332c28 30 57 45 85 45c38 0 59 -20 59 -55c0 -29 -22 -54 -42 -64h-30c0 26 -8 42 -28 42c-53 0 -151 -183 -231 -456h-70l74 414c2 12 4 30 4 37c0 14 -5 21 -19 21c-36 0 -79 -45 -108 -91l-28 15c51 102 115 137 164 137
c45 0 65 -26 65 -64c0 -11 -3 -32 -14 -78z" />
    <glyph glyph-name="s" unicode="s" horiz-adv-x="410" 
d="M190 28c50 0 77 30 77 72c0 116 -176 182 -176 305c0 74 60 128 159 128c85 0 130 -39 130 -89c0 -21 -12 -41 -31 -47h-26c-6 52 -44 94 -102 94c-41 0 -66 -26 -66 -62c0 -100 176 -183 176 -303c0 -84 -68 -136 -168 -136c-95 0 -148 44 -148 92c0 28 15 49 37 57h22
c11 -66 46 -111 116 -111z" />
    <glyph glyph-name="t" unicode="t" horiz-adv-x="394" 
d="M218 480l-61 -348c-5 -30 -7 -45 -7 -58c0 -17 6 -32 27 -32c42 0 100 48 141 112l27 -18c-47 -80 -117 -146 -191 -146c-47 0 -72 26 -72 73c0 19 2 38 6 63l60 354h-73l6 27c60 26 101 73 148 128h17l-20 -112h138l-8 -43h-138z" />
    <glyph glyph-name="u" unicode="u" horiz-adv-x="653" 
d="M406 58c0 36 24 131 71 309h-4c-64 -158 -160 -377 -298 -377c-46 0 -73 31 -73 82c0 104 74 305 74 379c0 14 -5 21 -19 21c-36 0 -79 -45 -108 -91l-28 15c51 102 116 137 164 137c45 0 68 -26 68 -64c0 -68 -78 -299 -78 -383c0 -27 12 -43 34 -43
c83 0 207 238 281 480h72c-60 -287 -78 -420 -78 -447c0 -19 10 -28 25 -28c24 0 57 32 94 82l23 -16c-40 -77 -90 -124 -150 -124c-44 0 -70 24 -70 68z" />
    <glyph glyph-name="v" unicode="v" horiz-adv-x="548" 
d="M449 402c0 49 -36 71 -86 71v23c13 24 44 37 74 37c55 0 81 -42 81 -93c0 -121 -152 -316 -272 -450h-34c-21 183 -49 344 -67 414c-10 39 -18 64 -41 64c-36 0 -58 -31 -87 -77l-27 15c50 102 95 127 138 127c54 0 69 -41 81 -84c26 -92 52 -271 58 -379
c105 121 182 237 182 332z" />
    <glyph glyph-name="w" unicode="w" horiz-adv-x="819" 
d="M719 402c0 49 -35 71 -85 71v23c13 24 44 37 74 37c55 0 81 -42 81 -93c0 -121 -133 -316 -254 -450h-39c-13 137 -31 290 -49 360h-4c-28 -94 -88 -209 -199 -360h-41c-20 183 -40 344 -58 414c-11 39 -18 64 -41 64c-36 0 -58 -31 -87 -77l-27 15
c50 102 95 127 138 127c54 0 69 -41 81 -84c26 -92 44 -272 50 -380c71 97 161 262 161 354c0 33 -22 75 -39 94c10 8 24 16 45 16c30 0 52 -14 69 -83c21 -87 54 -275 60 -384c83 96 164 238 164 336z" />
    <glyph glyph-name="x" unicode="x" horiz-adv-x="574" 
d="M291 127l-14 84c-69 -148 -126 -221 -202 -221c-39 0 -78 19 -78 63c0 31 18 49 38 59h18c7 -47 27 -59 52 -59c45 0 103 80 161 208l-16 91c-18 102 -33 121 -62 121c-28 0 -62 -37 -93 -85l-25 17c59 112 115 128 151 128c58 0 76 -47 92 -141l9 -54
c48 102 103 195 185 195c42 0 73 -21 73 -62c0 -30 -21 -50 -36 -60h-24c-5 43 -20 59 -46 59c-47 0 -91 -76 -142 -187l27 -133c18 -87 26 -106 55 -106c26 0 58 25 99 81l20 -20c-48 -79 -91 -115 -143 -115c-59 0 -83 40 -99 137z" />
    <glyph glyph-name="y" unicode="y" horiz-adv-x="555" 
d="M213 450c35 -117 79 -330 89 -481c88 142 147 258 147 370c0 93 -39 135 -105 135v22c13 21 40 37 73 37c63 0 93 -52 93 -121c0 -107 -29 -225 -139 -401c-136 -218 -246 -261 -349 -261c-74 0 -132 32 -132 88c0 26 16 48 38 55h27c8 -60 39 -93 100 -93
c76 0 133 32 192 102c-17 176 -68 415 -98 503c-11 39 -22 63 -44 63c-36 0 -58 -31 -87 -77l-28 15c51 102 96 127 139 127c54 0 72 -40 84 -83z" />
    <glyph glyph-name="z" unicode="z" horiz-adv-x="546" 
d="M109 168l328 241c-84 3 -173 54 -255 54c-31 0 -51 -12 -51 -41c0 -18 12 -34 30 -43l-12 -28c-31 12 -57 36 -57 76c0 68 45 106 121 106c89 0 144 -54 265 -66v55c4 7 12 11 19 11c21 0 30 -19 30 -42c0 -44 -27 -80 -98 -133l-339 -249c19 6 43 11 66 11
c92 0 131 -64 227 -64c35 0 61 15 61 46c0 21 -12 32 -31 46l14 24c29 -14 54 -37 54 -79c0 -62 -45 -103 -123 -103c-118 0 -176 75 -261 75c-16 0 -28 -3 -36 -9v-55c-4 -7 -13 -11 -20 -11c-21 0 -29 19 -29 42c0 44 24 83 97 136z" />
    <glyph glyph-name="braceleft" unicode="{" horiz-adv-x="410" 
d="M136 350c64 -20 91 -67 91 -121c0 -66 -50 -135 -50 -222c0 -62 36 -95 139 -95l-5 -42c-142 0 -183 60 -183 134c0 89 48 158 48 225c0 54 -29 99 -131 99l5 44c132 0 162 75 162 150c0 32 -6 67 -6 104c0 101 36 204 222 204l-5 -42c-132 0 -168 -55 -168 -158
c0 -40 7 -76 7 -111c0 -74 -38 -144 -126 -169z" />
    <glyph glyph-name="bar" unicode="|" horiz-adv-x="257" 
d="M228 830l-116 -951h-52l116 951h52z" />
    <glyph glyph-name="braceright" unicode="}" horiz-adv-x="410" 
d="M296 350c-64 20 -91 67 -91 121c0 66 50 135 50 222c0 62 -36 95 -139 95l5 42c142 0 183 -60 183 -134c0 -89 -48 -158 -48 -225c0 -54 29 -99 131 -99l-5 -44c-132 0 -162 -75 -162 -150c0 -32 6 -67 6 -104c0 -101 -36 -204 -222 -204l5 42c132 0 168 55 168 158
c0 40 -7 76 -7 111c0 74 38 144 126 169z" />
    <glyph glyph-name="asciitilde" unicode="~" horiz-adv-x="523" 
d="M82 275h-36c27 65 64 116 124 116c87 0 155 -60 221 -60c33 0 44 16 67 58h36c-26 -65 -64 -116 -124 -116c-87 0 -155 61 -220 61c-33 0 -45 -17 -68 -59z" />
    <glyph glyph-name="Euro" unicode="&#x20ac;" horiz-adv-x="693" 
d="M51 351l6 43h98c40 129 141 236 298 236c83 0 150 -24 200 -62l-17 -137h-29c-21 110 -64 152 -154 152c-124 0 -193 -76 -220 -189h272l-14 -43h-266c-4 -25 -6 -50 -6 -77h253l-13 -43h-239c9 -126 80 -195 184 -195c94 0 154 44 211 159h30l-40 -151
c-56 -33 -122 -54 -211 -54c-152 0 -246 90 -257 241h-102l6 43h95c0 26 3 51 8 77h-93z" />
    <glyph glyph-name="quotesinglbase" unicode="&#x201a;" horiz-adv-x="319" 
d="M173 5h-37c-27 7 -45 25 -45 56c0 37 27 60 64 60c52 0 74 -45 74 -89c0 -90 -83 -164 -203 -176l7 38c81 12 140 63 140 111z" />
    <glyph glyph-name="quoteright" unicode="&#x2019;" horiz-adv-x="319" 
d="M263 690h-37c-27 7 -45 25 -45 56c0 37 27 60 64 60c52 0 74 -45 74 -89c0 -90 -83 -164 -203 -176l7 38c81 12 140 63 140 111z" />
    <glyph glyph-name="florin" unicode="&#x192;" horiz-adv-x="521" 
d="M75 -106l96 429h-108l5 38h112l12 53c34 150 100 217 214 217c68 0 116 -30 116 -81c0 -24 -10 -46 -29 -56h-59c2 13 4 26 4 43c0 28 -17 49 -52 49c-61 0 -92 -47 -118 -163l-14 -62h148l-6 -38h-151l-96 -429h-74z" />
    <glyph glyph-name="quotedblbase" unicode="&#x201e;" horiz-adv-x="519" 
d="M373 5h-37c-27 7 -45 25 -45 56c0 37 27 60 64 60c52 0 74 -45 74 -89c0 -90 -87 -164 -203 -176l7 38c81 12 140 63 140 111zM173 5h-37c-27 7 -45 25 -45 56c0 37 27 60 64 60c52 0 74 -45 74 -89c0 -90 -83 -164 -203 -176l7 38c81 12 140 63 140 111z" />
    <glyph glyph-name="quotedblright" unicode="&#x201d;" horiz-adv-x="519" 
d="M463 691h-37c-27 7 -45 25 -45 56c0 37 27 60 64 60c52 0 74 -45 74 -89c0 -90 -87 -164 -203 -176l7 38c81 12 140 63 140 111zM263 691h-37c-27 7 -45 25 -45 56c0 37 27 60 64 60c52 0 74 -45 74 -89c0 -90 -83 -164 -203 -176l7 38c81 12 140 63 140 111z" />
    <glyph glyph-name="dagger" unicode="&#x2020;" horiz-adv-x="687" 
d="M371 780h75l7 -23l-66 -257l260 34l24 -10l-9 -71l-26 -10l-252 34l8 -224l-94 -503h-31l30 503l62 224l-260 -34l-24 10l9 71l26 10l252 -34l-4 257z" />
    <glyph glyph-name="daggerdbl" unicode="&#x2021;" horiz-adv-x="687" 
d="M300 269l59 208l-260 -34l-24 10l9 71l26 10l252 -34l-4 257l13 23h75l7 -23l-66 -257l260 34l24 -10l-9 -71l-26 -10l-252 34l11 -208l-62 -206l260 34l24 -10l-9 -71l-26 -10l-252 34l4 -257l-13 -23h-75l-7 23l66 257l-260 -34l-24 10l9 71l26 10l252 -34z" />
    <glyph glyph-name="circumflex" unicode="&#x2c6;" horiz-adv-x="600" 
d="M354 800l122 -208h-34l-121 137l-163 -137h-34l174 208h56z" />
    <glyph glyph-name="perthousand" unicode="&#x2030;" horiz-adv-x="1458" 
d="M225 304c93 0 119 125 119 214c0 64 -23 119 -99 119c-93 0 -119 -125 -119 -214c0 -64 23 -119 99 -119zM225 263c-103 0 -171 65 -171 176c0 125 63 239 191 239c103 0 171 -65 171 -176c0 -125 -63 -239 -191 -239zM771 364c-93 0 -119 -125 -119 -214
c0 -64 23 -119 99 -119c93 0 119 125 119 214c0 64 -23 119 -99 119zM211 0l518 668h56l-518 -668h-56zM771 405c103 0 171 -65 171 -176c0 -125 -63 -239 -191 -239c-103 0 -171 65 -171 176c0 125 63 239 191 239zM1199 364c-93 0 -119 -125 -119 -214
c0 -64 23 -119 99 -119c93 0 119 125 119 214c0 64 -23 119 -99 119zM1199 405c103 0 171 -65 171 -176c0 -125 -63 -239 -191 -239c-103 0 -171 65 -171 176c0 125 63 239 191 239z" />
    <glyph glyph-name="guilsinglleft" unicode="&#x2039;" horiz-adv-x="307" 
d="M64 269l1 10l192 190h37l-152 -195l104 -195h-37z" />
    <glyph glyph-name="OE" unicode="&#x152;" horiz-adv-x="1185" 
d="M385 -10c-186 0 -314 126 -314 340c0 237 150 460 399 460c30 0 59 -4 86 -10h607l-19 -177h-20c-30 99 -58 133 -149 133h-320c81 -57 129 -155 129 -286c0 -11 -1 -21 -1 -31h133c50 0 74 38 94 105h27l-31 -253h-27c-4 67 -20 104 -70 104h-130
c-19 -138 -89 -263 -199 -331h318c106 0 126 27 207 146h26l-58 -190h-600c-28 -6 -57 -10 -88 -10zM395 36c197 0 298 200 298 402c0 181 -89 306 -233 306c-197 0 -298 -200 -298 -402c0 -181 89 -306 233 -306z" />
    <glyph glyph-name="quoteleft" unicode="&#x2018;" horiz-adv-x="319" 
d="M183 663h37c27 -7 45 -25 45 -56c0 -37 -27 -60 -64 -60c-52 0 -74 45 -74 89c0 90 83 164 203 176l-7 -38c-81 -12 -140 -63 -140 -111z" />
    <glyph glyph-name="quotedblleft" unicode="&#x201c;" horiz-adv-x="519" 
d="M183 663h37c27 -7 45 -25 45 -56c0 -37 -27 -60 -64 -60c-52 0 -74 45 -74 89c0 90 87 164 203 176l-7 -38c-81 -12 -140 -63 -140 -111zM383 663h37c27 -7 45 -25 45 -56c0 -37 -27 -60 -64 -60c-52 0 -74 45 -74 89c0 90 83 164 203 176l-7 -38
c-81 -12 -140 -63 -140 -111z" />
    <glyph glyph-name="bullet" unicode="&#x2022;" horiz-adv-x="385" 
d="M106 333c0 57 46 104 103 104s104 -47 104 -104s-47 -103 -104 -103s-103 46 -103 103z" />
    <glyph glyph-name="endash" unicode="&#x2013;" horiz-adv-x="500" 
d="M462 309h-400l8 58h400z" />
    <glyph glyph-name="emdash" unicode="&#x2014;" horiz-adv-x="1000" 
d="M962 309h-900l8 58h900z" />
    <glyph glyph-name="tilde" unicode="&#x2dc;" horiz-adv-x="600" 
d="M461 727l35 -6c-35 -69 -79 -111 -140 -111c-58 0 -88 64 -136 64c-34 0 -54 -14 -82 -57l-35 6c35 69 79 111 140 111c58 0 88 -64 136 -64c34 0 54 14 82 57z" />
    <glyph glyph-name="trademark" unicode="&#x2122;" horiz-adv-x="900" 
d="M652 521l128 234c3 5 4 11 7 25h86l-3 -24c-28 -2 -38 -11 -42 -27l5 -231c0 -16 11 -20 37 -22l-3 -24h-139l3 24c32 2 47 5 47 19c0 42 -2 148 -2 191l-130 -234h-28l-76 247l-37 -168c-4 -17 -6 -28 -6 -34c0 -15 6 -19 41 -21l-3 -24h-118l3 24c23 1 37 6 41 22
l56 231c0 16 -5 25 -36 27l3 24h94c1 -11 3 -20 4 -25zM125 780h311l-3 -92h-22c-18 49 -23 62 -65 62h-39l-27 -234c-2 -15 -2 -16 -2 -16c0 -18 17 -22 47 -24l-2 -24h-162l3 24c30 2 52 6 55 29l29 245h-40c-42 0 -50 -13 -78 -62h-23z" />
    <glyph glyph-name="guilsinglright" unicode="&#x203a;" horiz-adv-x="307" 
d="M264 279l-1 -10l-193 -190h-37l152 195l-104 195h37z" />
    <glyph glyph-name="oe" unicode="&#x153;" horiz-adv-x="813" 
d="M741 153l26 -18c-44 -87 -123 -145 -214 -145c-84 0 -136 41 -159 108c-46 -63 -111 -108 -191 -108c-117 0 -165 84 -165 191c0 166 100 352 270 352c83 0 130 -45 151 -108c49 63 118 108 200 108c70 0 119 -32 119 -97c0 -114 -129 -168 -323 -234v-10
c0 -112 49 -152 110 -152c83 0 132 47 176 113zM221 33c107 0 176 140 176 292c0 102 -34 165 -106 165c-107 0 -176 -140 -176 -292c0 -102 34 -165 106 -165zM635 490c-98 0 -162 -127 -177 -250c165 61 245 109 245 185c0 38 -22 65 -68 65z" />
    <glyph glyph-name="exclamdown" unicode="&#xa1;" horiz-adv-x="315" 
d="M57 -240l5 46l56 292c16 81 36 182 44 245h38c-6 -63 -11 -162 -16 -245l-16 -292l-5 -46h-106zM262 487c0 -35 -28 -64 -63 -64s-64 29 -64 64s29 63 64 63s63 -28 63 -63z" />
    <glyph glyph-name="cent" unicode="&#xa2;" horiz-adv-x="534" 
d="M153 -105l30 102c-94 23 -133 105 -133 201c0 182 103 353 299 368l36 121h43l-35 -121c84 -5 121 -51 121 -93c0 -28 -19 -47 -37 -56h-39c-3 45 -23 81 -61 95l-137 -469c7 -1 14 -1 22 -1c75 0 140 53 186 120l31 -19c-43 -78 -126 -153 -237 -153c-6 0 -12 0 -17 1
l-28 -96h-44zM134 214c0 -83 20 -136 66 -159l135 463c-138 -4 -201 -162 -201 -304z" />
    <glyph glyph-name="sterling" unicode="&#xa3;" horiz-adv-x="687" 
d="M106 304l5 42h122l20 90c28 124 96 194 222 194c91 0 141 -43 141 -94c0 -25 -15 -47 -35 -54h-58c3 10 5 20 5 36c0 41 -21 72 -65 72c-71 0 -109 -74 -135 -169l-20 -75h203l-5 -42h-210l-43 -160c63 -33 122 -88 215 -88c60 0 103 23 103 85c0 25 -7 43 -28 63l18 20
c40 -20 66 -56 66 -100c0 -98 -73 -134 -159 -134c-97 0 -177 57 -232 109c-21 -52 -54 -109 -132 -109c-62 0 -95 37 -95 86c0 60 47 103 116 103c23 0 48 -4 68 -10l30 135h-117zM104 32c33 0 63 26 77 95c-19 6 -38 9 -56 9c-41 0 -65 -25 -65 -60c0 -25 17 -44 44 -44z
" />
    <glyph glyph-name="currency" unicode="&#xa4;" horiz-adv-x="629" 
d="M305 81c-63 0 -116 18 -154 49l-74 -65l-34 39l73 65c-23 33 -36 75 -36 122c0 71 23 130 62 172l-47 54l41 35l48 -54c38 25 85 39 137 39c63 0 115 -18 154 -50l74 66l34 -39l-73 -65c23 -34 36 -75 36 -122c0 -71 -23 -130 -62 -172l47 -54l-41 -35l-48 54
c-39 -25 -86 -39 -137 -39zM305 126c102 0 164 95 164 201c0 100 -47 165 -148 165c-102 0 -164 -95 -164 -201c0 -100 47 -165 148 -165z" />
    <glyph glyph-name="yen" unicode="&#xa5;" horiz-adv-x="596" 
d="M57 301l5 41h152l-98 223c-8 19 -26 22 -51 24l4 31h231l-4 -31c-59 -2 -90 -6 -90 -39c0 -10 7 -27 16 -49l84 -204l158 219c13 18 21 30 21 42c0 24 -23 28 -79 31l4 31h206l-4 -31c-32 -2 -46 -9 -62 -31l-160 -216h153l-5 -41h-179l-38 -52l-4 -31h211l-5 -41h-211
l-4 -38c-3 -27 -5 -47 -5 -59c0 -35 28 -48 91 -49l-4 -31h-263l4 31c64 0 98 12 104 60l11 86h-204l5 41h204l4 31l-23 52h-175z" />
    <glyph glyph-name="brokenbar" unicode="&#xa6;" horiz-adv-x="257" 
d="M162 285l-50 -406h-52l50 406h52zM228 830l-49 -406h-52l49 406h52z" />
    <glyph glyph-name="section" unicode="&#xa7;" horiz-adv-x="510" 
d="M408 160c0 -188 -102 -410 -314 -410c-94 0 -133 41 -133 86c0 41 29 57 52 67h56c-6 -12 -7 -29 -7 -38c0 -41 23 -64 67 -64c73 0 108 47 108 119c0 149 -137 251 -137 488c0 188 101 410 313 410c94 0 134 -41 134 -86c0 -40 -29 -57 -53 -66h-56c6 12 8 28 8 37
c0 41 -24 64 -68 64c-73 0 -108 -47 -108 -119c0 -149 138 -250 138 -488zM143 402c0 -197 140 -338 140 -480c0 -14 -3 -35 -11 -49c53 63 92 172 92 294c0 197 -140 338 -140 480c0 14 4 35 11 49c-53 -63 -92 -173 -92 -294z" />
    <glyph glyph-name="dieresis" unicode="&#xa8;" horiz-adv-x="600" 
d="M197 628c-32 0 -56 23 -56 54c0 33 25 63 60 63c32 0 56 -23 56 -54c0 -33 -25 -63 -60 -63zM397 628c-32 0 -56 23 -56 54c0 33 25 63 60 63c32 0 56 -23 56 -54c0 -33 -25 -63 -60 -63z" />
    <glyph glyph-name="copyright" unicode="&#xa9;" horiz-adv-x="890" 
d="M64 390c0 221 179 400 400 400s400 -179 400 -400s-179 -400 -400 -400s-400 179 -400 400zM94 390c0 -204 166 -370 370 -370s370 166 370 370s-166 370 -370 370s-370 -166 -370 -370zM460 178c86 0 138 50 181 127h22l-32 -123c-49 -27 -105 -42 -178 -42
c-140 0 -233 81 -233 215c0 142 100 290 281 290c74 0 130 -22 170 -51l-12 -106h-19c-19 79 -61 117 -143 117c-137 0 -198 -123 -198 -252c0 -115 65 -175 161 -175z" />
    <glyph glyph-name="guillemotleft" unicode="&#xab;" horiz-adv-x="464" 
d="M64 269l1 10l192 190h37l-152 -195l104 -195h-37zM222 269l1 10l191 190h37l-152 -195l104 -195h-37z" />
    <glyph glyph-name="registered" unicode="&#xae;" horiz-adv-x="471" 
d="M90 603c0 104 83 187 184 187c104 0 187 -83 187 -187c0 -101 -83 -184 -187 -184c-101 0 -184 83 -184 184zM116 603c0 -87 71 -161 158 -161c89 0 160 74 160 161c0 89 -71 163 -160 163c-87 0 -158 -74 -158 -163zM199 714h96c52 0 76 -20 76 -53
c0 -38 -35 -57 -66 -61l37 -50c16 -21 25 -32 39 -32l-1 -16h-42c-10 9 -21 19 -39 45l-33 49h-20l-5 -40c-1 -7 -2 -14 -2 -19c0 -13 4 -19 24 -19l-2 -16h-88l2 16c22 0 24 6 27 25l15 118c1 8 2 14 2 19c0 13 -2 18 -22 18zM259 694l-11 -81h27c35 0 57 13 57 48
c0 23 -15 33 -42 33h-31z" />
    <glyph glyph-name="macron" unicode="&#xaf;" horiz-adv-x="600" 
d="M165 652l6 52h264l-6 -52h-264z" />
    <glyph glyph-name="degree" unicode="&#xb0;" horiz-adv-x="486" 
d="M264 464c81 0 139 64 139 160c0 72 -42 121 -112 121c-81 0 -139 -64 -139 -160c0 -72 42 -121 112 -121zM264 419c-109 0 -171 73 -171 166c0 110 79 205 198 205c109 0 171 -73 171 -166c0 -110 -79 -205 -198 -205z" />
    <glyph glyph-name="plusminus" unicode="&#xb1;" 
d="M312 152l22 176h-242l6 51h242l22 176h56l-22 -176h242l-6 -51h-242l-22 -176h-56zM599 58h-540l6 48h540z" />
    <glyph glyph-name="twosuperior" unicode="&#xb2;" horiz-adv-x="383" 
d="M120 352h104c62 0 81 6 123 72h22l-39 -128h-311l2 14c236 209 275 249 275 339c0 53 -33 82 -85 82c-59 0 -89 -30 -121 -64l-16 14c34 60 84 105 165 105c86 0 134 -49 134 -117c0 -119 -106 -181 -253 -317z" />
    <glyph glyph-name="threesuperior" unicode="&#xb3;" horiz-adv-x="392" 
d="M162 551c75 25 145 61 145 124c0 38 -25 62 -69 62c-50 0 -86 -28 -119 -69l-17 16c32 54 83 102 162 102c75 0 116 -40 116 -99c0 -69 -68 -102 -118 -117c74 -9 118 -60 118 -127c0 -104 -93 -153 -179 -153c-109 0 -152 57 -152 103c0 29 17 49 37 57h38
c-3 -15 -5 -28 -5 -43c0 -45 26 -88 83 -88c67 0 105 42 105 116c0 58 -37 101 -95 101c-15 0 -26 -2 -44 -6z" />
    <glyph glyph-name="acute" unicode="&#xb4;" horiz-adv-x="600" 
d="M319 800h107l-219 -208h-33z" />
    <glyph glyph-name="paragraph" unicode="&#xb6;" horiz-adv-x="714" 
d="M277 -240l74 608c-153 0 -248 66 -248 187c0 158 125 225 288 225h315l-4 -35c-75 -3 -117 -14 -125 -81l-111 -904h-46l120 987h-96l-120 -987h-47z" />
    <glyph glyph-name="periodcentered" unicode="&#xb7;" horiz-adv-x="318" 
d="M114 329c0 35 28 64 63 64s64 -29 64 -64s-29 -63 -64 -63s-63 28 -63 63z" />
    <glyph glyph-name="cedilla" unicode="&#xb8;" horiz-adv-x="600" 
d="M294 12h29l-27 -54c57 -8 112 -38 112 -103c0 -71 -52 -105 -112 -105c-42 0 -81 18 -103 40l19 22c23 -14 50 -24 80 -24c29 0 60 14 60 53c0 51 -56 70 -109 74z" />
    <glyph glyph-name="onesuperior" unicode="&#xb9;" horiz-adv-x="339" 
d="M270 786h17l-50 -403c-1 -7 -2 -16 -2 -24c0 -30 41 -32 105 -36l-3 -27h-296l2 27c75 4 122 7 127 49l38 313h-121l2 23l37 6c69 10 104 25 144 72z" />
    <glyph glyph-name="guillemotright" unicode="&#xbb;" horiz-adv-x="464" 
d="M264 279l-1 -10l-193 -190h-37l152 195l-104 195h37zM421 279l-1 -10l-193 -190h-36l152 195l-104 195h36z" />
    <glyph glyph-name="onequarter" unicode="&#xbc;" horiz-adv-x="916" 
d="M270 786h17l-50 -403c-1 -7 -2 -16 -2 -24c0 -30 41 -32 105 -36l-3 -27h-296l2 27c75 4 122 7 127 49l38 313h-121l2 23l37 6c69 10 104 25 144 72zM178 0l639 780h56l-639 -780h-56zM551 161h188l27 225zM786 0h-67l15 126h-239l2 26l314 332h34l-39 -323h79l-5 -35
h-79z" />
    <glyph glyph-name="fraction" unicode="&#x2044;" horiz-adv-x="283" 
d="M-179 0l639 780h56l-639 -780h-56z" />
    <glyph glyph-name="uni2084" unicode="&#x2084;" horiz-adv-x="429" 
d="M64 161h188l27 225zM299 0h-67l15 126h-239l2 26l314 332h34l-39 -323h79l-5 -35h-79z" />
    <glyph glyph-name="onehalf" unicode="&#xbd;" horiz-adv-x="984" 
d="M691 56h104c62 0 81 6 123 72h22l-39 -128h-311l2 14c236 209 275 249 275 339c0 53 -33 82 -85 82c-59 0 -89 -30 -121 -64l-16 14c34 60 84 105 165 105c86 0 134 -49 134 -117c0 -119 -106 -181 -253 -317zM270 786h17l-50 -403c-1 -7 -2 -16 -2 -24
c0 -30 41 -32 105 -36l-3 -27h-296l2 27c75 4 122 7 127 49l38 313h-121l2 23l37 6c69 10 104 25 144 72zM178 0l639 780h56l-639 -780h-56z" />
    <glyph glyph-name="uni2082" unicode="&#x2082;" horiz-adv-x="383" 
d="M90 56h104c62 0 81 6 123 72h22l-39 -128h-311l2 14c236 209 275 249 275 339c0 53 -33 82 -85 82c-59 0 -89 -30 -121 -64l-16 14c34 60 84 105 165 105c86 0 134 -49 134 -117c0 -119 -106 -181 -253 -317z" />
    <glyph glyph-name="threequarters" unicode="&#xbe;" horiz-adv-x="923" 
d="M162 551c75 25 145 61 145 124c0 38 -25 62 -69 62c-50 0 -86 -28 -119 -69l-17 16c32 54 83 102 162 102c75 0 116 -40 116 -99c0 -69 -68 -102 -118 -117c74 -9 118 -60 118 -127c0 -104 -93 -153 -179 -153c-109 0 -152 57 -152 103c0 29 17 49 37 57h38
c-3 -15 -5 -28 -5 -43c0 -45 26 -88 83 -88c67 0 105 42 105 116c0 58 -37 101 -95 101c-15 0 -26 -2 -44 -6zM185 0l639 780h56l-639 -780h-56zM558 161h188l27 225zM793 0h-67l15 126h-239l2 26l314 332h34l-39 -323h79l-5 -35h-79z" />
    <glyph glyph-name="questiondown" unicode="&#xbf;" horiz-adv-x="513" 
d="M249 60c-82 -47 -124 -83 -124 -164c0 -69 46 -120 121 -120c84 0 123 48 123 113c0 26 -3 36 -5 46h69c12 -13 20 -33 20 -56c0 -90 -96 -146 -207 -146c-131 0 -203 73 -203 168c0 111 63 157 159 212c91 52 125 93 125 175v34h26c11 -20 25 -50 25 -95
c0 -76 -52 -123 -129 -167zM416 470c0 -35 -28 -64 -63 -64s-64 29 -64 64s29 63 64 63s63 -28 63 -63z" />
    <glyph glyph-name="AE" unicode="&#xc6;" horiz-adv-x="1124" 
d="M242 259l-77 -124c-13 -21 -19 -37 -19 -58c0 -27 12 -40 99 -43l-4 -34h-252l4 34c31 5 57 13 76 41l431 655c-23 10 -64 15 -98 16l4 34h696l-20 -177h-20c-30 99 -58 133 -149 133h-314l25 -317h230c50 0 74 38 94 105h27l-31 -253h-27c-4 67 -20 104 -70 104h-220
l20 -256c5 -62 43 -75 132 -75h57c106 0 126 27 207 146h26l-58 -190h-575l4 34c68 3 128 12 128 65c0 9 0 18 -1 32l-10 128h-315zM524 685h-2l-249 -382h281z" />
    <glyph glyph-name="Eth" unicode="&#xd0;" horiz-adv-x="858" 
d="M84 375l5 44h115l28 230c3 21 3 31 3 36c0 53 -44 59 -113 62l4 33h345c254 0 362 -152 362 -325c0 -285 -186 -455 -436 -455h-367l4 33c74 3 125 13 133 83l31 259h-114zM350 44h40c200 0 351 136 351 398c0 168 -88 294 -291 294h-126l-39 -317h255l-5 -44h-256
l-26 -218c-3 -27 -4 -44 -4 -59c0 -41 31 -54 101 -54z" />
    <glyph glyph-name="multiply" unicode="&#xd7;" 
d="M74 73l243 217l-189 212l39 34l188 -213l238 214l31 -37l-239 -214l187 -213l-39 -34l-185 215l-243 -218z" />
    <glyph glyph-name="Oslash" unicode="&#xd8;" horiz-adv-x="809" 
d="M385 -10c-92 0 -169 30 -224 86l-81 -86l-32 28l85 92c-40 56 -62 130 -62 220c0 237 150 460 399 460c89 0 165 -29 220 -83l78 83l34 -29l-83 -89c41 -56 65 -131 65 -222c0 -237 -150 -460 -399 -460zM395 36c197 0 298 200 298 402c0 65 -12 123 -33 171l-445 -475
c41 -62 102 -98 180 -98zM162 342c0 -64 11 -121 31 -168l444 475c-41 60 -101 95 -177 95c-197 0 -298 -200 -298 -402z" />
    <glyph glyph-name="Thorn" unicode="&#xde;" horiz-adv-x="724" 
d="M305 580l-45 -363h144c124 0 219 59 219 193c0 110 -58 170 -190 170h-128zM433 171h-179c-4 -38 -7 -57 -7 -76c0 -53 60 -59 129 -62l-4 -33h-342l4 33c74 3 125 13 133 83l65 533c3 21 3 31 3 36c0 53 -44 59 -113 62l4 33h326l-4 -33c-74 -3 -125 -13 -133 -83
l-5 -40h123c209 0 286 -83 286 -206c0 -142 -108 -247 -286 -247z" />
    <glyph glyph-name="germandbls" unicode="&#xdf;" horiz-adv-x="650" 
d="M248 601l-82 -534c-33 -218 -107 -317 -229 -317c-86 0 -127 38 -127 84c0 30 16 51 36 59h33c4 -63 28 -101 78 -101c67 0 111 53 134 219l64 469h-76l9 43h72l7 45c26 152 132 242 266 242c114 0 173 -75 173 -152c0 -110 -91 -182 -193 -232c80 -53 183 -121 183 -227
c0 -121 -85 -209 -218 -209c-95 0 -148 44 -148 92c0 28 15 49 37 57h22c11 -66 46 -111 116 -111c71 0 132 50 132 138c0 105 -95 168 -196 234l5 24c140 67 191 105 191 215c0 78 -61 128 -135 128c-85 0 -138 -59 -154 -166z" />
    <glyph glyph-name="agrave" unicode="&#xe0;" horiz-adv-x="614" 
d="M170 38c37 0 76 33 125 101c69 93 119 213 136 304c-9 31 -41 55 -81 55c-130 0 -232 -190 -233 -350c0 -66 13 -110 53 -110zM365 58c0 44 23 144 40 202h-4c-14 -36 -37 -86 -78 -143c-68 -94 -119 -127 -174 -127c-79 0 -111 59 -111 150c0 195 150 393 304 393
c53 0 90 -24 104 -57l65 66h27l-35 -111c-30 -123 -60 -300 -60 -355c0 -19 9 -28 24 -28c24 0 58 32 95 82l23 -16c-40 -77 -90 -124 -150 -124c-44 0 -70 24 -70 68zM176 800h98l84 -208h-33z" />
    <glyph glyph-name="acircumflex" unicode="&#xe2;" horiz-adv-x="614" 
d="M170 38c37 0 76 33 125 101c69 93 119 213 136 304c-9 31 -41 55 -81 55c-130 0 -232 -190 -233 -350c0 -66 13 -110 53 -110zM365 58c0 44 23 144 40 202h-4c-14 -36 -37 -86 -78 -143c-68 -94 -119 -127 -174 -127c-79 0 -111 59 -111 150c0 195 150 393 304 393
c53 0 90 -24 104 -57l65 66h27l-35 -111c-30 -123 -60 -300 -60 -355c0 -19 9 -28 24 -28c24 0 58 32 95 82l23 -16c-40 -77 -90 -124 -150 -124c-44 0 -70 24 -70 68zM401 800l122 -208h-34l-121 137l-163 -137h-34l174 208h56z" />
    <glyph glyph-name="adieresis" unicode="&#xe4;" horiz-adv-x="614" 
d="M170 38c37 0 76 33 125 101c69 93 119 213 136 304c-9 31 -41 55 -81 55c-130 0 -232 -190 -233 -350c0 -66 13 -110 53 -110zM365 58c0 44 23 144 40 202h-4c-14 -36 -37 -86 -78 -143c-68 -94 -119 -127 -174 -127c-79 0 -111 59 -111 150c0 195 150 393 304 393
c53 0 90 -24 104 -57l65 66h27l-35 -111c-30 -123 -60 -300 -60 -355c0 -19 9 -28 24 -28c24 0 58 32 95 82l23 -16c-40 -77 -90 -124 -150 -124c-44 0 -70 24 -70 68zM258 628c-32 0 -56 23 -56 54c0 33 25 63 60 63c32 0 56 -23 56 -54c0 -33 -25 -63 -60 -63zM458 628
c-32 0 -56 23 -56 54c0 33 25 63 60 63c32 0 56 -23 56 -54c0 -33 -25 -63 -60 -63z" />
    <glyph glyph-name="aring" unicode="&#xe5;" horiz-adv-x="614" 
d="M170 38c37 0 76 33 125 101c69 93 119 213 136 304c-9 31 -41 55 -81 55c-130 0 -232 -190 -233 -350c0 -66 13 -110 53 -110zM365 58c0 44 23 144 40 202h-4c-14 -36 -37 -86 -78 -143c-68 -94 -119 -127 -174 -127c-79 0 -111 59 -111 150c0 195 150 393 304 393
c53 0 90 -24 104 -57l65 66h27l-35 -111c-30 -123 -60 -300 -60 -355c0 -19 9 -28 24 -28c24 0 58 32 95 82l23 -16c-40 -77 -90 -124 -150 -124c-44 0 -70 24 -70 68zM424 707c0 35 -16 60 -54 60c-49 0 -71 -42 -71 -88c0 -35 16 -60 54 -60c49 0 71 42 71 88zM473 710
c0 -75 -52 -130 -126 -130c-61 0 -97 43 -97 96c0 75 52 130 126 130c61 0 97 -43 97 -96z" />
    <glyph glyph-name="ring" unicode="&#x2da;" horiz-adv-x="600" 
d="M363 707c0 35 -16 60 -54 60c-49 0 -71 -42 -71 -88c0 -35 16 -60 54 -60c49 0 71 42 71 88zM412 710c0 -75 -52 -130 -126 -130c-61 0 -97 43 -97 96c0 75 52 130 126 130c61 0 97 -43 97 -96z" />
    <glyph glyph-name="ae" unicode="&#xe6;" horiz-adv-x="781" 
d="M709 153l26 -18c-44 -87 -123 -145 -214 -145c-108 0 -164 61 -172 166c-43 -67 -116 -166 -198 -166c-80 0 -113 57 -113 152c0 205 162 391 303 391c71 0 105 -38 122 -66c44 40 99 66 164 66c70 0 119 -32 119 -97c0 -114 -129 -168 -323 -234v-10
c0 -112 49 -152 110 -152c83 0 132 47 176 113zM173 38c64 0 140 116 177 179c7 82 37 164 87 223c-18 31 -43 58 -88 58c-129 0 -232 -189 -232 -347c0 -73 13 -113 56 -113zM603 490c-98 0 -162 -127 -177 -250c165 61 245 109 245 185c0 38 -22 65 -68 65z" />
    <glyph glyph-name="eth" unicode="&#xf0;" horiz-adv-x="512" 
d="M173 591l-16 34l155 59c-28 38 -63 73 -105 102v5l24 16c51 -30 94 -64 129 -104l89 34l16 -33l-81 -31c60 -83 91 -187 91 -320c0 -182 -100 -363 -264 -363c-119 0 -173 79 -173 191c0 175 106 352 265 352c37 0 75 -16 98 -44c-9 43 -30 104 -68 164zM221 33
c107 0 176 140 176 292c0 102 -34 165 -106 165c-107 0 -176 -140 -176 -292c0 -102 34 -165 106 -165z" />
    <glyph glyph-name="divide" unicode="&#xf7;" 
d="M609 260h-540l7 51h540zM313 507c0 31 26 56 58 56s59 -25 59 -56c0 -30 -27 -56 -59 -56s-58 26 -58 56zM257 64c0 30 26 56 58 56s59 -26 59 -56c0 -31 -27 -56 -59 -56s-58 25 -58 56z" />
    <glyph glyph-name="oslash" unicode="&#xf8;" horiz-adv-x="512" 
d="M208 -10c-48 0 -85 14 -111 38l-52 -63l-31 24l57 71c-19 32 -28 75 -28 121c0 166 100 352 270 352c48 0 85 -14 112 -39l49 61l33 -25l-56 -68c19 -33 28 -74 28 -120c0 -166 -101 -352 -271 -352zM120 198c0 -26 2 -50 7 -70l253 311c-18 33 -45 51 -84 51
c-107 0 -176 -140 -176 -292zM226 33c107 0 176 140 176 292c0 25 -2 48 -7 69l-253 -310c17 -33 45 -51 84 -51z" />
    <glyph glyph-name="thorn" unicode="&#xfe;" horiz-adv-x="588" 
d="M138 225h5c60 137 165 308 302 308c77 0 105 -63 105 -134c0 -204 -137 -409 -319 -409c-54 0 -92 14 -118 37c-17 -97 -29 -160 -29 -186c0 -43 34 -47 79 -53l-5 -28h-240l5 28c49 3 80 11 88 57l157 871l-77 29l1 16l146 49h21c-59 -329 -90 -490 -121 -585zM229 28
c159 0 239 200 239 360c0 58 -11 92 -53 92c-106 0 -267 -250 -295 -406c21 -30 67 -46 109 -46z" />
    <glyph glyph-name=".null" horiz-adv-x="0" 
 />
    <glyph glyph-name="CR" horiz-adv-x="200" 
 />
    <glyph glyph-name="J.hist" horiz-adv-x="547" 
d="M513 790c21 0 35 -13 35 -36c0 -56 -40 -90 -85 -101l-28 -218h82l-5 -42h-82l-45 -359c-21 -163 -126 -260 -274 -260c-87 0 -124 43 -124 77c0 28 18 52 52 52c22 -37 62 -72 122 -72c83 0 130 47 143 160l35 314c3 28 6 58 10 88h-143l5 42h145c11 77 27 155 47 218
c-86 3 -160 83 -219 83c-30 0 -44 -17 -51 -36l68 -31l-4 -15c-8 -32 -26 -43 -53 -43c-30 0 -50 25 -50 55c0 65 45 124 136 124c78 0 130 -79 185 -105c25 63 57 105 98 105z" />
    <glyph glyph-name="N.hist" horiz-adv-x="936" 
d="M711 166l57 483c2 15 3 31 3 36c0 53 -44 59 -113 62l4 33h297l-4 -33c-74 -3 -124 -13 -133 -83l-67 -552l63 -93l-2 -19h-84l-449 642l-62 -511c-2 -15 -3 -31 -3 -36c0 -53 44 -59 113 -62l-4 -33h-297l4 33c74 3 125 13 133 83l69 564c-42 57 -56 67 -115 67l4 33
h162z" />
    <glyph glyph-name="P.hist" horiz-adv-x="724" 
d="M126 780h323c208 0 285 -83 285 -206c0 -142 -107 -239 -261 -239c-72 0 -107 13 -132 26l2 19h78c130 0 221 52 221 186c0 110 -65 170 -197 170h-121l-71 -576c-3 -27 -4 -44 -4 -59c0 -38 24 -62 127 -67l-4 -34h-342l4 33c74 3 125 13 133 83l65 533c3 21 3 31 3 36
c0 53 -44 59 -113 62z" />
    <glyph glyph-name="Q.hist" horiz-adv-x="809" 
d="M375 -10c-31 -27 -109 -71 -138 -83c79 0 169 -63 277 -63c86 0 146 17 223 74l16 -28c-82 -91 -160 -125 -253 -125c-126 0 -210 107 -291 107c-31 0 -57 -5 -81 -14l-12 36c70 20 158 61 207 101c-152 25 -252 145 -252 335c0 237 150 460 399 460
c186 0 314 -126 314 -340c0 -237 -150 -460 -409 -460zM395 36c197 0 298 200 298 402c0 181 -89 306 -233 306c-197 0 -298 -200 -298 -402c0 -181 89 -306 233 -306z" />
    <glyph glyph-name="p.hist" horiz-adv-x="604" 
d="M178 -1c-15 -81 -29 -136 -29 -158c0 -43 34 -47 79 -53l-5 -28h-237l4 28c49 3 80 11 88 57l109 580c-49 -36 -92 -80 -144 -149l-27 23c61 83 115 137 180 178l23 131l72 11l-20 -106c26 13 70 20 107 20c124 0 188 -69 188 -182c0 -213 -178 -355 -359 -355
c-9 0 -19 1 -29 3zM262 465l-79 -430c5 -1 15 -2 24 -2c158 0 281 103 281 310c0 80 -47 140 -136 140c-33 0 -61 -7 -90 -18z" />
    <glyph glyph-name="v.hist" horiz-adv-x="625" 
d="M493 533c61 0 94 -46 94 -122c0 -165 -120 -421 -317 -421c-84 0 -129 54 -129 132c0 95 62 227 142 333h-140c-64 0 -89 -29 -90 -68h75v-44c-9 -20 -27 -30 -51 -30c-37 0 -57 29 -57 70c0 76 63 140 184 140h147c-83 -165 -133 -265 -133 -378c0 -69 31 -106 93 -106
c124 0 212 196 212 321c0 76 -38 115 -100 115v26c13 18 39 32 70 32z" />
    <glyph glyph-name="w.hist" horiz-adv-x="869" 
d="M779 349c0 78 -42 126 -108 126v26c12 18 38 32 68 32c59 0 92 -46 92 -122c0 -165 -109 -421 -262 -421c-77 0 -112 86 -112 183c-54 -110 -135 -183 -211 -183c-75 0 -112 52 -112 122c0 107 79 244 150 343h-141c-65 0 -90 -29 -91 -68h75v-44c-9 -20 -28 -30 -51 -30
c-37 0 -56 29 -56 70c0 76 60 140 186 140h143c-98 -184 -139 -288 -139 -400c0 -46 18 -80 57 -80c77 0 139 93 186 198c2 39 11 126 20 175c11 60 35 117 69 117c22 0 24 -26 24 -44c0 -69 -42 -184 -82 -269c0 -91 38 -159 103 -159c104 0 192 158 192 288z" />
    <glyph glyph-name="z.hist" horiz-adv-x="546" 
d="M146 120c90 0 153 -79 236 -79c27 0 47 13 47 35l-51 39c0 34 24 52 47 52c29 0 49 -19 49 -52c0 -65 -50 -125 -129 -125c-107 0 -173 75 -258 75c-16 0 -29 -3 -36 -9v-55c-4 -7 -13 -11 -20 -11c-22 0 -29 19 -29 42c0 44 26 84 98 137l327 240c-82 3 -169 56 -247 56
c-29 0 -50 -15 -60 -43l71 -30l-5 -18c-7 -28 -24 -37 -48 -37c-33 0 -53 26 -53 67c0 68 55 129 124 129c86 0 141 -54 259 -66v55c4 7 12 11 19 11c21 0 30 -19 30 -42c0 -44 -27 -80 -98 -133l-339 -249c20 6 43 11 66 11z" />
    <glyph glyph-name="x.superior" horiz-adv-x="414" 
d="M239 437l-12 54c-45 -94 -89 -146 -142 -146c-29 0 -54 15 -54 49c0 22 14 34 27 41h19c4 -32 17 -42 35 -42c28 0 65 54 105 139l-14 70c-13 66 -22 79 -41 79s-39 -25 -60 -55l-21 14c40 73 79 88 113 88c40 0 53 -27 65 -94l7 -32c34 71 73 126 128 126
c31 0 55 -15 55 -49c0 -21 -16 -34 -28 -42h-19c-5 32 -17 41 -35 41c-27 0 -57 -45 -92 -118l22 -102c12 -57 19 -69 38 -69c18 0 37 18 63 53l19 -16c-34 -53 -68 -81 -110 -81c-41 0 -56 25 -68 92z" />
    <glyph glyph-name="dollar.OP" horiz-adv-x="527" 
d="M131 -105l30 103c-60 11 -108 36 -138 66l12 148h29c12 -96 53 -147 111 -167l73 250c-1 0 -2 0 -3 1c-96 42 -153 87 -153 173c0 100 78 162 200 162c18 0 36 -1 53 -4l28 96h43l-31 -104c44 -11 81 -30 107 -52l-16 -135h-29c-6 68 -30 114 -76 137l-65 -223
c87 -39 153 -87 153 -178c0 -114 -91 -178 -221 -178c-12 0 -24 1 -35 2l-28 -97h-44zM386 152c0 58 -23 88 -100 125l-70 -241c8 -1 17 -1 26 -1c84 0 144 39 144 117zM162 480c0 -57 33 -85 105 -118l65 220c-14 2 -28 4 -44 4c-80 0 -126 -42 -126 -106z" />
    <glyph glyph-name="yen.OP" horiz-adv-x="596" 
d="M57 301l5 41h152l-98 223c-8 19 -26 22 -51 24l4 31h231l-4 -31c-59 -2 -90 -6 -90 -39c0 -10 7 -27 16 -49l84 -204l158 219c13 18 21 30 21 42c0 24 -23 28 -79 31l4 31h206l-4 -31c-32 -2 -46 -9 -62 -31l-160 -216h153l-5 -41h-179l-38 -52l-4 -31h211l-5 -41h-211
l-4 -38c-3 -27 -5 -47 -5 -59c0 -35 28 -48 91 -49l-4 -31h-263l4 31c64 0 98 12 104 60l11 86h-204l5 41h204l4 31l-23 52h-175z" />
    <glyph glyph-name="cent.OP" horiz-adv-x="534" 
d="M153 -105l30 102c-94 23 -133 105 -133 201c0 182 103 353 299 368l36 121h43l-35 -121c84 -5 121 -51 121 -93c0 -28 -19 -47 -37 -56h-39c-3 45 -23 81 -61 95l-137 -469c7 -1 14 -1 22 -1c75 0 140 53 186 120l31 -19c-43 -78 -126 -153 -237 -153c-6 0 -12 0 -17 1
l-28 -96h-44zM134 214c0 -83 20 -136 66 -159l135 463c-138 -4 -201 -162 -201 -304z" />
    <glyph glyph-name="Euro.OP" horiz-adv-x="693" 
d="M51 351l6 43h98c40 129 141 236 298 236c83 0 150 -24 200 -62l-17 -137h-29c-21 110 -64 152 -154 152c-124 0 -193 -76 -220 -189h272l-14 -43h-266c-4 -25 -6 -50 -6 -77h253l-13 -43h-239c9 -126 80 -195 184 -195c94 0 154 44 211 159h30l-40 -151
c-56 -33 -122 -54 -211 -54c-152 0 -246 90 -257 241h-102l6 43h95c0 26 3 51 8 77h-93z" />
    <glyph glyph-name="sterling.OP" horiz-adv-x="687" 
d="M106 304l5 42h122l20 90c28 124 96 194 222 194c91 0 141 -43 141 -94c0 -25 -15 -47 -35 -54h-58c3 10 5 20 5 36c0 41 -21 72 -65 72c-71 0 -109 -74 -135 -169l-20 -75h203l-5 -42h-210l-43 -160c63 -33 122 -88 215 -88c60 0 103 23 103 85c0 25 -7 43 -28 63l18 20
c40 -20 66 -56 66 -100c0 -98 -73 -134 -159 -134c-97 0 -177 57 -232 109c-21 -52 -54 -109 -132 -109c-62 0 -95 37 -95 86c0 60 47 103 116 103c23 0 48 -4 68 -10l30 135h-117zM104 32c33 0 63 26 77 95c-19 6 -38 9 -56 9c-41 0 -65 -25 -65 -60c0 -25 17 -44 44 -44z
" />
    <glyph glyph-name="florin.OP" horiz-adv-x="521" 
d="M75 -106l96 429h-108l5 38h112l12 53c34 150 100 217 214 217c68 0 116 -30 116 -81c0 -24 -10 -46 -29 -56h-59c2 13 4 26 4 43c0 28 -17 49 -52 49c-61 0 -92 -47 -118 -163l-14 -62h148l-6 -38h-151l-96 -429h-74z" />
    <glyph glyph-name="interrobangdown.cap" horiz-adv-x="528" 
d="M258 331c-86 -45 -133 -91 -133 -173c0 -66 47 -124 138 -124c81 0 123 39 123 109c0 20 -2 28 -5 40h75c8 -9 19 -33 19 -56c0 -89 -99 -137 -213 -137c-139 0 -212 72 -212 172c0 107 66 173 167 221c94 45 116 86 116 160v36h25c14 -28 28 -55 28 -98
c0 -50 -25 -83 -63 -111l-6 -161l-5 -46h-86l5 46l38 128zM425 727c0 -35 -28 -64 -63 -64s-64 29 -64 64s29 63 64 63s63 -28 63 -63z" />
    <glyph glyph-name="interrobang.smcp" horiz-adv-x="462" 
d="M430 440c0 -71 -37 -105 -115 -143c-48 -24 -74 -44 -74 -93v-20h-25c-11 15 -23 34 -23 60s11 45 30 61l-1 112l6 46h73l-6 -46l-19 -78l5 3c53 28 77 49 77 103c0 49 -30 87 -95 87c-57 0 -95 -26 -95 -91c0 -12 1 -20 2 -31h-69c-10 13 -17 27 -17 47
c0 63 78 111 179 111c111 0 167 -55 167 -128zM149 53c0 35 28 64 63 64s64 -29 64 -64s-29 -63 -64 -63s-63 28 -63 63z" />
    <glyph glyph-name="interrobangdown.smcp" horiz-adv-x="462" 
d="M32 118c0 71 37 105 115 143c48 24 74 44 74 93v20h25c11 -15 23 -34 23 -60c0 -27 -12 -46 -30 -62l1 -111l-6 -46h-73l6 46l19 77c-2 -1 -4 -1 -5 -2c-53 -28 -77 -49 -77 -103c0 -49 30 -87 95 -87c57 0 95 26 95 91c0 12 -1 20 -2 31h69c10 -13 17 -27 17 -47
c0 -63 -78 -111 -179 -111c-111 0 -167 55 -167 128zM313 505c0 -35 -28 -64 -63 -64s-64 29 -64 64s29 63 64 63s63 -28 63 -63z" />
    <glyph glyph-name="musicnaturalsign" horiz-adv-x="380" 
d="M119 515l193 155v-720h-51v315l-193 -155v720h51v-315zM119 435v-205l142 114v206z" />
    <glyph glyph-name="ballotboxwithx" unicode="&#x2612;" horiz-adv-x="710" 
d="M90 0v530h530v-530h-530zM550 464h-390v-398h390v398zM180 136l130 129l-130 129l46 46l129 -130l129 130l46 -46l-130 -129l130 -129l-46 -46l-129 130l-129 -130z" />
    <glyph glyph-name="numbersign.OP" horiz-adv-x="648" 
d="M606 724l-79 -235h113l-6 -42h-121l-91 -272h116l-6 -42h-124l-81 -241h-45l81 241h-184l-81 -241h-45l81 241h-110l6 42h118l91 272h-113l6 42h121l79 235h45l-79 -235h184l79 235h45zM284 447l-91 -272h184l91 272h-184z" />
    <glyph glyph-name="Dcroat" unicode="&#x110;" horiz-adv-x="858" 
d="M84 375l5 44h115l28 230c3 21 3 31 3 36c0 53 -44 59 -113 62l4 33h345c254 0 362 -152 362 -325c0 -285 -186 -455 -436 -455h-367l4 33c74 3 125 13 133 83l31 259h-114zM350 44h40c200 0 351 136 351 398c0 168 -88 294 -291 294h-126l-39 -317h255l-5 -44h-256
l-26 -218c-3 -27 -4 -44 -4 -59c0 -41 31 -54 101 -54z" />
    <glyph glyph-name="dcroat" unicode="&#x111;" horiz-adv-x="629" 
d="M499 716l-77 29l1 16l148 49h20l-34 -167h97l-8 -38h-96c-41 -213 -93 -490 -93 -529c0 -19 9 -28 24 -28c25 0 59 32 95 82l23 -16c-39 -77 -90 -124 -149 -124c-44 0 -70 24 -70 68s24 143 40 201h-4c-14 -36 -40 -85 -81 -142c-68 -95 -122 -127 -178 -127
c-81 0 -119 59 -119 150c0 195 154 393 312 393c44 0 87 -18 108 -48c7 36 16 79 23 120h-186l8 38h185zM179 38c36 0 76 32 127 99c71 94 126 213 143 304c-16 36 -51 57 -92 57c-132 0 -237 -190 -238 -350c0 -66 19 -110 60 -110z" />
    <glyph glyph-name="Hbar" unicode="&#x126;" horiz-adv-x="959" 
d="M656 780h326l-4 -33c-74 -3 -125 -13 -133 -83l-8 -61h122l-6 -45h-121l-52 -427c-3 -21 -3 -31 -3 -36c0 -53 44 -59 113 -62l-4 -33h-326l4 33c74 3 125 13 133 83l31 258h-449l-29 -243c-3 -21 -3 -31 -3 -36c0 -53 44 -59 113 -62l-4 -33h-326l4 33
c74 3 125 13 133 83l54 442h-117l5 45h117l6 46c3 21 3 31 3 36c0 53 -44 59 -113 62l4 33h326l-4 -33c-74 -3 -125 -13 -133 -83l-8 -61h449l6 46c3 21 3 31 3 36c0 53 -44 59 -113 62zM285 419h449l17 139h-449z" />
    <glyph glyph-name="hbar" unicode="&#x127;" horiz-adv-x="631" 
d="M69 605l8 38h92l10 73l-77 29l1 16l146 49h20l-28 -167h187l-8 -38h-186c-33 -189 -64 -347 -95 -449h4c64 158 188 377 320 377c44 0 64 -25 64 -73c0 -104 -75 -310 -75 -384c0 -19 10 -28 25 -28c24 0 58 32 94 82l24 -16c-40 -77 -90 -124 -150 -124
c-44 0 -70 24 -70 68c0 68 79 304 79 388c0 20 -5 34 -23 34c-81 0 -241 -242 -306 -480h-70c37 194 83 439 109 605h-95z" />
    <glyph glyph-name="dotlessi" unicode="&#x131;" horiz-adv-x="366" 
d="M253 469c0 -87 -66 -307 -66 -393c0 -19 10 -28 25 -28c24 0 58 32 94 82l24 -16c-40 -77 -90 -124 -150 -124c-44 0 -69 24 -69 68c0 87 66 307 66 393c0 14 -5 21 -19 21c-36 0 -79 -45 -108 -91l-28 15c51 102 116 137 164 137c45 0 67 -26 67 -64z" />
    <glyph glyph-name="IJ" unicode="&#x132;" horiz-adv-x="924" 
d="M126 780h326l-4 -33c-74 -3 -125 -13 -133 -83l-65 -533c-3 -21 -3 -31 -3 -36c0 -53 44 -59 113 -62l-4 -33h-326l4 33c74 3 125 13 133 83l65 533c3 21 3 31 3 36c0 53 -44 59 -113 62zM714 199l54 450c2 21 2 31 2 36c0 53 -44 59 -113 62l4 33h326l-4 -33
c-74 -3 -125 -13 -133 -83l-54 -448c-18 -149 -85 -226 -222 -226c-130 0 -188 58 -188 128c0 39 19 62 44 74h65c-7 -17 -14 -35 -14 -63c0 -54 26 -100 93 -100c81 0 124 37 140 170z" />
    <glyph glyph-name="ij" unicode="&#x133;" horiz-adv-x="621" 
d="M253 469c0 -87 -66 -307 -66 -393c0 -19 10 -28 25 -28c24 0 58 32 94 82l24 -16c-40 -77 -90 -124 -150 -124c-44 0 -69 24 -69 68c0 87 66 307 66 393c0 14 -5 21 -19 21c-36 0 -79 -45 -108 -91l-28 15c51 102 116 137 164 137c45 0 67 -26 67 -64zM231 635
c-32 0 -56 23 -56 54c0 33 25 63 60 63c32 0 56 -23 56 -54c0 -33 -25 -63 -60 -63zM448 472c-36 0 -78 -45 -107 -91l-28 15c51 102 116 137 164 137c45 0 67 -26 67 -64c0 -21 -1 -38 -5 -66l-39 -251c-46 -298 -102 -402 -214 -402c-70 0 -105 35 -105 79
c0 28 17 46 37 54h33c0 -61 11 -95 47 -95c49 0 78 55 108 247l55 351c4 25 6 49 6 65c0 14 -5 21 -19 21zM525 635c-32 0 -56 23 -56 54c0 33 25 63 60 63c32 0 56 -23 56 -54c0 -33 -25 -63 -60 -63z" />
    <glyph glyph-name="kgreenlandic" unicode="&#x138;" horiz-adv-x="641" 
d="M235 329l-17 -94c167 36 265 96 265 188c0 38 -18 57 -51 57c-53 0 -109 -43 -197 -151zM243 379c72 111 152 154 222 154c67 0 102 -36 102 -92c0 -82 -74 -147 -179 -195l60 -141c20 -48 29 -59 53 -59c26 0 63 25 100 82l25 -16c-43 -76 -96 -122 -155 -122
c-43 0 -64 29 -85 83l-61 154c-36 -10 -76 -20 -113 -28l-35 -199h-70l74 421c2 12 3 25 3 30c0 14 -5 21 -19 21c-36 0 -79 -45 -108 -91l-28 15c51 102 116 137 164 137c45 0 62 -26 62 -64c0 -13 -3 -36 -12 -90z" />
    <glyph glyph-name="Lslash" unicode="&#x141;" horiz-adv-x="722" 
d="M315 664l-32 -256l214 98l-6 -50l-214 -99l-24 -200c-3 -27 -4 -44 -4 -59c0 -41 33 -54 93 -54h127c93 0 134 51 209 161h24l-62 -205h-610l4 33c74 3 125 13 133 83l25 204l-126 -57l6 50l126 58l34 278c3 21 3 31 3 36c0 53 -44 59 -113 62l4 33h326l-4 -33
c-74 -3 -125 -13 -133 -83z" />
    <glyph glyph-name="lslash" unicode="&#x142;" horiz-adv-x="326" 
d="M70 63c0 40 23 168 48 301l-75 -48l10 52l75 48c25 129 50 254 54 300l-77 29l1 16l140 49h20c-7 -81 -32 -216 -57 -349l105 68l-9 -51l-106 -68c-28 -150 -55 -289 -55 -334c0 -19 9 -28 24 -28c25 0 59 32 95 82l23 -16c-39 -77 -90 -124 -149 -124
c-44 0 -67 24 -67 73z" />
    <glyph glyph-name="Eng" unicode="&#x14a;" horiz-adv-x="924" 
d="M683 -62l12 82l-412 616l-62 -505c-2 -15 -3 -31 -3 -36c0 -53 44 -59 113 -62l-4 -33h-297l4 33c74 3 125 13 133 83l69 564c-42 57 -56 67 -115 67l4 33h162l421 -634l60 503c2 15 3 31 3 36c0 53 -44 59 -113 62l4 33h297l-4 -33c-74 -3 -124 -13 -133 -83l-89 -727
c-14 -116 -64 -187 -178 -187c-118 0 -151 62 -151 108c0 32 16 55 36 65h52c-5 -10 -8 -24 -8 -44c0 -51 23 -91 74 -91c77 0 109 42 125 150z" />
    <glyph glyph-name="eng" unicode="&#x14b;" horiz-adv-x="611" 
d="M432 50l50 255c15 74 23 115 23 141c0 20 -5 34 -23 34c-81 0 -241 -242 -306 -480h-70l74 414c2 12 4 30 4 37c0 14 -5 21 -19 21c-36 0 -79 -45 -108 -91l-28 15c51 102 116 137 164 137c45 0 68 -26 68 -64c0 -11 -3 -32 -14 -78l-57 -235h4c64 158 188 377 320 377
c44 0 64 -25 64 -73c0 -51 -16 -129 -23 -163l-46 -238c-43 -221 -111 -309 -210 -309c-70 0 -105 35 -105 79c0 28 17 46 37 54h33c0 -61 11 -95 47 -95c49 0 84 71 121 262z" />
    <glyph glyph-name="Tbar" unicode="&#x166;" horiz-adv-x="744" 
d="M400 738h-73c-134 0 -154 -36 -227 -155h-25l41 197h656l-7 -197h-21c-43 120 -53 155 -168 155h-95l-42 -341h173l-5 -47h-174l-26 -219c-3 -21 -3 -31 -3 -36c0 -53 44 -59 113 -62l-4 -33h-326l4 33c74 3 124 13 133 83l28 234h-169l6 47h169z" />
    <glyph glyph-name="dotlessj" unicode="&#x237;" horiz-adv-x="311" 
d="M50 381l-28 15c51 102 116 137 164 137c45 0 67 -26 67 -64c0 -21 -1 -38 -5 -66l-39 -251c-46 -298 -102 -402 -214 -402c-70 0 -105 35 -105 79c0 28 17 46 37 54h33c0 -61 11 -95 47 -95c49 0 78 55 108 247l55 351c4 25 6 49 6 65c0 14 -5 21 -19 21
c-36 0 -78 -45 -107 -91z" />
    <glyph glyph-name="caron" unicode="&#x2c7;" horiz-adv-x="600" 
d="M246 592l-122 208h34l121 -137l163 137h34l-174 -208h-56z" />
    <glyph glyph-name="breve" unicode="&#x2d8;" horiz-adv-x="600" 
d="M277 601c-100 0 -153 55 -153 154c0 14 1 29 3 45h37c0 -109 53 -142 120 -142s131 33 155 142h37c-16 -126 -75 -199 -199 -199z" />
    <glyph glyph-name="dotaccent" unicode="&#x2d9;" horiz-adv-x="600" 
d="M297 628c-32 0 -56 23 -56 54c0 33 25 63 60 63c32 0 56 -23 56 -54c0 -33 -25 -63 -60 -63z" />
    <glyph glyph-name="ogonek" unicode="&#x2db;" horiz-adv-x="600" 
d="M393 27l13 -27c-69 -21 -150 -60 -150 -137c0 -43 28 -66 76 -66c27 0 46 6 68 15l6 -25c-28 -26 -62 -37 -104 -37c-54 0 -108 31 -108 95c0 98 87 144 199 182z" />
    <glyph glyph-name="hungarumlaut" unicode="&#x2dd;" horiz-adv-x="600" 
d="M225 800h90l-145 -208h-38zM379 800h90l-145 -208h-38z" />
    <glyph glyph-name="figuredash" unicode="&#x2012;" 
d="M662 309h-600l8 58h600z" />
    <glyph glyph-name="uni2015" unicode="&#x2015;" horiz-adv-x="1400" 
d="M1362 309h-1300l8 58h1300z" />
    <glyph glyph-name="doublebar" unicode="&#x2016;" horiz-adv-x="379" 
d="M228 830l-116 -951h-52l116 951h52zM350 830l-116 -951h-52l116 951h52z" />
    <glyph glyph-name="tripleprime" unicode="&#x2034;" horiz-adv-x="485" 
d="M156 524h-43l5 256h95zM308 524h-43l5 256h95zM460 524h-43l5 256h95z" />
    <glyph glyph-name="uni2070" unicode="&#x2070;" horiz-adv-x="441" 
d="M232 323c108 0 139 181 139 268c0 91 -26 162 -90 162c-109 0 -140 -184 -140 -268c0 -92 26 -162 91 -162zM229 290c-106 0 -163 91 -163 203c0 126 64 293 218 293c106 0 162 -91 162 -203c0 -127 -64 -293 -217 -293z" />
    <glyph glyph-name="uni2074" unicode="&#x2074;" horiz-adv-x="429" 
d="M94 457h188l27 225zM329 296h-67l15 126h-239l2 26l314 332h34l-39 -323h79l-5 -35h-79z" />
    <glyph glyph-name="uni2075" unicode="&#x2075;" horiz-adv-x="389" 
d="M372 449c0 -97 -71 -159 -170 -159c-112 0 -153 58 -153 105c0 28 17 47 37 55h39c-4 -15 -6 -28 -6 -43c0 -45 24 -87 85 -87c62 0 103 42 103 107c0 104 -90 131 -199 131l53 222h142c35 0 51 4 68 33h31l-41 -96h-183l-23 -106c113 0 217 -49 217 -162z" />
    <glyph glyph-name="uni2076" unicode="&#x2076;" horiz-adv-x="401" 
d="M400 762c-113 -30 -215 -98 -252 -205c27 26 64 44 111 44c90 0 140 -61 140 -140c0 -105 -77 -171 -172 -171c-111 0 -167 84 -167 179c0 145 120 275 332 317zM226 563c-33 0 -63 -14 -87 -35c-4 -20 -6 -40 -6 -62c0 -76 27 -144 95 -144s100 53 100 129
c0 69 -37 112 -102 112z" />
    <glyph glyph-name="uni2077" unicode="&#x2077;" horiz-adv-x="379" 
d="M354 715h-177c-41 0 -60 -24 -83 -59h-25l50 124h298l-2 -18l-253 -466h-70z" />
    <glyph glyph-name="uni2078" unicode="&#x2078;" horiz-adv-x="401" 
d="M404 673c0 -65 -56 -101 -113 -116l19 -12c49 -29 79 -63 79 -118c0 -70 -57 -137 -166 -137c-100 0 -165 57 -165 129c0 69 55 111 124 129l-7 4c-34 19 -62 57 -62 107c0 68 53 127 146 127c90 0 145 -47 145 -113zM264 499l-59 35c-62 -29 -81 -68 -81 -114
c0 -58 39 -99 100 -99c57 0 99 33 99 95c0 35 -23 62 -59 83zM227 596l44 -26c49 25 70 55 70 103c0 45 -28 82 -83 82c-49 0 -81 -31 -81 -79c0 -35 18 -61 50 -80z" />
    <glyph glyph-name="uni2079" unicode="&#x2079;" horiz-adv-x="401" 
d="M65 313c113 31 215 97 252 204c-28 -26 -65 -43 -111 -43c-89 0 -140 61 -140 140c0 106 78 171 173 171c112 0 167 -83 167 -179c0 -145 -121 -275 -333 -317zM240 512c31 0 61 13 85 34c5 20 7 41 7 63c0 77 -25 144 -94 144c-68 0 -100 -53 -100 -128
c0 -70 37 -113 102 -113z" />
    <glyph glyph-name="uni207A" unicode="&#x207a;" horiz-adv-x="438" 
d="M205 351l18 151h-147l5 39h147l18 149h44l-18 -149h147l-5 -39h-147l-18 -151h-44z" />
    <glyph glyph-name="uni207B" unicode="&#x207b;" horiz-adv-x="438" 
d="M411 502h-338l5 39h338z" />
    <glyph glyph-name="uni207C" unicode="&#x207c;" horiz-adv-x="438" 
d="M407 457h-338l5 40h338zM418 546h-338l4 39h338z" />
    <glyph glyph-name="uni207D" unicode="&#x207d;" horiz-adv-x="245" 
d="M82 481c0 136 61 255 185 346l21 -31c-91 -82 -161 -169 -161 -315c0 -98 43 -167 95 -227l-29 -25c-72 70 -111 150 -111 252z" />
    <glyph glyph-name="uni207E" unicode="&#x207e;" horiz-adv-x="245" 
d="M227 575c0 -136 -62 -255 -185 -346l-21 31c91 82 161 169 161 315c0 98 -43 167 -95 227l28 25c72 -70 112 -150 112 -252z" />
    <glyph glyph-name="n.superior" unicode="&#x207f;" horiz-adv-x="491" 
d="M157 665c0 9 -4 16 -15 16c-21 0 -45 -29 -66 -59l-22 13c37 71 82 93 121 93c37 0 51 -20 51 -49c0 -7 -2 -24 -10 -54l-40 -163h3c54 123 133 266 226 266c35 0 50 -19 50 -55c0 -68 -52 -218 -52 -264c0 -13 6 -19 16 -19c17 0 37 19 61 52l21 -13
c-32 -53 -69 -84 -112 -84c-36 0 -55 18 -55 50c0 46 52 211 52 266c0 11 -2 22 -15 22c-48 0 -148 -148 -203 -331h-64l50 288c2 9 3 21 3 25z" />
    <glyph glyph-name="uni2080" unicode="&#x2080;" horiz-adv-x="441" 
d="M202 27c108 0 139 181 139 268c0 91 -26 162 -90 162c-109 0 -140 -184 -140 -268c0 -92 26 -162 91 -162zM199 -6c-106 0 -163 91 -163 203c0 126 64 293 218 293c106 0 162 -91 162 -203c0 -127 -64 -293 -217 -293z" />
    <glyph glyph-name="uni2081" unicode="&#x2081;" horiz-adv-x="339" 
d="M240 490h17l-50 -403c-1 -7 -2 -16 -2 -24c0 -30 41 -32 105 -36l-3 -27h-296l2 27c75 4 122 7 127 49l38 313h-121l2 23l37 6c69 10 104 25 144 72z" />
    <glyph glyph-name="uni2083" unicode="&#x2083;" horiz-adv-x="392" 
d="M132 255c75 25 145 61 145 124c0 38 -25 62 -69 62c-50 0 -86 -28 -119 -69l-17 16c32 54 83 102 162 102c75 0 116 -40 116 -99c0 -69 -68 -102 -118 -117c74 -9 118 -60 118 -127c0 -104 -93 -153 -179 -153c-109 0 -152 57 -152 103c0 29 17 49 37 57h38
c-3 -15 -5 -28 -5 -43c0 -45 26 -88 83 -88c67 0 105 42 105 116c0 58 -37 101 -95 101c-15 0 -26 -2 -44 -6z" />
    <glyph glyph-name="uni2085" unicode="&#x2085;" horiz-adv-x="389" 
d="M342 153c0 -97 -71 -159 -170 -159c-112 0 -153 58 -153 105c0 28 17 47 37 55h39c-4 -15 -6 -28 -6 -43c0 -45 24 -87 85 -87c62 0 103 42 103 107c0 104 -90 131 -199 131l53 222h142c35 0 51 4 68 33h31l-41 -96h-183l-23 -106c113 0 217 -49 217 -162z" />
    <glyph glyph-name="uni2086" unicode="&#x2086;" horiz-adv-x="401" 
d="M370 466c-113 -30 -215 -98 -252 -205c27 26 64 44 111 44c90 0 140 -61 140 -140c0 -105 -77 -171 -172 -171c-111 0 -167 84 -167 179c0 145 120 275 332 317zM196 267c-33 0 -63 -14 -87 -35c-4 -20 -6 -40 -6 -62c0 -76 27 -144 95 -144s100 53 100 129
c0 69 -37 112 -102 112z" />
    <glyph glyph-name="uni2087" unicode="&#x2087;" horiz-adv-x="379" 
d="M324 419h-177c-41 0 -60 -24 -83 -59h-25l50 124h298l-2 -18l-253 -466h-70z" />
    <glyph glyph-name="uni2088" unicode="&#x2088;" horiz-adv-x="401" 
d="M374 377c0 -65 -56 -101 -113 -116l19 -12c49 -29 79 -63 79 -118c0 -70 -57 -137 -166 -137c-100 0 -165 57 -165 129c0 69 55 111 124 129l-7 4c-34 19 -62 57 -62 107c0 68 53 127 146 127c90 0 145 -47 145 -113zM234 203l-59 35c-62 -29 -81 -68 -81 -114
c0 -58 39 -99 100 -99c57 0 99 33 99 95c0 35 -23 62 -59 83zM197 300l44 -26c49 25 70 55 70 103c0 45 -28 82 -83 82c-49 0 -81 -31 -81 -79c0 -35 18 -61 50 -80z" />
    <glyph glyph-name="uni2089" unicode="&#x2089;" horiz-adv-x="401" 
d="M35 17c113 31 215 97 252 204c-28 -26 -65 -43 -111 -43c-89 0 -140 61 -140 140c0 106 78 171 173 171c112 0 167 -83 167 -179c0 -145 -121 -275 -333 -317zM210 216c31 0 61 13 85 34c5 20 7 41 7 63c0 77 -25 144 -94 144c-68 0 -100 -53 -100 -128
c0 -70 37 -113 102 -113z" />
    <glyph glyph-name="uni208A" unicode="&#x208a;" horiz-adv-x="438" 
d="M175 55l18 151h-147l5 39h147l18 149h44l-18 -149h147l-5 -39h-147l-18 -151h-44z" />
    <glyph glyph-name="uni208B" unicode="&#x208b;" horiz-adv-x="438" 
d="M381 206h-338l5 39h338z" />
    <glyph glyph-name="uni208C" unicode="&#x208c;" horiz-adv-x="438" 
d="M377 161h-338l5 40h338zM388 250h-338l4 39h338z" />
    <glyph glyph-name="uni208D" unicode="&#x208d;" horiz-adv-x="245" 
d="M52 185c0 136 61 255 185 346l21 -31c-91 -82 -161 -169 -161 -315c0 -98 43 -167 95 -227l-29 -25c-72 70 -111 150 -111 252z" />
    <glyph glyph-name="uni208E" unicode="&#x208e;" horiz-adv-x="245" 
d="M197 279c0 -136 -62 -255 -185 -346l-21 31c91 82 161 169 161 315c0 98 -43 167 -95 227l28 25c72 -70 112 -150 112 -252z" />
    <glyph glyph-name="afii61289" unicode="&#x2113;" horiz-adv-x="369" 
d="M223 -10c-92 0 -140 38 -140 121v110c-6 -5 -37 -27 -56 -40v63c16 12 38 26 54 40v270c0 170 57 221 132 221c70 0 110 -49 110 -141c0 -150 -96 -297 -176 -371v-128c0 -63 19 -84 77 -84c25 0 47 5 62 11l8 -61c-16 -6 -39 -11 -71 -11zM147 564v-219
c62 68 119 185 119 293c0 46 -16 79 -52 79c-39 0 -67 -37 -67 -153z" />
    <glyph glyph-name="afii61352" unicode="&#x2116;" horiz-adv-x="1418" 
d="M903 0l7 52h374l-7 -52h-374zM184 164l62 516c-42 57 -56 67 -115 67l4 33h163l401 -631l56 471c13 107 57 170 155 170c74 0 99 -33 99 -74c0 -27 -18 -47 -36 -58h-64c3 14 6 27 6 44c0 23 -8 41 -32 41c-38 0 -66 -35 -77 -127l-75 -616h-32l-406 636l-58 -476
c-13 -107 -57 -170 -155 -170c-74 0 -99 33 -99 74c0 27 18 47 36 58h64c-3 -14 -6 -27 -6 -44c0 -23 8 -41 32 -41c38 0 66 35 77 127zM1109 198c86 0 143 130 143 252c0 84 -27 136 -83 136c-86 0 -143 -130 -143 -252c0 -84 27 -136 83 -136zM1097 162
c-104 0 -147 73 -147 166c0 143 85 294 231 294c104 0 147 -73 147 -166c0 -143 -85 -294 -231 -294z" />
    <glyph glyph-name="published" unicode="&#x2117;" horiz-adv-x="890" 
d="M64 390c0 221 179 400 400 400s400 -179 400 -400s-179 -400 -400 -400s-400 179 -400 400zM94 390c0 -204 166 -370 370 -370s370 166 370 370s-166 370 -370 370s-370 -166 -370 -370zM501 349h-87l-8 -76c-2 -17 -4 -37 -4 -48c0 -29 22 -38 94 -41l-5 -25h-254l2 25
c48 0 86 11 91 53l34 280c2 15 4 36 4 46c0 30 -37 41 -78 41l4 25h210c124 0 183 -45 183 -126c0 -91 -70 -154 -186 -154zM445 596l-26 -214h61c85 0 129 36 129 119c0 60 -32 95 -111 95h-53z" />
    <glyph glyph-name="servicemark" unicode="&#x2120;" horiz-adv-x="862" 
d="M221 445c-49 0 -87 16 -110 38l6 83h18c13 -63 38 -94 89 -94c39 0 69 16 69 53c0 33 -21 50 -75 76c-50 24 -77 50 -77 95c0 57 42 90 104 90c50 0 83 -17 107 -35l-10 -72h-17c-7 47 -29 80 -83 80c-32 0 -55 -19 -55 -52c0 -28 16 -38 57 -59c57 -29 97 -55 97 -108
c0 -63 -57 -95 -120 -95zM614 521l128 234c3 5 4 11 7 25h86l-3 -24c-28 -2 -38 -11 -42 -27l5 -231c0 -16 11 -20 37 -22l-3 -24h-139l3 24c32 2 47 5 47 19c0 42 -2 148 -2 191l-130 -234h-28l-76 247l-37 -168c-4 -17 -6 -28 -6 -34c0 -15 6 -19 41 -21l-3 -24h-118l3 24
c23 1 37 6 41 22l56 231c0 16 -5 25 -36 27l3 24h94c1 -11 3 -20 4 -25z" />
    <glyph glyph-name="ohm" horiz-adv-x="854" 
d="M481 751c-183 0 -261 -173 -261 -346c0 -156 49 -285 123 -355l-7 -50h-307v174h29c42 -105 68 -115 171 -115h72c-87 52 -172 179 -172 346c0 226 132 385 352 385c203 0 292 -144 292 -305c0 -222 -150 -364 -267 -426h71c104 0 131 10 200 115h28l-50 -174h-301l7 50
c125 93 221 260 221 435c0 137 -62 266 -201 266z" />
    <glyph glyph-name="estimated" unicode="&#x212e;" horiz-adv-x="810" 
d="M795 363h-662c7 -166 83 -321 275 -324c175 -2 292 78 307 224h65c-28 -191 -170 -274 -375 -274c-230 0 -390 155 -390 399s160 400 390 400s390 -156 390 -400v-25zM405 738c-191 0 -265 -159 -271 -324h543c-7 165 -82 324 -272 324z" />
    <glyph glyph-name="uni2153" unicode="&#x2153;" horiz-adv-x="969" 
d="M709 255c75 25 145 61 145 124c0 38 -25 62 -69 62c-50 0 -86 -28 -119 -69l-17 16c32 54 83 102 162 102c75 0 116 -40 116 -99c0 -69 -68 -102 -118 -117c74 -9 118 -60 118 -127c0 -104 -93 -153 -179 -153c-109 0 -152 57 -152 103c0 29 17 49 37 57h38
c-3 -15 -5 -28 -5 -43c0 -45 26 -88 83 -88c67 0 105 42 105 116c0 58 -37 101 -95 101c-15 0 -26 -2 -44 -6zM270 786h17l-50 -403c-1 -7 -2 -16 -2 -24c0 -30 41 -32 105 -36l-3 -27h-296l2 27c75 4 122 7 127 49l38 313h-121l2 23l37 6c69 10 104 25 144 72zM178 0
l639 780h56l-639 -780h-56z" />
    <glyph glyph-name="uni2154" unicode="&#x2154;" horiz-adv-x="975" 
d="M715 255c75 25 145 61 145 124c0 38 -25 62 -69 62c-50 0 -86 -28 -119 -69l-17 16c32 54 83 102 162 102c75 0 116 -40 116 -99c0 -69 -68 -102 -118 -117c74 -9 118 -60 118 -127c0 -104 -93 -153 -179 -153c-109 0 -152 57 -152 103c0 29 17 49 37 57h38
c-3 -15 -5 -28 -5 -43c0 -45 26 -88 83 -88c67 0 105 42 105 116c0 58 -37 101 -95 101c-15 0 -26 -2 -44 -6zM120 352h104c62 0 81 6 123 72h22l-39 -128h-311l2 14c236 209 275 249 275 339c0 53 -33 82 -85 82c-59 0 -89 -30 -121 -64l-16 14c34 60 84 105 165 105
c86 0 134 -49 134 -117c0 -119 -106 -181 -253 -317zM184 0l639 780h56l-639 -780h-56z" />
    <glyph glyph-name="uni2155" unicode="&#x2155;" horiz-adv-x="976" 
d="M270 786h17l-50 -403c-1 -7 -2 -16 -2 -24c0 -30 41 -32 105 -36l-3 -27h-296l2 27c75 4 122 7 127 49l38 313h-121l2 23l37 6c69 10 104 25 144 72zM178 0l639 780h56l-639 -780h-56zM929 153c0 -97 -71 -159 -170 -159c-112 0 -153 58 -153 105c0 28 17 47 37 55h39
c-4 -15 -6 -28 -6 -43c0 -45 24 -87 85 -87c62 0 103 42 103 107c0 104 -90 131 -199 131l53 222h142c35 0 51 4 68 33h31l-41 -96h-183l-23 -106c113 0 217 -49 217 -162z" />
    <glyph glyph-name="uni2156" unicode="&#x2156;" horiz-adv-x="982" 
d="M120 352h104c62 0 81 6 123 72h22l-39 -128h-311l2 14c236 209 275 249 275 339c0 53 -33 82 -85 82c-59 0 -89 -30 -121 -64l-16 14c34 60 84 105 165 105c86 0 134 -49 134 -117c0 -119 -106 -181 -253 -317zM184 0l639 780h56l-639 -780h-56zM935 153
c0 -97 -71 -159 -170 -159c-112 0 -153 58 -153 105c0 28 17 47 37 55h39c-4 -15 -6 -28 -6 -43c0 -45 24 -87 85 -87c62 0 103 42 103 107c0 104 -90 131 -199 131l53 222h142c35 0 51 4 68 33h31l-41 -96h-183l-23 -106c113 0 217 -49 217 -162z" />
    <glyph glyph-name="uni2157" unicode="&#x2157;" horiz-adv-x="982" 
d="M162 551c75 25 145 61 145 124c0 38 -25 62 -69 62c-50 0 -86 -28 -119 -69l-17 16c32 54 83 102 162 102c75 0 116 -40 116 -99c0 -69 -68 -102 -118 -117c74 -9 118 -60 118 -127c0 -104 -93 -153 -179 -153c-109 0 -152 57 -152 103c0 29 17 49 37 57h38
c-3 -15 -5 -28 -5 -43c0 -45 26 -88 83 -88c67 0 105 42 105 116c0 58 -37 101 -95 101c-15 0 -26 -2 -44 -6zM185 0l639 780h56l-639 -780h-56zM935 153c0 -97 -71 -159 -170 -159c-112 0 -153 58 -153 105c0 28 17 47 37 55h39c-4 -15 -6 -28 -6 -43c0 -45 24 -87 85 -87
c62 0 103 42 103 107c0 104 -90 131 -199 131l53 222h142c35 0 51 4 68 33h31l-41 -96h-183l-23 -106c113 0 217 -49 217 -162z" />
    <glyph glyph-name="uni2158" unicode="&#x2158;" horiz-adv-x="996" 
d="M94 457h188l27 225zM329 296h-67l15 126h-239l2 26l314 332h34l-39 -323h79l-5 -35h-79zM198 0l639 780h56l-639 -780h-56zM949 153c0 -97 -71 -159 -170 -159c-112 0 -153 58 -153 105c0 28 17 47 37 55h39c-4 -15 -6 -28 -6 -43c0 -45 24 -87 85 -87
c62 0 103 42 103 107c0 104 -90 131 -199 131l53 222h142c35 0 51 4 68 33h31l-41 -96h-183l-23 -106c113 0 217 -49 217 -162z" />
    <glyph glyph-name="uni2159" unicode="&#x2159;" horiz-adv-x="938" 
d="M921 466c-113 -30 -215 -98 -252 -205c27 26 64 44 111 44c90 0 140 -61 140 -140c0 -105 -77 -171 -172 -171c-111 0 -167 84 -167 179c0 145 120 275 332 317zM178 0l639 780h56l-639 -780h-56zM270 786h17l-50 -403c-1 -7 -2 -16 -2 -24c0 -30 41 -32 105 -36l-3 -27
h-296l2 27c75 4 122 7 127 49l38 313h-121l2 23l37 6c69 10 104 25 144 72zM747 267c-33 0 -63 -14 -87 -35c-4 -20 -6 -40 -6 -62c0 -76 27 -144 95 -144s100 53 100 129c0 69 -37 112 -102 112z" />
    <glyph glyph-name="uni215A" unicode="&#x215a;" horiz-adv-x="928" 
d="M911 466c-113 -30 -215 -98 -252 -205c27 26 64 44 111 44c90 0 140 -61 140 -140c0 -105 -77 -171 -172 -171c-111 0 -167 84 -167 179c0 145 120 275 332 317zM372 449c0 -97 -71 -159 -170 -159c-112 0 -153 58 -153 105c0 28 17 47 37 55h39c-4 -15 -6 -28 -6 -43
c0 -45 24 -87 85 -87c62 0 103 42 103 107c0 104 -90 131 -199 131l53 222h142c35 0 51 4 68 33h31l-41 -96h-183l-23 -106c113 0 217 -49 217 -162zM168 0l639 780h56l-639 -780h-56zM737 267c-33 0 -63 -14 -87 -35c-4 -20 -6 -40 -6 -62c0 -76 27 -144 95 -144
s100 53 100 129c0 69 -37 112 -102 112z" />
    <glyph glyph-name="uni215B" unicode="&#x215b;" horiz-adv-x="988" 
d="M961 377c0 -65 -56 -101 -113 -116l19 -12c49 -29 79 -63 79 -118c0 -70 -57 -137 -166 -137c-100 0 -165 57 -165 129c0 69 55 111 124 129l-7 4c-34 19 -62 57 -62 107c0 68 53 127 146 127c90 0 145 -47 145 -113zM821 203l-59 35c-62 -29 -81 -68 -81 -114
c0 -58 39 -99 100 -99c57 0 99 33 99 95c0 35 -23 62 -59 83zM784 300l44 -26c49 25 70 55 70 103c0 45 -28 82 -83 82c-49 0 -81 -31 -81 -79c0 -35 18 -61 50 -80zM270 786h17l-50 -403c-1 -7 -2 -16 -2 -24c0 -30 41 -32 105 -36l-3 -27h-296l2 27c75 4 122 7 127 49
l38 313h-121l2 23l37 6c69 10 104 25 144 72zM178 0l639 780h56l-639 -780h-56z" />
    <glyph glyph-name="uni215C" unicode="&#x215c;" horiz-adv-x="994" 
d="M967 377c0 -65 -56 -101 -113 -116l19 -12c49 -29 79 -63 79 -118c0 -70 -57 -137 -166 -137c-100 0 -165 57 -165 129c0 69 55 111 124 129l-7 4c-34 19 -62 57 -62 107c0 68 53 127 146 127c90 0 145 -47 145 -113zM827 203l-59 35c-62 -29 -81 -68 -81 -114
c0 -58 39 -99 100 -99c57 0 99 33 99 95c0 35 -23 62 -59 83zM790 300l44 -26c49 25 70 55 70 103c0 45 -28 82 -83 82c-49 0 -81 -31 -81 -79c0 -35 18 -61 50 -80zM162 551c75 25 145 61 145 124c0 38 -25 62 -69 62c-50 0 -86 -28 -119 -69l-17 16c32 54 83 102 162 102
c75 0 116 -40 116 -99c0 -69 -68 -102 -118 -117c74 -9 118 -60 118 -127c0 -104 -93 -153 -179 -153c-109 0 -152 57 -152 103c0 29 17 49 37 57h38c-3 -15 -5 -28 -5 -43c0 -45 26 -88 83 -88c67 0 105 42 105 116c0 58 -37 101 -95 101c-15 0 -26 -2 -44 -6zM185 0
l639 780h56l-639 -780h-56z" />
    <glyph glyph-name="uni215D" unicode="&#x215d;" horiz-adv-x="977" 
d="M372 449c0 -97 -71 -159 -170 -159c-112 0 -153 58 -153 105c0 28 17 47 37 55h39c-4 -15 -6 -28 -6 -43c0 -45 24 -87 85 -87c62 0 103 42 103 107c0 104 -90 131 -199 131l53 222h142c35 0 51 4 68 33h31l-41 -96h-183l-23 -106c113 0 217 -49 217 -162zM168 0l639 780
h56l-639 -780h-56zM950 377c0 -65 -56 -101 -113 -116l19 -12c49 -29 79 -63 79 -118c0 -70 -57 -137 -166 -137c-100 0 -165 57 -165 129c0 69 55 111 124 129l-7 4c-34 19 -62 57 -62 107c0 68 53 127 146 127c90 0 145 -47 145 -113zM810 203l-59 35
c-62 -29 -81 -68 -81 -114c0 -58 39 -99 100 -99c57 0 99 33 99 95c0 35 -23 62 -59 83zM773 300l44 -26c49 25 70 55 70 103c0 45 -28 82 -83 82c-49 0 -81 -31 -81 -79c0 -35 18 -61 50 -80z" />
    <glyph glyph-name="uni215E" unicode="&#x215e;" horiz-adv-x="858" 
d="M354 715h-177c-41 0 -60 -24 -83 -59h-25l50 124h298l-2 -18l-253 -466h-70zM831 377c0 -65 -56 -101 -113 -116l19 -12c49 -29 79 -63 79 -118c0 -70 -57 -137 -166 -137c-100 0 -165 57 -165 129c0 69 55 111 124 129l-7 4c-34 19 -62 57 -62 107c0 68 53 127 146 127
c90 0 145 -47 145 -113zM691 203l-59 35c-62 -29 -81 -68 -81 -114c0 -58 39 -99 100 -99c57 0 99 33 99 95c0 35 -23 62 -59 83zM654 300l44 -26c49 25 70 55 70 103c0 45 -28 82 -83 82c-49 0 -81 -31 -81 -79c0 -35 18 -61 50 -80zM48 0l639 780h56l-639 -780h-56z" />
    <glyph glyph-name="uni215F" unicode="&#x215f;" horiz-adv-x="657" 
d="M270 786h17l-50 -403c-1 -7 -2 -16 -2 -24c0 -30 41 -32 105 -36l-3 -27h-296l2 27c75 4 122 7 127 49l38 313h-121l2 23l37 6c69 10 104 25 144 72zM178 0l639 780h56l-639 -780h-56z" />
    <glyph glyph-name="arrowleft" unicode="&#x2190;" horiz-adv-x="860" 
d="M452 101l-411 283v12l411 283v-52l-260 -216h639v-42h-639l260 -216v-52z" />
    <glyph glyph-name="arrowup" unicode="&#x2191;" horiz-adv-x="860" 
d="M141 379l283 411h12l283 -411h-52l-216 270v-649h-42v649l-216 -270h-52z" />
    <glyph glyph-name="arrowright" unicode="&#x2192;" horiz-adv-x="860" 
d="M831 384l-411 -283v52l260 216h-639v42h639l-260 216v52l411 -283v-12z" />
    <glyph glyph-name="arrowdown" unicode="&#x2193;" horiz-adv-x="860" 
d="M424 -10l-283 411h52l216 -270v649h42v-649l216 270h52l-283 -411h-12z" />
    <glyph glyph-name="uni2196" unicode="&#x2196;" horiz-adv-x="860" 
d="M119 290l-90 491l8 9l491 -91l-37 -37l-337 38l453 -458l-30 -30l-451 458l30 -343z" />
    <glyph glyph-name="uni2197" unicode="&#x2197;" horiz-adv-x="860" 
d="M831 781l-90 -491l-37 37l30 343l-451 -458l-30 30l453 458l-337 -38l-37 37l491 91z" />
    <glyph glyph-name="uni2198" unicode="&#x2198;" horiz-adv-x="860" 
d="M741 490l90 -491l-8 -9l-491 91l37 37l337 -38l-453 458l30 30l451 -458l-30 343z" />
    <glyph glyph-name="uni2199" unicode="&#x2199;" horiz-adv-x="860" 
d="M29 -1l90 491l37 -37l-31 -343l452 458l30 -30l-453 -458l337 38l37 -37l-491 -91z" />
    <glyph glyph-name="partialdiff" unicode="&#x2202;" horiz-adv-x="615" 
d="M275 35c120 0 199 131 199 256c0 109 -47 198 -144 198c-120 0 -199 -122 -199 -265c0 -100 47 -189 144 -189zM482 447c-3 174 -99 301 -233 301c-58 0 -91 -11 -124 -31l-12 19c37 31 98 54 169 54c214 0 281 -200 281 -414c0 -222 -116 -386 -291 -386
c-131 0 -220 86 -220 235c0 164 107 308 278 308c64 0 120 -27 152 -86z" />
    <glyph glyph-name="increment" unicode="&#x2206;" horiz-adv-x="815" 
d="M20 0l4 37l437 743h42l262 -743l-4 -37h-741zM667 45l-216 631l-369 -631h585z" />
    <glyph glyph-name="product" unicode="&#x220f;" horiz-adv-x="954" 
d="M769 736h-444l-75 -605c-3 -21 -3 -31 -3 -36c0 -53 44 -59 113 -62l-4 -33h-326l4 33c74 3 125 13 133 83l65 533c3 21 3 31 3 36c0 53 -44 59 -113 62l4 33h851l-4 -33c-74 -3 -125 -13 -133 -83l-65 -533c-3 -21 -3 -31 -3 -36c0 -53 44 -59 113 -62l-4 -33h-326l4 33
c74 3 124 13 133 83z" />
    <glyph glyph-name="summation" unicode="&#x2211;" horiz-adv-x="659" 
d="M560 0h-548l7 63l362 325l-272 321l11 71h534l-19 -178h-20c-29 99 -50 134 -141 134h-275l269 -312l-4 -28l-372 -329h300c104 0 117 10 191 115h25z" />
    <glyph glyph-name="minus" unicode="&#x2212;" 
d="M609 260h-540l7 51h540z" />
    <glyph glyph-name="radical" unicode="&#x221a;" horiz-adv-x="775" 
d="M322 81l480 683h53l-542 -764h-62l-49 470h-109l5 36l181 30z" />
    <glyph glyph-name="infinity" unicode="&#x221e;" horiz-adv-x="871" 
d="M216 433c-72 0 -110 -59 -110 -126c0 -66 46 -101 113 -101s129 36 187 106l-91 79c-40 34 -66 42 -99 42zM507 225l-74 65c-55 -78 -141 -136 -219 -136c-91 0 -170 44 -170 150c0 126 87 195 191 195c61 0 99 -25 145 -65l74 -65c55 78 141 136 219 136
c91 0 170 -44 170 -150c0 -126 -87 -195 -191 -195c-61 0 -99 25 -145 65zM671 226c72 0 110 59 110 126c0 66 -46 101 -113 101s-129 -36 -187 -106l91 -79c40 -34 66 -42 99 -42z" />
    <glyph glyph-name="integral" unicode="&#x222b;" horiz-adv-x="616" 
d="M155 1l123 552c32 145 107 237 235 237c80 0 118 -51 118 -95c0 -30 -17 -50 -35 -58h-61c5 11 8 30 8 42c0 39 -21 63 -59 63c-55 0 -97 -45 -124 -165l-123 -552c-32 -145 -107 -237 -235 -237c-80 0 -118 51 -118 95c0 30 17 50 35 58h61c-5 -11 -8 -30 -8 -42
c0 -39 21 -63 59 -63c55 0 97 45 124 165z" />
    <glyph glyph-name="approxequal" unicode="&#x2248;" 
d="M92 334l-22 35s48 58 155 58c116 0 153 -72 257 -72c85 0 122 45 122 45l21 -35s-48 -58 -155 -58c-116 0 -153 72 -256 72c-85 0 -122 -45 -122 -45zM92 176l-22 35s48 58 155 58c116 0 153 -72 257 -72c85 0 122 45 122 45l21 -35s-48 -58 -155 -58
c-116 0 -153 72 -256 72c-85 0 -122 -45 -122 -45z" />
    <glyph glyph-name="notequal" unicode="&#x2260;" 
d="M178 95l74 92h-183l7 50h211l77 96h-277l7 51h305l75 92h60l-75 -92h175l-7 -51h-203l-77 -96h272l-7 -50h-300l-74 -92h-60z" />
    <glyph glyph-name="lessequal" unicode="&#x2264;" 
d="M575 11l-519 168l7 52l520 -169zM118 355l149 -49l331 -105l-7 -56l-518 172l9 77l561 169l-8 -57l-357 -102z" />
    <glyph glyph-name="greaterequal" unicode="&#x2265;" 
d="M436 306l161 49l-149 49l-333 102l8 57l519 -169l-10 -77l-561 -172l7 56zM615 179l-561 -168l9 54l560 169z" />
    <glyph glyph-name="squaremultiply" unicode="&#x22a0;" horiz-adv-x="976" 
d="M98 0v780h780v-780h-780zM811 717h-646v-654h646v654zM216 165l225 225l-225 225l47 47l225 -225l224 225l48 -47l-225 -225l225 -225l-48 -47l-224 225l-225 -225z" />
    <glyph glyph-name="house" unicode="&#x2302;" horiz-adv-x="850" 
d="M780 0h-710v450l355 340l355 -340v-450z" />
    <glyph glyph-name="blacksquare" unicode="&#x25a0;" horiz-adv-x="976" 
d="M878 780v-780h-780v780h780z" />
    <glyph glyph-name="whitesquare" unicode="&#x25a1;" horiz-adv-x="976" 
d="M98 0v780h780v-780h-780zM811 717h-646v-654h646v654z" />
    <glyph glyph-name="blacksmallsquare" unicode="&#x25aa;" horiz-adv-x="726" 
d="M628 530v-530h-530v530h530z" />
    <glyph glyph-name="whitesmallsquare" unicode="&#x25ab;" horiz-adv-x="726" 
d="M98 0v530h530v-530h-530zM561 467h-396v-404h396v404z" />
    <glyph glyph-name="triagup" unicode="&#x25b2;" horiz-adv-x="800" 
d="M790 0h-780l390 676z" />
    <glyph glyph-name="triagrt" unicode="&#x25ba;" horiz-adv-x="800" 
d="M34 0v780l676 -390z" />
    <glyph glyph-name="triagdn" unicode="&#x25bc;" horiz-adv-x="800" 
d="M10 780h780l-390 -676z" />
    <glyph glyph-name="triaglf" unicode="&#x25c4;" horiz-adv-x="800" 
d="M710 780v-780l-676 390z" />
    <glyph glyph-name="lozenge" unicode="&#x25ca;" horiz-adv-x="900" 
d="M434 64l335 329l-252 324l-335 -329zM427 -10l-319 400l417 400l319 -400z" />
    <glyph glyph-name="bullseye" unicode="&#x25ce;" horiz-adv-x="960" 
d="M80 390c0 221 179 400 400 400s400 -179 400 -400s-179 -400 -400 -400s-400 179 -400 400zM330 390c0 83 67 150 150 150s150 -67 150 -150s-67 -150 -150 -150s-150 67 -150 150zM157 339c0 -151 121 -272 272 -272s273 121 273 272s-122 273 -273 273
s-272 -122 -272 -273z" />
    <glyph glyph-name="blackcircle" unicode="&#x25cf;" horiz-adv-x="976" 
d="M88 390c0 221 179 400 400 400s400 -179 400 -400s-179 -400 -400 -400s-400 179 -400 400z" />
    <glyph glyph-name="uni25E2" unicode="&#x25e2;" horiz-adv-x="800" 
d="M26 202l552 552l202 -754z" />
    <glyph glyph-name="uni25E3" unicode="&#x25e3;" horiz-adv-x="800" 
d="M222 754l552 -552l-754 -202z" />
    <glyph glyph-name="uni25E4" unicode="&#x25e4;" horiz-adv-x="800" 
d="M774 578l-552 -552l-202 754z" />
    <glyph glyph-name="uni25E5" unicode="&#x25e5;" horiz-adv-x="800" 
d="M578 26l-552 552l754 202z" />
    <glyph glyph-name="whitecircle" unicode="&#x25cb;" horiz-adv-x="976" 
d="M88 390c0 221 179 400 400 400s400 -179 400 -400s-179 -400 -400 -400s-400 179 -400 400zM815 390c0 184 -145 333 -327 333c-183 0 -327 -149 -327 -333s145 -333 327 -333c183 0 327 149 327 333z" />
    <glyph glyph-name="whitecircle" unicode="&#x25ef;" horiz-adv-x="976" 
d="M88 390c0 221 179 400 400 400s400 -179 400 -400s-179 -400 -400 -400s-400 179 -400 400zM815 390c0 184 -145 333 -327 333c-183 0 -327 -149 -327 -333s145 -333 327 -333c183 0 327 149 327 333z" />
    <glyph glyph-name="uni2605" unicode="&#x2605;" horiz-adv-x="880" 
d="M440 180l-260 -190l99 307l-260 189h322l99 306l99 -306h322l-260 -189l99 -307z" />
    <glyph glyph-name="uni263C" unicode="&#x263c;" horiz-adv-x="960" 
d="M880 390l-169 -30l155 -73l-171 15l132 -112l-162 59l98 -141l-141 98l58 -162l-111 130l15 -170l-74 155l-30 -169l-30 169l-74 -155l15 170l-111 -130l58 162l-141 -98l98 141l-162 -59l132 112l-171 -15l155 73l-169 30l169 30l-155 73l171 -15l-132 112l162 -59
l-98 141l141 -98l-58 162l111 -130l-15 170l74 -155l30 169l30 -169l74 155l-15 -170l111 130l-58 -162l141 98l-98 -141l162 59l-132 -112l171 15l-155 -73z" />
    <glyph glyph-name="uni263E" unicode="&#x263e;" horiz-adv-x="960" 
d="M624 728c-179 0 -324 -151 -324 -338s145 -338 324 -338c33 0 65 5 96 15c-68 -49 -152 -77 -240 -77c-221 0 -400 179 -400 400s179 400 400 400c88 0 172 -29 240 -77c-31 9 -63 15 -96 15z" />
    <glyph glyph-name="spade" unicode="&#x2660;" horiz-adv-x="900" 
d="M451 790c33 -50 127 -161 233 -230c87 -57 164 -122 164 -226c0 -98 -78 -174 -176 -174c-99 0 -166 78 -200 161l-3 -1c11 -135 32 -220 82 -320h-202c50 100 71 185 82 320l-3 1c-34 -83 -101 -161 -200 -161c-98 0 -176 76 -176 174c0 104 77 169 164 226
c106 69 200 180 233 230h2z" />
    <glyph glyph-name="club" unicode="&#x2663;" horiz-adv-x="900" 
d="M349 0c50 100 71 185 82 320l-3 1c-34 -83 -101 -161 -200 -161c-98 0 -176 76 -176 174c0 104 70 180 174 180c34 0 61 -11 84 -23l2 2c-22 33 -38 73 -38 117c0 99 75 180 176 180s176 -81 176 -180c0 -44 -16 -84 -38 -117l2 -2c23 12 50 23 84 23
c104 0 174 -76 174 -180c0 -98 -78 -174 -176 -174c-99 0 -166 78 -200 161l-3 -1c11 -135 32 -220 82 -320h-202z" />
    <glyph glyph-name="heart" unicode="&#x2665;" horiz-adv-x="900" 
d="M451 -10h-2c-33 50 -127 173 -233 293c-69 78 -164 197 -164 301c0 118 73 206 191 206c124 0 176 -74 205 -157h4c29 83 81 157 205 157c118 0 191 -88 191 -206c0 -104 -95 -223 -164 -301c-106 -120 -200 -243 -233 -293z" />
    <glyph glyph-name="diamond" unicode="&#x2666;" horiz-adv-x="900" 
d="M817 390c-142 -111 -277 -259 -366 -400h-2c-89 141 -224 289 -366 400c142 111 277 259 366 400h2c89 -141 224 -289 366 -400z" />
    <glyph glyph-name="musicflatsign" unicode="&#x266d;" horiz-adv-x="480" 
d="M68 -42v862h52v-369c26 51 94 92 154 92c116 0 171 -67 171 -184c0 -198 -185 -348 -377 -401zM120 343v-309c96 35 265 132 265 316c0 71 -24 135 -118 135c-80 0 -141 -79 -147 -142z" />
    <glyph glyph-name="musicsharpsign" unicode="&#x266f;" horiz-adv-x="466" 
d="M355 880v-210l91 73v-79l-91 -74v-205l91 73v-79l-91 -74v-305h-51v265l-142 -114v-251h-51v210l-91 -73v79l91 74v205l-91 -73v79l91 74v305h51v-265l142 114v251h51zM162 435v-205l142 114v206z" />
    <glyph glyph-name="uni267B" unicode="&#x267b;" horiz-adv-x="960" 
d="M863 266l1 -2l-96 -167c-21 -31 -35 -56 -88 -56h-57v-49l-113 136l113 135v-49h145c59 0 95 52 95 52zM186 122h-2l-96 168c-17 32 -31 58 -4 103l28 49l-42 24l174 31l59 -166l-41 24s-70 -120 -72 -125c-30 -51 -4 -108 -4 -108zM404 779v1h193c38 -1 66 -2 92 -47
l28 -49l43 24l-61 -166l-173 31l41 24l-72 125c-30 52 -91 57 -91 57zM200 598l67 119c5 9 18 22 34 31c59 35 144 3 165 -35l-116 -201zM446 41h-135c-11 0 -29 4 -44 13c-61 35 -75 123 -53 160h232v-173zM806 527l69 -117c5 -9 10 -26 10 -44c1 -69 -70 -126 -112 -126
l-116 201z" />
    <glyph glyph-name="uni267C" unicode="&#x267c;" horiz-adv-x="960" 
d="M880 389c0 -221 -178 -399 -399 -399c-222 0 -401 178 -401 399c0 222 179 401 401 401c221 0 399 -179 399 -401zM313 645l-52 -92l116 -67l90 156c-16 29 -82 54 -128 27c-12 -7 -22 -17 -26 -24zM415 694v-1s48 -5 71 -44l56 -97l-32 -19l134 -24l47 129l-33 -19
l-22 38c-20 35 -42 37 -71 37h-150zM343 121h105v134h-180c-17 -29 -6 -97 41 -124c12 -7 26 -10 34 -10zM249 184h1s-20 44 3 84l56 97l32 -19l-46 129l-135 -24l33 -19l-22 -38c-21 -35 -10 -55 3 -80zM784 407l-53 91l-116 -67l90 -156c33 0 88 44 87 98
c0 14 -4 27 -8 34zM776 294l-1 1s-28 -40 -74 -40h-112v38l-88 -105l88 -105v38h44c41 0 54 19 68 43z" />
    <glyph glyph-name="uni267D" unicode="&#x267d;" horiz-adv-x="960" 
d="M880 389c0 -221 -178 -399 -399 -399c-222 0 -401 178 -401 399c0 222 179 401 401 401c221 0 399 -179 399 -401zM860 389c0 211 -169 381 -379 381c-211 0 -381 -170 -381 -381c0 -210 170 -379 381 -379c210 0 379 169 379 379zM261 553l52 92c4 7 14 17 26 24
c46 27 112 2 128 -27l-90 -156zM415 693v1h150c29 0 51 -2 71 -37l22 -38l33 19l-47 -129l-134 24l32 19l-56 97c-23 39 -71 44 -71 44zM448 121h-105c-8 0 -22 3 -34 10c-47 27 -58 95 -41 124h180v-134zM250 184h-1l-75 130c-13 25 -24 45 -3 80l22 38l-33 19l135 24
l46 -129l-32 19l-56 -97c-23 -40 -3 -84 -3 -84zM731 498l53 -91c4 -7 8 -20 8 -34c1 -54 -54 -98 -87 -98l-90 156zM775 295l1 -1l-75 -130c-14 -24 -27 -43 -68 -43h-44v-38l-88 105l88 105v-38h112c46 0 74 40 74 40z" />
    <glyph glyph-name="anglebracketleft" unicode="&#x3008;" horiz-adv-x="373" 
d="M213 -121l-121 476l235 476h50l-234 -480l117 -472h-47z" />
    <glyph glyph-name="anglebracketright" unicode="&#x3009;" horiz-adv-x="373" 
d="M204 831l121 -476l-235 -476h-50l234 480l-117 472h47z" />
    <glyph glyph-name="g.school" unicode="&#xe161;" horiz-adv-x="579" 
d="M340 117c-68 -95 -122 -127 -178 -127c-81 0 -119 59 -119 150c0 195 154 393 312 393c41 0 88 -18 106 -57l72 66h26l-35 -111l-70 -391c-39 -220 -149 -290 -277 -290c-95 0 -184 38 -184 114c0 33 21 52 42 62h32c0 -87 37 -141 116 -141c117 0 171 102 203 271
l39 203h-4c-14 -36 -40 -85 -81 -142zM184 38c36 0 76 32 127 99c71 94 126 213 143 304c-16 36 -51 57 -92 57c-132 0 -237 -190 -238 -350c0 -66 19 -110 60 -110z" />
    <glyph glyph-name="y.school" unicode="&#xe16b;" horiz-adv-x="608" 
d="M567 523l-78 -462c-40 -238 -157 -311 -283 -311c-95 0 -186 38 -186 114c0 33 20 52 42 62h31c0 -89 40 -141 119 -141c117 0 170 103 208 286l61 296h-4c-64 -158 -159 -377 -297 -377c-46 0 -73 31 -73 82c0 104 74 305 74 379c0 14 -5 21 -19 21
c-36 0 -79 -45 -108 -91l-28 15c51 102 116 137 164 137c45 0 68 -26 68 -64c0 -68 -78 -299 -78 -383c0 -27 12 -43 34 -43c83 0 206 238 280 480h73z" />
    <glyph glyph-name="p.smcp" unicode="&#xe200;" horiz-adv-x="574" 
d="M231 229l-11 -93c-2 -17 -5 -44 -5 -58c0 -34 23 -44 108 -47l-5 -31h-288l4 31c64 0 98 12 104 60l41 327c3 27 5 47 5 59c0 35 -28 48 -91 49l4 31h245c147 0 217 -52 217 -149c0 -112 -83 -179 -220 -179h-108zM267 517l-30 -248h83c101 0 153 39 153 137
c0 72 -40 111 -133 111h-73z" />
    <glyph glyph-name="p.smcp" unicode="&#xf770;" horiz-adv-x="574" 
d="M231 229l-11 -93c-2 -17 -5 -44 -5 -58c0 -34 23 -44 108 -47l-5 -31h-288l4 31c64 0 98 12 104 60l41 327c3 27 5 47 5 59c0 35 -28 48 -91 49l4 31h245c147 0 217 -52 217 -149c0 -112 -83 -179 -220 -179h-108zM267 517l-30 -248h83c101 0 153 39 153 137
c0 72 -40 111 -133 111h-73z" />
    <glyph glyph-name="a.smcp" unicode="&#xe201;" horiz-adv-x="646" 
d="M463 119l-19 63h-262l-44 -71c-13 -22 -18 -38 -18 -49c0 -23 23 -31 79 -31l-5 -31h-199l4 31c24 1 43 3 56 25l285 462l-16 47h81l156 -509c7 -22 30 -25 50 -25l-4 -31h-231l5 31c58 1 92 9 92 41c0 8 -4 26 -10 47zM358 466l-151 -244h225z" />
    <glyph glyph-name="a.smcp" unicode="&#xf761;" horiz-adv-x="646" 
d="M463 119l-19 63h-262l-44 -71c-13 -22 -18 -38 -18 -49c0 -23 23 -31 79 -31l-5 -31h-199l4 31c24 1 43 3 56 25l285 462l-16 47h81l156 -509c7 -22 30 -25 50 -25l-4 -31h-231l5 31c58 1 92 9 92 41c0 8 -4 26 -10 47zM358 466l-151 -244h225z" />
    <glyph glyph-name="b.smcp" unicode="&#xe202;" horiz-adv-x="614" 
d="M236 270l-17 -140c-2 -16 -4 -37 -4 -52c0 -30 24 -38 65 -38h42c90 0 148 39 148 123c0 69 -46 107 -145 107h-89zM358 517h-91l-25 -207h69c100 0 161 28 161 121c0 58 -38 86 -114 86zM97 557h271c112 0 186 -39 186 -127c0 -100 -92 -134 -182 -140
c109 -5 178 -47 178 -126c0 -114 -104 -164 -233 -164h-287l4 31c64 0 98 12 104 60l41 327c3 27 5 47 5 59c0 35 -28 48 -91 49z" />
    <glyph glyph-name="b.smcp" unicode="&#xf762;" horiz-adv-x="614" 
d="M236 270l-17 -140c-2 -16 -4 -37 -4 -52c0 -30 24 -38 65 -38h42c90 0 148 39 148 123c0 69 -46 107 -145 107h-89zM358 517h-91l-25 -207h69c100 0 161 28 161 121c0 58 -38 86 -114 86zM97 557h271c112 0 186 -39 186 -127c0 -100 -92 -134 -182 -140
c109 -5 178 -47 178 -126c0 -114 -104 -164 -233 -164h-287l4 31c64 0 98 12 104 60l41 327c3 27 5 47 5 59c0 35 -28 48 -91 49z" />
    <glyph glyph-name="c.smcp" unicode="&#xe203;" horiz-adv-x="617" 
d="M333 -10c-162 0 -270 100 -270 254c0 163 111 323 311 323c93 0 153 -27 200 -57l-15 -128h-20c-14 94 -78 143 -165 143c-157 0 -226 -132 -226 -274c0 -134 74 -219 185 -219c104 0 158 58 206 147h27l-38 -140c-55 -30 -113 -49 -195 -49z" />
    <glyph glyph-name="c.smcp" unicode="&#xf763;" horiz-adv-x="617" 
d="M333 -10c-162 0 -270 100 -270 254c0 163 111 323 311 323c93 0 153 -27 200 -57l-15 -128h-20c-14 94 -78 143 -165 143c-157 0 -226 -132 -226 -274c0 -134 74 -219 185 -219c104 0 158 58 206 147h27l-38 -140c-55 -30 -113 -49 -195 -49z" />
    <glyph glyph-name="d.smcp" unicode="&#xe204;" horiz-adv-x="666" 
d="M267 518l-48 -391c-3 -24 -4 -42 -4 -48c0 -30 23 -40 64 -40h27c153 0 239 98 239 274c0 141 -72 205 -204 205h-74zM30 0l4 31c64 0 98 12 104 60l41 327c3 27 5 47 5 59c0 35 -28 48 -91 49l4 31h251c174 0 281 -83 281 -236c0 -202 -126 -321 -322 -321h-277z" />
    <glyph glyph-name="d.smcp" unicode="&#xf764;" horiz-adv-x="666" 
d="M267 518l-48 -391c-3 -24 -4 -42 -4 -48c0 -30 23 -40 64 -40h27c153 0 239 98 239 274c0 141 -72 205 -204 205h-74zM30 0l4 31c64 0 98 12 104 60l41 327c3 27 5 47 5 59c0 35 -28 48 -91 49l4 31h251c174 0 281 -83 281 -236c0 -202 -126 -321 -322 -321h-277z" />
    <glyph glyph-name="e.smcp" unicode="&#xe205;" horiz-adv-x="624" 
d="M97 557h480l-17 -129h-21c-16 77 -39 89 -115 89h-157l-26 -208h123c39 0 63 23 74 73h29l-25 -186h-28c0 49 -18 74 -55 74h-123l-17 -142c-3 -24 -4 -42 -4 -48c0 -30 23 -40 61 -40h92c72 0 112 29 170 116h22l-49 -156h-481l4 31c64 0 98 12 104 60l41 327
c3 27 5 47 5 59c0 35 -28 48 -91 49z" />
    <glyph glyph-name="e.smcp" unicode="&#xf765;" horiz-adv-x="624" 
d="M97 557h480l-17 -129h-21c-16 77 -39 89 -115 89h-157l-26 -208h123c39 0 63 23 74 73h29l-25 -186h-28c0 49 -18 74 -55 74h-123l-17 -142c-3 -24 -4 -42 -4 -48c0 -30 23 -40 61 -40h92c72 0 112 29 170 116h22l-49 -156h-481l4 31c64 0 98 12 104 60l41 327
c3 27 5 47 5 59c0 35 -28 48 -91 49z" />
    <glyph glyph-name="f.smcp" unicode="&#xe206;" horiz-adv-x="577" 
d="M97 557h470l-15 -129h-26c-16 77 -47 89 -116 89h-143l-28 -228h118c39 0 63 23 75 73h25l-26 -185h-24c0 48 -17 73 -55 73h-118l-14 -114c-2 -17 -5 -44 -5 -58c0 -34 23 -44 108 -47l-5 -31h-288l4 31c64 0 98 12 104 60l41 327c3 27 5 47 5 59c0 35 -28 48 -91 49z
" />
    <glyph glyph-name="f.smcp" unicode="&#xf766;" horiz-adv-x="577" 
d="M97 557h470l-15 -129h-26c-16 77 -47 89 -116 89h-143l-28 -228h118c39 0 63 23 75 73h25l-26 -185h-24c0 48 -17 73 -55 73h-118l-14 -114c-2 -17 -5 -44 -5 -58c0 -34 23 -44 108 -47l-5 -31h-288l4 31c64 0 98 12 104 60l41 327c3 27 5 47 5 59c0 35 -28 48 -91 49z
" />
    <glyph glyph-name="g.smcp" unicode="&#xe207;" horiz-adv-x="663" 
d="M457 72l7 50c4 27 5 47 5 59c0 35 -28 48 -91 49l4 31h272l-4 -31c-64 0 -98 -12 -104 -60l-14 -122c-55 -37 -118 -58 -199 -58c-162 0 -270 100 -270 254c0 163 111 323 311 323c93 0 153 -27 200 -57l-15 -128h-20c-14 94 -78 143 -165 143
c-157 0 -226 -132 -226 -274c0 -134 74 -219 185 -219c61 0 95 14 124 40z" />
    <glyph glyph-name="g.smcp" unicode="&#xf767;" horiz-adv-x="663" 
d="M457 72l7 50c4 27 5 47 5 59c0 35 -28 48 -91 49l4 31h272l-4 -31c-64 0 -98 -12 -104 -60l-14 -122c-55 -37 -118 -58 -199 -58c-162 0 -270 100 -270 254c0 163 111 323 311 323c93 0 153 -27 200 -57l-15 -128h-20c-14 94 -78 143 -165 143
c-157 0 -226 -132 -226 -274c0 -134 74 -219 185 -219c61 0 95 14 124 40z" />
    <glyph glyph-name="h.smcp" unicode="&#xe208;" horiz-adv-x="771" 
d="M530 91l22 179h-316l-16 -131c-3 -27 -5 -47 -5 -59c0 -35 28 -48 91 -49l-4 -31h-272l4 31c64 0 98 12 104 60l41 327c3 27 5 47 5 59c0 35 -28 48 -91 49l4 31h272l-4 -31c-64 0 -98 -12 -104 -60l-20 -156h316l14 108c3 27 5 47 5 59c0 35 -28 48 -91 49l4 31h272
l-4 -31c-64 0 -98 -12 -104 -60l-41 -327c-3 -27 -5 -47 -5 -59c0 -35 28 -48 91 -49l-4 -31h-272l4 31c64 0 98 12 104 60z" />
    <glyph glyph-name="h.smcp" unicode="&#xf768;" horiz-adv-x="771" 
d="M530 91l22 179h-316l-16 -131c-3 -27 -5 -47 -5 -59c0 -35 28 -48 91 -49l-4 -31h-272l4 31c64 0 98 12 104 60l41 327c3 27 5 47 5 59c0 35 -28 48 -91 49l4 31h272l-4 -31c-64 0 -98 -12 -104 -60l-20 -156h316l14 108c3 27 5 47 5 59c0 35 -28 48 -91 49l4 31h272
l-4 -31c-64 0 -98 -12 -104 -60l-41 -327c-3 -27 -5 -47 -5 -59c0 -35 28 -48 91 -49l-4 -31h-272l4 31c64 0 98 12 104 60z" />
    <glyph glyph-name="i.smcp" unicode="&#xe209;" horiz-adv-x="379" 
d="M138 91l41 327c3 27 5 47 5 59c0 35 -28 48 -91 49l4 31h272l-4 -31c-64 0 -98 -12 -104 -60l-41 -327c-3 -27 -5 -47 -5 -59c0 -35 28 -48 91 -49l-4 -31h-272l4 31c64 0 98 12 104 60z" />
    <glyph glyph-name="i.smcp" unicode="&#xf769;" horiz-adv-x="379" 
d="M138 91l41 327c3 27 5 47 5 59c0 35 -28 48 -91 49l4 31h272l-4 -31c-64 0 -98 -12 -104 -60l-41 -327c-3 -27 -5 -47 -5 -59c0 -35 28 -48 91 -49l-4 -31h-272l4 31c64 0 98 12 104 60z" />
    <glyph glyph-name="j.smcp" unicode="&#xe20a;" horiz-adv-x="486" 
d="M282 150l34 268c3 27 5 47 5 59c0 35 -28 48 -91 49l4 31h272l-4 -31c-64 0 -98 -12 -104 -60l-38 -308c-13 -109 -73 -168 -192 -168c-102 0 -153 49 -153 100c0 34 20 55 41 65h55c-7 -14 -11 -33 -11 -49c0 -47 21 -81 75 -81c56 0 96 34 107 125z" />
    <glyph glyph-name="j.smcp" unicode="&#xf76a;" horiz-adv-x="486" 
d="M282 150l34 268c3 27 5 47 5 59c0 35 -28 48 -91 49l4 31h272l-4 -31c-64 0 -98 -12 -104 -60l-38 -308c-13 -109 -73 -168 -192 -168c-102 0 -153 49 -153 100c0 34 20 55 41 65h55c-7 -14 -11 -33 -11 -49c0 -47 21 -81 75 -81c56 0 96 34 107 125z" />
    <glyph glyph-name="k.smcp" unicode="&#xe20b;" horiz-adv-x="661" 
d="M336 305l148 -181c55 -67 88 -92 145 -93l-4 -31h-122c-35 27 -71 68 -98 100l-151 185l220 185c14 14 24 22 24 34c0 13 -7 21 -58 22l4 31h214l-4 -31c-37 -2 -62 -9 -93 -35zM138 91l41 327c3 27 5 47 5 59c0 35 -28 48 -91 49l4 31h272l-4 -31
c-64 0 -98 -12 -104 -60l-41 -327c-3 -27 -5 -47 -5 -59c0 -35 28 -48 91 -49l-4 -31h-272l4 31c64 0 98 12 104 60z" />
    <glyph glyph-name="k.smcp" unicode="&#xf76b;" horiz-adv-x="661" 
d="M336 305l148 -181c55 -67 88 -92 145 -93l-4 -31h-122c-35 27 -71 68 -98 100l-151 185l220 185c14 14 24 22 24 34c0 13 -7 21 -58 22l4 31h214l-4 -31c-37 -2 -62 -9 -93 -35zM138 91l41 327c3 27 5 47 5 59c0 35 -28 48 -91 49l4 31h272l-4 -31
c-64 0 -98 -12 -104 -60l-41 -327c-3 -27 -5 -47 -5 -59c0 -35 28 -48 91 -49l-4 -31h-272l4 31c64 0 98 12 104 60z" />
    <glyph glyph-name="l.smcp" unicode="&#xe20c;" horiz-adv-x="586" 
d="M261 466l-43 -340c-3 -25 -4 -43 -4 -50c0 -28 24 -36 62 -36h81c68 0 108 37 171 125h24l-55 -165h-467l4 31c64 0 98 12 104 60l41 327c3 27 5 47 5 59c0 35 -28 48 -91 49l4 31h272l-4 -31c-64 0 -98 -12 -104 -60z" />
    <glyph glyph-name="l.smcp" unicode="&#xf76c;" horiz-adv-x="586" 
d="M261 466l-43 -340c-3 -25 -4 -43 -4 -50c0 -28 24 -36 62 -36h81c68 0 108 37 171 125h24l-55 -165h-467l4 31c64 0 98 12 104 60l41 327c3 27 5 47 5 59c0 35 -28 48 -91 49l4 31h272l-4 -31c-64 0 -98 -12 -104 -60z" />
    <glyph glyph-name="m.smcp" unicode="&#xe20d;" horiz-adv-x="871" 
d="M812 557l-4 -31c-50 -1 -82 -12 -89 -49l18 -404c2 -33 30 -40 71 -42l-4 -31h-250l4 31c35 2 103 5 103 53c0 15 -1 27 -1 31l-13 329l-238 -444h-36l-117 444l-103 -339c-4 -12 -6 -24 -6 -35c0 -30 29 -35 80 -39l-5 -31h-217l5 31c39 2 75 10 84 38l126 408
c0 39 -22 48 -72 49l4 31h158c0 -17 2 -27 7 -46l105 -403l212 403c10 19 15 29 19 46h159z" />
    <glyph glyph-name="m.smcp" unicode="&#xf76d;" horiz-adv-x="871" 
d="M812 557l-4 -31c-50 -1 -82 -12 -89 -49l18 -404c2 -33 30 -40 71 -42l-4 -31h-250l4 31c35 2 103 5 103 53c0 15 -1 27 -1 31l-13 329l-238 -444h-36l-117 444l-103 -339c-4 -12 -6 -24 -6 -35c0 -30 29 -35 80 -39l-5 -31h-217l5 31c39 2 75 10 84 38l126 408
c0 39 -22 48 -72 49l4 31h158c0 -17 2 -27 7 -46l105 -403l212 403c10 19 15 29 19 46h159z" />
    <glyph glyph-name="n.smcp" unicode="&#xe20e;" horiz-adv-x="756" 
d="M558 119l35 299c3 27 5 47 5 59c0 35 -28 48 -91 49l4 31h245l-4 -31c-64 0 -98 -12 -104 -60l-58 -466h-34l-324 448l-39 -309c-3 -27 -5 -47 -5 -59c0 -35 28 -48 91 -49l-4 -31h-245l4 31c64 0 98 12 104 60l49 390c-28 37 -40 45 -89 45l4 31h144z" />
    <glyph glyph-name="n.smcp" unicode="&#xf76e;" horiz-adv-x="756" 
d="M558 119l35 299c3 27 5 47 5 59c0 35 -28 48 -91 49l4 31h245l-4 -31c-64 0 -98 -12 -104 -60l-58 -466h-34l-324 448l-39 -309c-3 -27 -5 -47 -5 -59c0 -35 28 -48 91 -49l-4 -31h-245l4 31c64 0 98 12 104 60l49 390c-28 37 -40 45 -89 45l4 31h144z" />
    <glyph glyph-name="o.smcp" unicode="&#xe20f;" horiz-adv-x="636" 
d="M309 32c128 0 205 123 205 282c0 124 -59 211 -161 211c-128 0 -205 -120 -205 -282c0 -127 59 -211 161 -211zM302 -10c-136 0 -239 94 -239 251c0 159 102 326 297 326c136 0 239 -94 239 -251c0 -159 -102 -326 -297 -326z" />
    <glyph glyph-name="o.smcp" unicode="&#xf76f;" horiz-adv-x="636" 
d="M309 32c128 0 205 123 205 282c0 124 -59 211 -161 211c-128 0 -205 -120 -205 -282c0 -127 59 -211 161 -211zM302 -10c-136 0 -239 94 -239 251c0 159 102 326 297 326c136 0 239 -94 239 -251c0 -159 -102 -326 -297 -326z" />
    <glyph glyph-name="q.smcp" unicode="&#xe211;" horiz-adv-x="636" 
d="M452 -78c53 -35 95 -39 140 -39h19v-18c-16 -11 -50 -29 -101 -29c-59 0 -107 24 -148 65l-91 91c-120 12 -208 104 -208 249c0 159 102 326 297 326c136 0 239 -94 239 -251c0 -147 -87 -301 -254 -323zM309 32c128 0 205 123 205 282c0 124 -59 211 -161 211
c-128 0 -205 -120 -205 -282c0 -127 59 -211 161 -211z" />
    <glyph glyph-name="q.smcp" unicode="&#xf771;" horiz-adv-x="636" 
d="M452 -78c53 -35 95 -39 140 -39h19v-18c-16 -11 -50 -29 -101 -29c-59 0 -107 24 -148 65l-91 91c-120 12 -208 104 -208 249c0 159 102 326 297 326c136 0 239 -94 239 -251c0 -147 -87 -301 -254 -323zM309 32c128 0 205 123 205 282c0 124 -59 211 -161 211
c-128 0 -205 -120 -205 -282c0 -127 59 -211 161 -211z" />
    <glyph glyph-name="r.smcp" unicode="&#xe212;" horiz-adv-x="655" 
d="M234 252l-14 -113c-3 -27 -5 -47 -5 -59c0 -35 28 -48 91 -49l-4 -31h-272l4 31c64 0 98 12 104 60l41 327c3 27 5 47 5 59c0 35 -28 48 -91 49l4 31h263c141 0 202 -51 202 -136c0 -120 -104 -157 -182 -162l98 -133c45 -61 80 -95 145 -96l-4 -30h-124
c-32 28 -58 51 -105 120l-90 132h-66zM267 517l-28 -225h88c95 0 153 33 153 131c0 67 -40 94 -122 94h-91z" />
    <glyph glyph-name="r.smcp" unicode="&#xf772;" horiz-adv-x="655" 
d="M234 252l-14 -113c-3 -27 -5 -47 -5 -59c0 -35 28 -48 91 -49l-4 -31h-272l4 31c64 0 98 12 104 60l41 327c3 27 5 47 5 59c0 35 -28 48 -91 49l4 31h263c141 0 202 -51 202 -136c0 -120 -104 -157 -182 -162l98 -133c45 -61 80 -95 145 -96l-4 -30h-124
c-32 28 -58 51 -105 120l-90 132h-66zM267 517l-28 -225h88c95 0 153 33 153 131c0 67 -40 94 -122 94h-91z" />
    <glyph glyph-name="s.smcp" unicode="&#xe213;" horiz-adv-x="495" 
d="M225 -10c-85 0 -151 30 -189 67l11 133h25c20 -110 76 -156 157 -156c74 0 124 32 124 98c0 61 -32 87 -132 132c-88 40 -127 79 -127 156c0 90 72 147 179 147c82 0 137 -22 177 -52l-15 -127h-25c-11 81 -51 135 -141 135c-70 0 -108 -34 -108 -92
c0 -50 31 -75 107 -108c96 -42 155 -84 155 -173c0 -102 -83 -160 -198 -160z" />
    <glyph glyph-name="s.smcp" unicode="&#xf773;" horiz-adv-x="495" 
d="M225 -10c-85 0 -151 30 -189 67l11 133h25c20 -110 76 -156 157 -156c74 0 124 32 124 98c0 61 -32 87 -132 132c-88 40 -127 79 -127 156c0 90 72 147 179 147c82 0 137 -22 177 -52l-15 -127h-25c-11 81 -51 135 -141 135c-70 0 -108 -34 -108 -92
c0 -50 31 -75 107 -108c96 -42 155 -84 155 -173c0 -102 -83 -160 -198 -160z" />
    <glyph glyph-name="t.smcp" unicode="&#xe214;" horiz-adv-x="625" 
d="M389 518l-47 -379c-3 -27 -5 -47 -5 -59c0 -35 28 -48 91 -49l-4 -31h-272l4 31c64 0 98 12 104 60l53 427h-62c-89 0 -110 -36 -161 -119h-26l35 158h516l-9 -158h-23c-28 83 -42 119 -125 119h-69z" />
    <glyph glyph-name="t.smcp" unicode="&#xf774;" horiz-adv-x="625" 
d="M389 518l-47 -379c-3 -27 -5 -47 -5 -59c0 -35 28 -48 91 -49l-4 -31h-272l4 31c64 0 98 12 104 60l53 427h-62c-89 0 -110 -36 -161 -119h-26l35 158h516l-9 -158h-23c-28 83 -42 119 -125 119h-69z" />
    <glyph glyph-name="u.smcp" unicode="&#xe215;" horiz-adv-x="647" 
d="M498 216l25 202c3 23 5 47 5 59c0 35 -28 48 -91 49l4 31h245l-4 -31c-64 0 -98 -12 -104 -60l-33 -271c-15 -124 -99 -205 -233 -205c-140 0 -218 69 -218 182c0 17 1 29 5 63l24 183c4 27 5 47 5 59c0 35 -28 48 -91 49l4 31h272l-4 -31c-64 0 -98 -12 -104 -60
l-30 -234c-3 -22 -4 -37 -4 -53c0 -92 62 -140 148 -140c114 0 163 60 179 177z" />
    <glyph glyph-name="u.smcp" unicode="&#xf775;" horiz-adv-x="647" 
d="M498 216l25 202c3 23 5 47 5 59c0 35 -28 48 -91 49l4 31h245l-4 -31c-64 0 -98 -12 -104 -60l-33 -271c-15 -124 -99 -205 -233 -205c-140 0 -218 69 -218 182c0 17 1 29 5 63l24 183c4 27 5 47 5 59c0 35 -28 48 -91 49l4 31h272l-4 -31c-64 0 -98 -12 -104 -60
l-30 -234c-3 -22 -4 -37 -4 -53c0 -92 62 -140 148 -140c114 0 163 60 179 177z" />
    <glyph glyph-name="v.smcp" unicode="&#xe216;" horiz-adv-x="617" 
d="M443 557h204l-4 -31c-32 -2 -47 -6 -62 -31l-294 -501h-27l-159 508c-6 21 -24 22 -49 24l4 31h232l-4 -31c-59 -2 -94 -9 -94 -42c0 -8 4 -26 10 -46l100 -339l199 348c12 21 19 37 19 49c0 24 -23 27 -79 30z" />
    <glyph glyph-name="v.smcp" unicode="&#xf776;" horiz-adv-x="617" 
d="M443 557h204l-4 -31c-32 -2 -47 -6 -62 -31l-294 -501h-27l-159 508c-6 21 -24 22 -49 24l4 31h232l-4 -31c-59 -2 -94 -9 -94 -42c0 -8 4 -26 10 -46l100 -339l199 348c12 21 19 37 19 49c0 24 -23 27 -79 30z" />
    <glyph glyph-name="w.smcp" unicode="&#xe217;" horiz-adv-x="880" 
d="M505 438l89 -333l174 342c11 22 18 37 18 49c0 24 -22 27 -78 30l4 31h198l-4 -31c-32 -2 -49 -5 -62 -31l-260 -501h-28l-97 348l-194 -348h-30l-134 508c-6 21 -24 22 -49 24l4 31h226l-4 -31c-59 -2 -94 -9 -94 -42c0 -8 4 -26 9 -46l85 -339l166 296l-29 107
c-5 20 -24 22 -49 24l4 31h224l-4 -31c-59 -2 -94 -9 -94 -42c0 -8 4 -26 9 -46z" />
    <glyph glyph-name="w.smcp" unicode="&#xf777;" horiz-adv-x="880" 
d="M505 438l89 -333l174 342c11 22 18 37 18 49c0 24 -22 27 -78 30l4 31h198l-4 -31c-32 -2 -49 -5 -62 -31l-260 -501h-28l-97 348l-194 -348h-30l-134 508c-6 21 -24 22 -49 24l4 31h226l-4 -31c-59 -2 -94 -9 -94 -42c0 -8 4 -26 9 -46l85 -339l166 296l-29 107
c-5 20 -24 22 -49 24l4 31h224l-4 -31c-59 -2 -94 -9 -94 -42c0 -8 4 -26 9 -46z" />
    <glyph glyph-name="y.smcp" unicode="&#xe219;" horiz-adv-x="582" 
d="M318 224l-10 -85c-3 -27 -5 -47 -5 -59c0 -35 28 -48 91 -49l-4 -31h-268l4 31c64 0 98 12 104 60l17 133l-144 278c-10 19 -26 22 -51 24l4 31h239l-4 -31c-59 -2 -92 -6 -92 -39c0 -8 7 -28 18 -49l86 -170l153 185c16 20 21 30 21 42c0 24 -23 28 -79 31l4 31h210
l-4 -31c-32 -2 -43 -9 -62 -31z" />
    <glyph glyph-name="y.smcp" unicode="&#xf779;" horiz-adv-x="582" 
d="M318 224l-10 -85c-3 -27 -5 -47 -5 -59c0 -35 28 -48 91 -49l-4 -31h-268l4 31c64 0 98 12 104 60l17 133l-144 278c-10 19 -26 22 -51 24l4 31h239l-4 -31c-59 -2 -92 -6 -92 -39c0 -8 7 -28 18 -49l86 -170l153 185c16 20 21 30 21 42c0 24 -23 28 -79 31l4 31h210
l-4 -31c-32 -2 -43 -9 -62 -31z" />
    <glyph glyph-name="z.smcp" unicode="&#xe21a;" horiz-adv-x="567" 
d="M127 40h196c70 0 108 21 181 123h26l-56 -163h-461l2 18l431 499h-195c-68 0 -101 -39 -132 -100h-26l23 140h444l-2 -18z" />
    <glyph glyph-name="z.smcp" unicode="&#xf77a;" horiz-adv-x="567" 
d="M127 40h196c70 0 108 21 181 123h26l-56 -163h-461l2 18l431 499h-195c-68 0 -101 -39 -132 -100h-26l23 140h444l-2 -18z" />
    <glyph glyph-name="ae.smcp" unicode="&#xe231;" horiz-adv-x="861" 
d="M119 62c0 -23 23 -31 79 -31l-5 -31h-198l4 31c24 1 42 4 56 25l296 454c-22 12 -42 16 -80 18l4 29h539l-17 -129h-21c-16 77 -39 89 -115 89h-200l16 -208h124c39 0 63 23 74 73h29l-25 -186h-28c0 49 -18 74 -55 74h-117l13 -189c1 -23 19 -41 47 -41h66
c72 0 112 29 170 116h22l-49 -156h-435l4 30c58 1 98 7 98 46c-1 6 -1 16 -2 37l-4 54h-231l-45 -69c-7 -10 -14 -25 -14 -36zM388 485h-2l-181 -279h201z" />
    <glyph glyph-name="ae.smcp" unicode="&#xf7e6;" horiz-adv-x="861" 
d="M119 62c0 -23 23 -31 79 -31l-5 -31h-198l4 31c24 1 42 4 56 25l296 454c-22 12 -42 16 -80 18l4 29h539l-17 -129h-21c-16 77 -39 89 -115 89h-200l16 -208h124c39 0 63 23 74 73h29l-25 -186h-28c0 49 -18 74 -55 74h-117l13 -189c1 -23 19 -41 47 -41h66
c72 0 112 29 170 116h22l-49 -156h-435l4 30c58 1 98 7 98 46c-1 6 -1 16 -2 37l-4 54h-231l-45 -69c-7 -10 -14 -25 -14 -36zM388 485h-2l-181 -279h201z" />
    <glyph glyph-name="dcroat.smcp" unicode="&#xe23c;" horiz-adv-x="666" 
d="M68 269l4 39h93l14 110c3 27 5 47 5 59c0 35 -28 48 -91 49l4 31h251c174 0 281 -83 281 -236c0 -202 -126 -321 -322 -321h-277l4 31c64 0 98 12 104 60l22 178h-92zM267 518l-26 -210h161l-4 -39h-162l-17 -142c-3 -24 -4 -42 -4 -48c0 -30 23 -40 64 -40h27
c153 0 239 98 239 274c0 141 -72 205 -204 205h-74z" />
    <glyph glyph-name="dcroat.smcp" unicode="&#xf646;" horiz-adv-x="666" 
d="M68 269l4 39h93l14 110c3 27 5 47 5 59c0 35 -28 48 -91 49l4 31h251c174 0 281 -83 281 -236c0 -202 -126 -321 -322 -321h-277l4 31c64 0 98 12 104 60l22 178h-92zM267 518l-26 -210h161l-4 -39h-162l-17 -142c-3 -24 -4 -42 -4 -48c0 -30 23 -40 64 -40h27
c153 0 239 98 239 274c0 141 -72 205 -204 205h-74z" />
    <glyph glyph-name="hbar.smcp" unicode="&#xe257;" horiz-adv-x="771" 
d="M82 398l5 39h94c2 17 3 31 3 40c0 35 -28 48 -91 49l4 31h272l-4 -31c-64 0 -98 -12 -104 -60l-4 -29h316c2 17 3 31 3 40c0 35 -28 48 -91 49l4 31h272l-4 -31c-64 0 -98 -12 -104 -60l-4 -29h91l-5 -39h-91l-32 -259c-3 -27 -5 -47 -5 -59c0 -35 28 -48 91 -49l-4 -31
h-272l4 31c64 0 98 12 104 60l22 179h-316l-16 -131c-3 -27 -5 -47 -5 -59c0 -35 28 -48 91 -49l-4 -31h-272l4 31c64 0 98 12 104 60l38 307h-94zM252 398l-11 -88h316l11 88h-316z" />
    <glyph glyph-name="hbar.smcp" unicode="&#xf62e;" horiz-adv-x="771" 
d="M82 398l5 39h94c2 17 3 31 3 40c0 35 -28 48 -91 49l4 31h272l-4 -31c-64 0 -98 -12 -104 -60l-4 -29h316c2 17 3 31 3 40c0 35 -28 48 -91 49l4 31h272l-4 -31c-64 0 -98 -12 -104 -60l-4 -29h91l-5 -39h-91l-32 -259c-3 -27 -5 -47 -5 -59c0 -35 28 -48 91 -49l-4 -31
h-272l4 31c64 0 98 12 104 60l22 179h-316l-16 -131c-3 -27 -5 -47 -5 -59c0 -35 28 -48 91 -49l-4 -31h-272l4 31c64 0 98 12 104 60l38 307h-94zM252 398l-11 -88h316l11 88h-316z" />
    <glyph glyph-name="lslash.smcp" unicode="&#xe272;" horiz-adv-x="586" 
d="M261 466l-20 -155l150 83l-7 -47l-148 -80l-18 -141c-3 -25 -4 -43 -4 -50c0 -28 24 -36 62 -36h81c68 0 108 37 171 125h24l-55 -165h-467l4 31c64 0 98 12 104 60l17 138l-88 -49l7 46l87 47l18 145c3 27 5 47 5 59c0 35 -28 48 -91 49l4 31h272l-4 -31
c-64 0 -98 -12 -104 -60z" />
    <glyph glyph-name="lslash.smcp" unicode="&#xf6f9;" horiz-adv-x="586" 
d="M261 466l-20 -155l150 83l-7 -47l-148 -80l-18 -141c-3 -25 -4 -43 -4 -50c0 -28 24 -36 62 -36h81c68 0 108 37 171 125h24l-55 -165h-467l4 31c64 0 98 12 104 60l17 138l-88 -49l7 46l87 47l18 145c3 27 5 47 5 59c0 35 -28 48 -91 49l4 31h272l-4 -31
c-64 0 -98 -12 -104 -60z" />
    <glyph glyph-name="oslash.smcp" unicode="&#xe295;" horiz-adv-x="636" 
d="M302 -10c-63 0 -119 20 -161 57l-81 -87l-31 28l84 90c-32 41 -50 96 -50 163c0 159 102 326 297 326c61 0 116 -20 157 -55l71 76l33 -29l-74 -79c33 -41 52 -97 52 -164c0 -159 -102 -326 -297 -326zM309 32c128 0 205 123 205 282c0 41 -7 79 -19 110l-309 -329
c27 -40 69 -63 123 -63zM148 243c0 -41 6 -78 18 -109l307 330c-28 38 -69 61 -120 61c-128 0 -205 -120 -205 -282z" />
    <glyph glyph-name="oslash.smcp" unicode="&#xf7f8;" horiz-adv-x="636" 
d="M302 -10c-63 0 -119 20 -161 57l-81 -87l-31 28l84 90c-32 41 -50 96 -50 163c0 159 102 326 297 326c61 0 116 -20 157 -55l71 76l33 -29l-74 -79c33 -41 52 -97 52 -164c0 -159 -102 -326 -297 -326zM309 32c128 0 205 123 205 282c0 41 -7 79 -19 110l-309 -329
c27 -40 69 -63 123 -63zM148 243c0 -41 6 -78 18 -109l307 330c-28 38 -69 61 -120 61c-128 0 -205 -120 -205 -282z" />
    <glyph glyph-name="oe.smcp" unicode="&#xe298;" horiz-adv-x="938" 
d="M302 -10c-136 0 -239 94 -239 251c0 159 102 326 297 326c26 0 50 -4 73 -10h458l-17 -129h-21c-16 77 -39 89 -115 89h-227c54 -43 88 -112 88 -201v-7h79c39 0 63 23 74 73h29l-25 -186h-28c0 49 -18 74 -55 74h-77c-11 -91 -55 -178 -130 -230h216
c72 0 112 29 170 116h22l-49 -156h-444c-24 -6 -51 -10 -79 -10zM309 32c128 0 205 123 205 282c0 124 -59 211 -161 211c-128 0 -205 -120 -205 -282c0 -127 59 -211 161 -211z" />
    <glyph glyph-name="oe.smcp" unicode="&#xf6fa;" horiz-adv-x="938" 
d="M302 -10c-136 0 -239 94 -239 251c0 159 102 326 297 326c26 0 50 -4 73 -10h458l-17 -129h-21c-16 77 -39 89 -115 89h-227c54 -43 88 -112 88 -201v-7h79c39 0 63 23 74 73h29l-25 -186h-28c0 49 -18 74 -55 74h-77c-11 -91 -55 -178 -130 -230h216
c72 0 112 29 170 116h22l-49 -156h-444c-24 -6 -51 -10 -79 -10zM309 32c128 0 205 123 205 282c0 124 -59 211 -161 211c-128 0 -205 -120 -205 -282c0 -127 59 -211 161 -211z" />
    <glyph glyph-name="tbar.smcp" unicode="&#xe30d;" horiz-adv-x="625" 
d="M389 518l-28 -229h101l-5 -39h-101l-14 -111c-3 -27 -5 -47 -5 -59c0 -35 28 -48 91 -49l-4 -31h-272l4 31c64 0 98 12 104 60l19 159h-102l5 39h102l29 229h-62c-89 0 -110 -36 -161 -119h-26l35 158h516l-9 -158h-23c-28 83 -42 119 -125 119h-69z" />
    <glyph glyph-name="tbar.smcp" unicode="&#xf637;" horiz-adv-x="625" 
d="M389 518l-28 -229h101l-5 -39h-101l-14 -111c-3 -27 -5 -47 -5 -59c0 -35 28 -48 91 -49l-4 -31h-272l4 31c64 0 98 12 104 60l19 159h-102l5 39h102l29 229h-62c-89 0 -110 -36 -161 -119h-26l35 158h516l-9 -158h-23c-28 83 -42 119 -125 119h-69z" />
    <glyph glyph-name="ij.smcp" unicode="&#xe327;" horiz-adv-x="796" 
d="M138 91l41 327c3 27 5 47 5 59c0 35 -28 48 -91 49l4 31h272l-4 -31c-64 0 -98 -12 -104 -60l-41 -327c-3 -27 -5 -47 -5 -59c0 -35 28 -48 91 -49l-4 -31h-272l4 31c64 0 98 12 104 60zM592 150l34 268c3 27 5 47 5 59c0 35 -28 48 -91 49l4 31h272l-4 -31
c-64 0 -98 -12 -104 -60l-38 -308c-13 -109 -73 -168 -192 -168c-102 0 -153 49 -153 100c0 34 20 55 41 65h55c-7 -14 -11 -33 -11 -49c0 -47 21 -81 75 -81c56 0 96 34 107 125z" />
    <glyph glyph-name="ij.smcp" unicode="&#xf631;" horiz-adv-x="796" 
d="M138 91l41 327c3 27 5 47 5 59c0 35 -28 48 -91 49l4 31h272l-4 -31c-64 0 -98 -12 -104 -60l-41 -327c-3 -27 -5 -47 -5 -59c0 -35 28 -48 91 -49l-4 -31h-272l4 31c64 0 98 12 104 60zM592 150l34 268c3 27 5 47 5 59c0 35 -28 48 -91 49l4 31h272l-4 -31
c-64 0 -98 -12 -104 -60l-38 -308c-13 -109 -73 -168 -192 -168c-102 0 -153 49 -153 100c0 34 20 55 41 65h55c-7 -14 -11 -33 -11 -49c0 -47 21 -81 75 -81c56 0 96 34 107 125z" />
    <glyph glyph-name="eng.smcp" unicode="&#xe32b;" horiz-adv-x="756" 
d="M544 20l-312 428l-39 -309c-3 -27 -5 -47 -5 -59c0 -35 28 -48 91 -49l-4 -31h-245l4 31c64 0 98 12 104 60l49 390c-28 37 -40 45 -89 45l4 31h144l312 -438l35 299c3 27 5 47 5 59c0 35 -28 48 -91 49l4 31h245l-4 -31c-64 0 -98 -12 -104 -60l-66 -529
c-14 -116 -64 -187 -178 -187c-111 0 -146 58 -146 98c0 32 16 55 36 65h52c-5 -10 -8 -24 -8 -44c0 -51 28 -81 73 -81c73 0 105 42 121 150z" />
    <glyph glyph-name="eng.smcp" unicode="&#xf62b;" horiz-adv-x="756" 
d="M544 20l-312 428l-39 -309c-3 -27 -5 -47 -5 -59c0 -35 28 -48 91 -49l-4 -31h-245l4 31c64 0 98 12 104 60l49 390c-28 37 -40 45 -89 45l4 31h144l312 -438l35 299c3 27 5 47 5 59c0 35 -28 48 -91 49l4 31h245l-4 -31c-64 0 -98 -12 -104 -60l-66 -529
c-14 -116 -64 -187 -178 -187c-111 0 -146 58 -146 98c0 32 16 55 36 65h52c-5 -10 -8 -24 -8 -44c0 -51 28 -81 73 -81c73 0 105 42 121 150z" />
    <glyph glyph-name="eth.smcp" unicode="&#xe32c;" horiz-adv-x="666" 
d="M68 269l4 39h93l14 110c3 27 5 47 5 59c0 35 -28 48 -91 49l4 31h251c174 0 281 -83 281 -236c0 -202 -126 -321 -322 -321h-277l4 31c64 0 98 12 104 60l22 178h-92zM267 518l-26 -210h161l-4 -39h-162l-17 -142c-3 -24 -4 -42 -4 -48c0 -30 23 -40 64 -40h27
c153 0 239 98 239 274c0 141 -72 205 -204 205h-74z" />
    <glyph glyph-name="eth.smcp" unicode="&#xf7f0;" horiz-adv-x="666" 
d="M68 269l4 39h93l14 110c3 27 5 47 5 59c0 35 -28 48 -91 49l4 31h251c174 0 281 -83 281 -236c0 -202 -126 -321 -322 -321h-277l4 31c64 0 98 12 104 60l22 178h-92zM267 518l-26 -210h161l-4 -39h-162l-17 -142c-3 -24 -4 -42 -4 -48c0 -30 23 -40 64 -40h27
c153 0 239 98 239 274c0 141 -72 205 -204 205h-74z" />
    <glyph glyph-name="thorn.smcp" unicode="&#xe32d;" horiz-adv-x="597" 
d="M254 412l-32 -257h113c102 0 159 37 159 145c0 76 -45 112 -130 112h-110zM343 113h-125c-2 -17 -3 -21 -3 -35c0 -34 23 -44 108 -47l-5 -31h-288l4 31c64 0 98 12 104 60l41 327c3 27 5 47 5 59c0 35 -28 48 -91 49l4 31h272l-5 -30c-64 -1 -97 -12 -105 -74h111
c129 0 207 -52 207 -152c0 -119 -87 -188 -234 -188z" />
    <glyph glyph-name="thorn.smcp" unicode="&#xf7fe;" horiz-adv-x="597" 
d="M254 412l-32 -257h113c102 0 159 37 159 145c0 76 -45 112 -130 112h-110zM343 113h-125c-2 -17 -3 -21 -3 -35c0 -34 23 -44 108 -47l-5 -31h-288l4 31c64 0 98 12 104 60l41 327c3 27 5 47 5 59c0 35 -28 48 -91 49l4 31h272l-5 -30c-64 -1 -97 -12 -105 -74h111
c129 0 207 -52 207 -152c0 -119 -87 -188 -234 -188z" />
    <glyph glyph-name="q.superior" unicode="&#xe360;" horiz-adv-x="413" 
d="M168 386c26 0 55 22 92 75c45 64 75 146 84 198c-9 24 -29 38 -55 38c-94 0 -159 -122 -159 -232c0 -47 10 -79 38 -79zM329 534h-3c-11 -27 -22 -55 -51 -95c-47 -69 -90 -94 -130 -94c-57 0 -83 45 -83 108c0 143 110 275 225 275c39 0 65 -18 76 -39l47 45h25l-25 -78
c-21 -86 -73 -370 -73 -409c0 -32 21 -35 53 -39l-4 -24h-180l5 24c33 3 54 8 59 40c24 145 35 194 59 286z" />
    <glyph glyph-name="a.superior" unicode="&#xe361;" horiz-adv-x="443" 
d="M166 386c26 0 53 22 89 75c45 64 77 151 84 202c-9 22 -27 34 -52 34c-93 0 -157 -122 -158 -232c0 -47 9 -79 37 -79zM296 395c0 27 17 97 27 139h-2c-11 -27 -23 -55 -51 -95c-47 -69 -87 -94 -127 -94c-57 0 -81 45 -81 108c0 143 109 275 223 275c40 0 64 -18 76 -39
l45 45h25l-25 -78c-22 -87 -42 -208 -42 -247c0 -13 5 -19 15 -19c17 0 38 19 63 52l19 -13c-31 -53 -68 -84 -112 -84c-35 0 -53 18 -53 50z" />
    <glyph glyph-name="b.superior" unicode="&#xe362;" horiz-adv-x="424" 
d="M327 686c-63 0 -187 -181 -187 -249c0 -38 22 -59 63 -59c104 0 159 148 159 241c0 42 -8 67 -35 67zM204 919h20c-22 -146 -56 -312 -81 -396h3c49 101 126 205 213 205c56 0 75 -46 75 -96c0 -139 -105 -287 -237 -287c-67 0 -115 32 -129 74c28 144 69 351 77 428
l-51 26l2 13z" />
    <glyph glyph-name="c.superior" unicode="&#xe363;" horiz-adv-x="328" 
d="M244 693c-72 0 -113 -104 -113 -195c0 -73 19 -112 72 -112c43 0 77 33 107 74l22 -14c-26 -48 -80 -101 -147 -101c-85 0 -123 61 -123 132c0 133 85 251 206 251c56 0 85 -31 85 -62c0 -20 -13 -35 -25 -41h-30c-3 35 -16 68 -54 68z" />
    <glyph glyph-name="d.superior" unicode="&#xe364;" horiz-adv-x="449" 
d="M168 386c26 0 55 22 92 75c45 64 75 146 84 198c-9 24 -29 38 -55 38c-94 0 -159 -122 -159 -232c0 -47 10 -79 38 -79zM356 694c11 58 20 115 24 153l-51 26l2 13l108 33h22c-21 -107 -91 -470 -91 -510c0 -13 5 -19 17 -19c16 0 36 19 61 52l20 -13
c-31 -53 -69 -84 -112 -84c-35 0 -55 18 -55 50c0 27 18 97 28 139h-3c-11 -27 -22 -55 -51 -95c-47 -69 -90 -94 -130 -94c-57 0 -83 45 -83 108c0 143 110 275 225 275c34 0 58 -15 69 -34z" />
    <glyph glyph-name="e.superior" unicode="&#xe365;" horiz-adv-x="342" 
d="M324 462l23 -14c-33 -64 -87 -103 -156 -103c-88 0 -129 51 -129 137c0 119 78 246 203 246c55 0 90 -24 90 -70c0 -88 -124 -126 -226 -161v-8c0 -74 31 -103 76 -103c54 0 88 32 119 76zM250 694c-66 0 -108 -85 -119 -169c109 39 161 70 161 124c0 28 -14 45 -42 45z
" />
    <glyph glyph-name="f.superior" unicode="&#xe366;" horiz-adv-x="263" 
d="M-73 281h30c4 -45 21 -72 52 -72c43 0 73 40 88 156l44 320h-53l7 36h52l4 29c17 97 77 169 169 169c50 0 76 -22 76 -55c0 -20 -11 -37 -23 -44h-30c-3 40 -19 67 -53 67c-31 0 -52 -25 -62 -93l-13 -73h100l-6 -36h-99l-42 -272c-24 -157 -81 -236 -173 -236
c-62 0 -93 28 -93 60c0 23 12 38 25 44z" />
    <glyph glyph-name="g.superior" unicode="&#xe367;" horiz-adv-x="394" 
d="M199 458c-12 0 -24 1 -36 3c-17 -8 -28 -16 -28 -34c0 -11 7 -16 22 -21l105 -30c53 -14 90 -35 90 -90c0 -56 -56 -109 -185 -109c-109 0 -172 46 -172 98c0 45 36 78 111 93c-15 12 -21 25 -21 41c0 27 19 48 55 62c-32 14 -53 47 -53 89c0 104 76 168 165 168
c36 0 66 -12 87 -30c18 25 42 39 66 39c26 0 43 -14 43 -39c0 -17 -11 -35 -26 -38h-21c0 17 -5 30 -23 30c-11 0 -21 -2 -29 -6c11 -14 17 -34 17 -53c0 -109 -77 -173 -167 -173zM230 328l-106 30c-48 -18 -67 -38 -67 -76c0 -49 47 -73 118 -73c79 0 118 25 118 64
c0 32 -27 42 -63 55zM209 488c48 0 89 51 89 134c0 44 -18 75 -57 75c-47 0 -88 -53 -88 -135c0 -44 18 -74 56 -74z" />
    <glyph glyph-name="h.superior" unicode="&#xe368;" horiz-adv-x="456" 
d="M144 462c53 123 133 266 225 266c35 0 50 -19 50 -55c0 -68 -51 -218 -51 -264c0 -13 5 -19 16 -19c16 0 37 19 62 52l20 -13c-31 -53 -69 -84 -112 -84c-36 0 -56 18 -56 50c0 46 53 211 53 266c0 11 -3 22 -15 22c-49 0 -148 -148 -203 -331h-66c33 171 76 396 86 495
l-51 26l3 13l107 33h21c-22 -142 -62 -357 -92 -457h3z" />
    <glyph glyph-name="i.superior" unicode="&#xe369;" horiz-adv-x="267" 
d="M202 804c-26 0 -46 19 -46 42c0 28 22 50 51 50c26 0 45 -20 45 -43c0 -27 -22 -49 -50 -49zM108 395c0 65 46 207 46 270c0 9 -4 16 -16 16c-21 0 -46 -29 -66 -59l-22 13c37 71 83 93 120 93c38 0 52 -20 52 -49c0 -63 -46 -210 -46 -270c0 -13 7 -19 17 -19
c17 0 36 19 61 52l20 -13c-31 -53 -69 -84 -112 -84c-36 0 -54 18 -54 50z" />
    <glyph glyph-name="j.superior" unicode="&#xe36a;" horiz-adv-x="225" 
d="M198 804c-27 0 -45 19 -45 42c0 28 20 50 49 50c26 0 45 -20 45 -43c0 -27 -21 -49 -49 -49zM-3 279c2 -45 13 -74 39 -74c31 0 47 25 68 160l41 246c4 22 6 39 6 50c0 13 -5 20 -16 20c-21 0 -47 -29 -67 -59l-22 13c36 71 83 93 120 93c38 0 52 -18 52 -49
c0 -15 -1 -30 -5 -52l-29 -182c-31 -204 -79 -268 -159 -268c-54 0 -84 27 -84 59c0 22 13 37 27 43h29z" />
    <glyph glyph-name="k.superior" unicode="&#xe36b;" horiz-adv-x="424" 
d="M173 581l-13 -66c111 24 180 68 180 130c0 27 -12 39 -33 39c-37 0 -71 -26 -134 -103zM211 919h21c-12 -92 -32 -199 -51 -300c49 75 106 109 157 109c48 0 72 -26 72 -67c0 -58 -52 -104 -125 -136l39 -92c16 -34 23 -44 38 -44c18 0 39 18 63 53l22 -13
c-33 -53 -69 -84 -113 -84c-32 0 -51 20 -67 61l-39 101c-23 -6 -48 -13 -72 -18l-26 -137h-63c35 181 75 383 86 495l-52 26l3 13z" />
    <glyph glyph-name="l.superior" unicode="&#xe36c;" horiz-adv-x="225" 
d="M151 847l-51 26l2 13l106 33h20c-18 -159 -86 -440 -86 -510c0 -13 5 -19 15 -19c17 0 37 19 62 52l20 -13c-31 -53 -68 -84 -112 -84c-35 0 -54 18 -54 51c0 70 69 356 78 451z" />
    <glyph glyph-name="m.superior" unicode="&#xe36d;" 
d="M612 409c0 -13 6 -19 16 -19c16 0 37 19 61 52l21 -13c-32 -53 -68 -84 -111 -84c-36 0 -55 18 -55 50c0 60 50 200 50 264c0 15 -2 24 -14 24c-48 0 -144 -163 -192 -331h-65c24 127 51 250 51 305c0 15 -3 26 -18 26c-45 0 -141 -159 -188 -331h-64l50 288
c2 9 3 21 3 25c0 9 -4 16 -15 16c-21 0 -45 -29 -66 -59l-22 13c37 71 82 93 121 93c37 0 51 -20 51 -49c0 -7 -2 -24 -10 -54l-41 -165h2c46 109 118 268 214 268c34 0 48 -19 48 -50c0 -24 -3 -58 -13 -95l-30 -123h3c45 109 120 268 215 268c33 0 49 -21 49 -55
c0 -75 -51 -210 -51 -264z" />
    <glyph glyph-name="o.superior" unicode="&#xe36e;" horiz-adv-x="375" 
d="M198 377c72 0 115 105 115 207c0 70 -18 112 -65 112c-72 0 -116 -106 -116 -208c0 -70 19 -111 66 -111zM188 345c-87 0 -126 60 -126 138c0 119 74 245 196 245c87 0 125 -60 125 -138c0 -119 -74 -245 -195 -245z" />
    <glyph glyph-name="p.superior" unicode="&#xe36f;" horiz-adv-x="472" 
d="M373 685c-70 0 -184 -186 -196 -279c14 -22 40 -30 71 -30c105 0 160 150 160 243c0 42 -8 66 -35 66zM170 369c-9 -56 -18 -107 -18 -122c0 -32 20 -35 52 -39l-4 -24h-180l5 24c33 3 54 8 59 40l71 392c2 8 3 21 3 25c0 9 -4 16 -16 16c-21 0 -46 -29 -66 -59l-21 13
c35 71 82 93 120 93c37 0 50 -20 50 -49c0 -7 -1 -24 -9 -54l-26 -108h3c48 103 121 211 212 211c56 0 74 -46 74 -96c0 -153 -111 -287 -232 -287c-34 0 -62 11 -77 24z" />
    <glyph glyph-name="r.superior" unicode="&#xe371;" horiz-adv-x="369" 
d="M217 625l-39 -168h3c32 91 75 196 116 240c20 23 40 31 63 31c27 0 45 -14 45 -44c0 -21 -14 -37 -28 -47h-27c0 16 -7 27 -21 27c-38 0 -98 -112 -159 -312h-65l51 288c2 9 3 21 3 25c0 9 -4 16 -15 16c-21 0 -46 -29 -66 -59l-23 13c38 71 83 93 121 93s51 -20 51 -49
c0 -7 -3 -24 -10 -54z" />
    <glyph glyph-name="s.superior" unicode="&#xe372;" horiz-adv-x="301" 
d="M177 377c31 0 51 19 51 46c0 75 -130 125 -130 210c0 55 42 95 119 95c60 0 96 -27 96 -64c0 -14 -10 -27 -24 -33h-23c-7 34 -33 63 -72 63c-27 0 -43 -16 -43 -40c0 -63 135 -127 135 -209c0 -55 -48 -100 -129 -100c-66 0 -109 31 -109 69c0 18 12 33 28 40h21
c10 -48 36 -77 80 -77z" />
    <glyph glyph-name="t.superior" unicode="&#xe373;" horiz-adv-x="291" 
d="M203 685l-42 -236c-4 -21 -5 -31 -5 -40c0 -12 5 -21 19 -21c26 0 65 31 96 74l22 -16c-37 -58 -92 -101 -146 -101c-37 0 -57 16 -57 54c0 13 2 29 5 48l40 238h-51l5 24c45 19 79 53 112 92h21l-14 -80h98l-7 -36h-96z" />
    <glyph glyph-name="u.superior" unicode="&#xe374;" horiz-adv-x="476" 
d="M393 409c0 -13 5 -19 16 -19c16 0 38 19 62 52l21 -13c-32 -53 -68 -84 -113 -84c-35 0 -54 18 -54 50c0 35 25 121 50 219h-3c-53 -126 -127 -269 -213 -269c-38 0 -57 23 -57 62c0 70 52 206 52 258c0 9 -3 16 -15 16c-21 0 -46 -29 -66 -59l-22 13c36 71 82 93 121 93
c37 0 52 -20 52 -49c0 -56 -54 -199 -54 -259c0 -21 6 -29 19 -29c56 0 150 196 195 330h64c-25 -125 -55 -279 -55 -312z" />
    <glyph glyph-name="v.superior" unicode="&#xe375;" horiz-adv-x="395" 
d="M206 345h-27c-15 127 -32 240 -45 289c-7 25 -12 46 -27 46c-20 0 -36 -23 -56 -53l-22 13c36 71 73 88 106 88c40 0 51 -29 60 -61c16 -62 31 -184 35 -259c65 73 120 155 120 220c0 35 -18 52 -57 56v19c12 16 33 25 52 25c48 0 63 -37 63 -69
c0 -88 -110 -221 -202 -314z" />
    <glyph glyph-name="w.superior" unicode="&#xe376;" horiz-adv-x="592" 
d="M410 345h-27c-8 90 -20 191 -32 240h-3c-10 -33 -46 -129 -144 -240h-29c-15 127 -29 240 -41 289c-7 25 -12 46 -27 46c-20 0 -36 -23 -56 -53l-22 13c36 71 72 88 107 88c39 0 51 -29 59 -61c15 -62 28 -182 31 -258c49 65 107 174 107 238c0 22 -15 55 -29 70
c9 6 22 11 39 11c28 0 42 -12 54 -60c13 -55 34 -185 37 -261c60 67 114 155 114 221c0 35 -19 52 -56 56v19c10 16 31 25 52 25c46 0 62 -37 62 -69c0 -88 -103 -221 -196 -314z" />
    <glyph glyph-name="y.superior" unicode="&#xe378;" horiz-adv-x="406" 
d="M411 643c0 -75 -28 -163 -104 -283c-95 -151 -171 -183 -249 -183c-48 0 -88 21 -88 63c0 18 10 36 27 42h24c4 -40 24 -65 64 -65c53 0 87 22 131 72c-18 144 -56 295 -73 345c-10 33 -17 45 -31 45c-21 0 -37 -22 -56 -52l-22 13c36 71 72 88 106 88
c41 0 53 -29 64 -60c27 -86 51 -223 61 -327c58 98 96 177 96 253c0 53 -24 89 -70 89v20c10 15 28 25 52 25c47 0 68 -35 68 -85z" />
    <glyph glyph-name="z.superior" unicode="&#xe379;" horiz-adv-x="390" 
d="M150 612l-16 -21c-20 9 -37 27 -37 55c0 52 40 82 93 82c58 0 96 -34 180 -44v34c4 7 11 10 18 10c17 0 24 -13 24 -29c0 -31 -17 -55 -65 -92l-230 -170c11 2 26 6 41 6c65 0 101 -47 156 -47c20 0 36 11 36 32c0 16 -7 27 -20 36l18 19c20 -11 34 -32 34 -60
c0 -48 -36 -78 -92 -78c-79 0 -121 53 -180 53c-12 0 -20 -3 -26 -6v-37c-5 -7 -11 -10 -20 -10c-13 0 -22 12 -22 30c0 35 18 60 64 96l223 168c-58 2 -107 34 -158 34c-22 0 -39 -10 -39 -33c0 -10 7 -21 18 -28z" />
    <glyph glyph-name="ampersand.smcp" unicode="&#xe401;" horiz-adv-x="704" 
d="M636 308c23 0 50 4 50 34s-20 39 -84 41v11c0 26 24 43 54 43c37 0 65 -15 65 -61c0 -62 -34 -122 -107 -122c-26 0 -49 9 -74 23c14 -17 23 -40 23 -64c0 -125 -86 -223 -279 -223c-168 0 -255 75 -255 181c0 94 76 148 158 169c-37 16 -62 53 -62 98
c0 76 69 130 180 130c84 0 139 -31 139 -85c0 -27 -15 -46 -37 -54h-37c2 11 3 23 3 33c0 43 -23 73 -81 73c-54 0 -98 -34 -98 -87c0 -41 22 -70 76 -78l-8 -26c-95 -21 -155 -69 -155 -158c0 -94 75 -152 194 -152c158 0 223 83 223 176c0 71 -36 115 -115 115
c-38 0 -68 -13 -68 -43c0 -20 10 -36 72 -37v-14c0 -23 -19 -38 -47 -38c-38 0 -59 24 -59 67c0 46 32 122 125 122c85 0 139 -74 204 -74z" />
    <glyph glyph-name="ampersand.smcp" unicode="&#xf726;" horiz-adv-x="704" 
d="M636 308c23 0 50 4 50 34s-20 39 -84 41v11c0 26 24 43 54 43c37 0 65 -15 65 -61c0 -62 -34 -122 -107 -122c-26 0 -49 9 -74 23c14 -17 23 -40 23 -64c0 -125 -86 -223 -279 -223c-168 0 -255 75 -255 181c0 94 76 148 158 169c-37 16 -62 53 -62 98
c0 76 69 130 180 130c84 0 139 -31 139 -85c0 -27 -15 -46 -37 -54h-37c2 11 3 23 3 33c0 43 -23 73 -81 73c-54 0 -98 -34 -98 -87c0 -41 22 -70 76 -78l-8 -26c-95 -21 -155 -69 -155 -158c0 -94 75 -152 194 -152c158 0 223 83 223 176c0 71 -36 115 -115 115
c-38 0 -68 -13 -68 -43c0 -20 10 -36 72 -37v-14c0 -23 -19 -38 -47 -38c-38 0 -59 24 -59 67c0 46 32 122 125 122c85 0 139 -74 204 -74z" />
    <glyph glyph-name="invertedbreve" unicode="&#xe411;" horiz-adv-x="600" 
d="M323 788c100 0 153 -55 153 -154c0 -14 -1 -29 -3 -45h-37c0 109 -53 142 -120 142s-131 -33 -155 -142h-37c16 126 75 199 199 199z" />
    <glyph glyph-name="doublegrave" unicode="&#xe412;" horiz-adv-x="600" 
d="M312 800h89l40 -208h-33zM159 800h88l41 -208h-34z" />
    <glyph glyph-name="caronSlovak" unicode="&#xe413;" horiz-adv-x="600" 
d="M282 800h93l-123 -208h-31z" />
    <glyph glyph-name="commaaccent" unicode="&#xe414;" horiz-adv-x="600" 
d="M322 -164h-31c-28 7 -44 25 -44 52c0 32 23 56 59 56c46 0 67 -33 67 -72c0 -59 -50 -119 -145 -122l6 34c49 5 71 19 88 52z" />
    <glyph glyph-name="commaaccent" unicode="&#xf6c3;" horiz-adv-x="600" 
d="M322 -164h-31c-28 7 -44 25 -44 52c0 32 23 56 59 56c46 0 67 -33 67 -72c0 -59 -50 -119 -145 -122l6 34c49 5 71 19 88 52z" />
    <glyph glyph-name="dotbelow" unicode="&#xe415;" horiz-adv-x="600" 
d="M297 -166c-32 0 -56 23 -56 54c0 33 25 63 60 63c32 0 56 -23 56 -54c0 -33 -25 -63 -60 -63z" />
    <glyph glyph-name="altcedilla" unicode="&#xe416;" horiz-adv-x="600" 
d="M243 -85l25 47c82 -7 140 -42 140 -107c0 -71 -52 -105 -112 -105c-42 0 -81 18 -103 40l19 22c23 -14 50 -24 80 -24c29 0 60 14 60 53c0 51 -60 70 -109 74z" />
    <glyph glyph-name="exclamdown.cap" unicode="&#xe441;" horiz-adv-x="315" 
d="M84 0l5 46l56 292c16 81 36 182 44 245h38c-6 -63 -11 -162 -16 -245l-16 -292l-5 -46h-106zM289 727c0 -35 -28 -64 -63 -64s-64 29 -64 64s29 63 64 63s63 -28 63 -63z" />
    <glyph glyph-name="exclam.smcp" unicode="&#xe442;" horiz-adv-x="315" 
d="M256 557l-4 -30l-45 -191c-15 -64 -27 -122 -31 -155h-37c4 33 6 91 7 155l1 191l4 30h105zM79 53c0 35 28 64 63 64s64 -29 64 -64s-29 -63 -64 -63s-63 28 -63 63z" />
    <glyph glyph-name="exclam.smcp" unicode="&#xf721;" horiz-adv-x="315" 
d="M256 557l-4 -30l-45 -191c-15 -64 -27 -122 -31 -155h-37c4 33 6 91 7 155l1 191l4 30h105zM79 53c0 35 28 64 63 64s64 -29 64 -64s-29 -63 -64 -63s-63 28 -63 63z" />
    <glyph glyph-name="exclamdown.smcp" unicode="&#xe443;" horiz-adv-x="315" 
d="M79 0l4 30l45 191c15 64 27 122 31 155h37c-4 -33 -6 -91 -7 -155l-1 -191l-4 -30h-105zM256 504c0 -35 -28 -64 -63 -64s-64 29 -64 64s29 63 64 63s63 -28 63 -63z" />
    <glyph glyph-name="exclamdown.smcp" unicode="&#xf7a1;" horiz-adv-x="315" 
d="M79 0l4 30l45 191c15 64 27 122 31 155h37c-4 -33 -6 -91 -7 -155l-1 -191l-4 -30h-105zM256 504c0 -35 -28 -64 -63 -64s-64 29 -64 64s29 63 64 63s63 -28 63 -63z" />
    <glyph glyph-name="questiondown.cap" unicode="&#xe444;" horiz-adv-x="513" 
d="M256 317c-82 -47 -124 -83 -124 -164c0 -69 46 -120 121 -120c84 0 123 48 123 113c0 26 -3 36 -5 46h69c12 -13 20 -33 20 -56c0 -90 -96 -146 -207 -146c-131 0 -203 73 -203 168c0 111 63 157 159 212c91 52 125 93 125 175v34h26c11 -20 25 -50 25 -95
c0 -76 -52 -123 -129 -167zM423 727c0 -35 -28 -64 -63 -64s-64 29 -64 64s29 63 64 63s63 -28 63 -63z" />
    <glyph glyph-name="question.smcp" unicode="&#xe445;" horiz-adv-x="439" 
d="M407 445c0 -71 -41 -102 -115 -143c-50 -27 -80 -44 -80 -99v-19h-27c-10 15 -19 38 -19 61c0 56 39 83 90 112c44 26 71 46 71 95c0 43 -26 79 -79 79c-51 0 -86 -31 -86 -84c0 -17 3 -30 4 -36h-65c-10 13 -17 28 -17 48c0 63 74 108 167 108c99 0 156 -46 156 -122z
M121 53c0 35 28 64 63 64s64 -29 64 -64s-29 -63 -64 -63s-63 28 -63 63z" />
    <glyph glyph-name="question.smcp" unicode="&#xf73f;" horiz-adv-x="439" 
d="M407 445c0 -71 -41 -102 -115 -143c-50 -27 -80 -44 -80 -99v-19h-27c-10 15 -19 38 -19 61c0 56 39 83 90 112c44 26 71 46 71 95c0 43 -26 79 -79 79c-51 0 -86 -31 -86 -84c0 -17 3 -30 4 -36h-65c-10 13 -17 28 -17 48c0 63 74 108 167 108c99 0 156 -46 156 -122z
M121 53c0 35 28 64 63 64s64 -29 64 -64s-29 -63 -64 -63s-63 28 -63 63z" />
    <glyph glyph-name="questiondown.smcp" unicode="&#xe446;" horiz-adv-x="439" 
d="M32 112c0 71 41 102 115 143c50 27 80 44 80 99v19h27c10 -15 19 -38 19 -61c0 -56 -39 -83 -90 -112c-44 -26 -71 -46 -71 -95c0 -43 26 -79 79 -79c51 0 86 31 86 84c0 17 -3 30 -4 36h65c10 -13 17 -28 17 -48c0 -63 -74 -108 -167 -108c-99 0 -156 46 -156 122z
M318 504c0 -35 -28 -64 -63 -64s-64 29 -64 64s29 63 64 63s63 -28 63 -63z" />
    <glyph glyph-name="questiondown.smcp" unicode="&#xf7bf;" horiz-adv-x="439" 
d="M32 112c0 71 41 102 115 143c50 27 80 44 80 99v19h27c10 -15 19 -38 19 -61c0 -56 -39 -83 -90 -112c-44 -26 -71 -46 -71 -95c0 -43 26 -79 79 -79c51 0 86 31 86 84c0 17 -3 30 -4 36h65c10 -13 17 -28 17 -48c0 -63 -74 -108 -167 -108c-99 0 -156 46 -156 122z
M318 504c0 -35 -28 -64 -63 -64s-64 29 -64 64s29 63 64 63s63 -28 63 -63z" />
    <glyph glyph-name="guilsinglleft.cap" unicode="&#xe451;" horiz-adv-x="307" 
d="M68 383l1 10l192 190h37l-152 -195l104 -195h-37z" />
    <glyph glyph-name="guilsinglright.cap" unicode="&#xe452;" horiz-adv-x="307" 
d="M284 393l-1 -10l-193 -190h-37l152 195l-104 195h37z" />
    <glyph glyph-name="guillemotleft.cap" unicode="&#xe453;" horiz-adv-x="464" 
d="M68 383l1 10l192 190h37l-152 -195l104 -195h-37zM226 383l1 10l191 190h37l-152 -195l104 -195h-37z" />
    <glyph glyph-name="guillemotright.cap" unicode="&#xe454;" horiz-adv-x="464" 
d="M284 393l-1 -10l-193 -190h-37l152 195l-104 195h37zM441 393l-1 -10l-193 -190h-36l152 195l-104 195h36z" />
    <glyph glyph-name="slash.cap" unicode="&#xe461;" horiz-adv-x="378" 
d="M449 861l-408 -951h-56l407 951h57z" />
    <glyph glyph-name="backslash.cap" unicode="&#xe462;" horiz-adv-x="378" 
d="M280 -90l-173 951h53l173 -951h-53z" />
    <glyph glyph-name="bar.cap" unicode="&#xe463;" horiz-adv-x="257" 
d="M238 861l-116 -951h-52l116 951h52z" />
    <glyph glyph-name="doublebar.cap" unicode="&#xe464;" horiz-adv-x="379" 
d="M238 861l-116 -951h-52l116 951h52zM360 861l-116 -951h-52l116 951h52z" />
    <glyph glyph-name="brokenbar.cap" unicode="&#xe465;" horiz-adv-x="257" 
d="M172 316l-50 -406h-52l50 406h52zM238 861l-49 -406h-52l49 406h52z" />
    <glyph glyph-name="bullet.cap" unicode="&#xe466;" horiz-adv-x="385" 
d="M89 387c0 57 46 104 103 104s104 -47 104 -104s-47 -103 -104 -103s-103 46 -103 103z" />
    <glyph glyph-name="slash.smcp" unicode="&#xe467;" horiz-adv-x="378" 
d="M402 625l-350 -701h-60l351 701h59z" />
    <glyph glyph-name="backslash.smcp" unicode="&#xe468;" horiz-adv-x="378" 
d="M270 -76l-179 701h55l178 -701h-54z" />
    <glyph glyph-name="bar.smcp" unicode="&#xe469;" horiz-adv-x="257" 
d="M211 625l-86 -701h-55l86 701h55z" />
    <glyph glyph-name="doublebar.smcp" unicode="&#xe46a;" horiz-adv-x="388" 
d="M211 625l-86 -701h-55l86 701h55zM342 625l-86 -701h-55l86 701h55z" />
    <glyph glyph-name="brokenbar.smcp" unicode="&#xe46b;" horiz-adv-x="257" 
d="M211 624l-40 -324h-55l40 324h55zM165 248l-40 -324h-55l40 324h55z" />
    <glyph glyph-name="bullet.smcp" unicode="&#xe46c;" horiz-adv-x="385" 
d="M89 280c0 57 46 104 103 104s104 -47 104 -104s-47 -103 -104 -103s-103 46 -103 103z" />
    <glyph glyph-name="onethirdemdash" unicode="&#xe471;" horiz-adv-x="333" 
d="M295 309h-233l8 58h233z" />
    <glyph glyph-name="threequarteremdash" unicode="&#xe472;" horiz-adv-x="750" 
d="M712 309h-650l8 58h650z" />
    <glyph glyph-name="periodcentered.cap" unicode="&#xe481;" horiz-adv-x="318" 
d="M123 391c0 35 28 64 63 64s64 -29 64 -64s-29 -63 -64 -63s-63 28 -63 63z" />
    <glyph glyph-name="hyphen.cap" unicode="&#xe482;" horiz-adv-x="348" 
d="M305 362h-248l8 58h248z" />
    <glyph glyph-name="onethirdemdash.cap" unicode="&#xe483;" horiz-adv-x="333" 
d="M290 362h-233l8 58h233z" />
    <glyph glyph-name="endash.cap" unicode="&#xe484;" horiz-adv-x="500" 
d="M457 362h-400l8 58h400z" />
    <glyph glyph-name="threequarteremdash.cap" unicode="&#xe485;" horiz-adv-x="750" 
d="M707 362h-650l8 58h650z" />
    <glyph glyph-name="emdash.cap" unicode="&#xe486;" horiz-adv-x="1000" 
d="M957 362h-900l8 58h900z" />
    <glyph glyph-name="figuredash.cap" unicode="&#xe487;" 
d="M657 362h-600l8 58h600z" />
    <glyph glyph-name="uni2015.cap" unicode="&#xe488;" horiz-adv-x="1400" 
d="M1357 362h-1300l8 58h1300z" />
    <glyph glyph-name="anglebracketright.smcp" unicode="&#xe490;" horiz-adv-x="383" 
d="M179 680l126 -398l-221 -398h-54l217 397l-120 399h52z" />
    <glyph glyph-name="parenleft.cap" unicode="&#xe491;" horiz-adv-x="395" 
d="M386 870l33 -27c-153 -129 -264 -288 -264 -547c0 -158 54 -254 152 -358l-38 -28c-111 109 -165 230 -165 386c0 238 98 425 282 574z" />
    <glyph glyph-name="parenright.cap" unicode="&#xe492;" horiz-adv-x="395" 
d="M48 -90l-33 27c153 129 264 288 264 547c0 158 -54 254 -152 358l38 28c111 -109 165 -230 165 -386c0 -238 -98 -425 -282 -574z" />
    <glyph glyph-name="bracketleft.cap" unicode="&#xe493;" horiz-adv-x="333" 
d="M224 828l-106 -876h120l-6 -42h-169l117 960h169l-5 -42h-120z" />
    <glyph glyph-name="bracketright.cap" unicode="&#xe494;" horiz-adv-x="333" 
d="M152 -48l106 876h-120l5 42h169l-117 -960h-169l6 42h120z" />
    <glyph glyph-name="braceleft.cap" unicode="&#xe495;" horiz-adv-x="410" 
d="M146 390c64 -20 91 -67 91 -121c0 -66 -50 -135 -50 -222c0 -62 36 -95 139 -95l-5 -42c-142 0 -183 60 -183 134c0 89 48 158 48 225c0 54 -29 99 -131 99l5 44c132 0 162 75 162 150c0 32 -6 67 -6 104c0 101 36 204 222 204l-5 -42c-132 0 -168 -55 -168 -158
c0 -40 7 -76 7 -111c0 -74 -38 -144 -126 -169z" />
    <glyph glyph-name="braceright.cap" unicode="&#xe496;" horiz-adv-x="410" 
d="M296 390c-64 20 -91 67 -91 121c0 66 50 135 50 222c0 62 -36 95 -139 95l5 42c142 0 183 -60 183 -134c0 -89 -48 -158 -48 -225c0 -54 29 -99 131 -99l-5 -44c-132 0 -162 -75 -162 -150c0 -32 6 -67 6 -104c0 -101 -36 -204 -222 -204l5 42c132 0 168 55 168 158
c0 40 -7 76 -7 111c0 74 38 144 126 169z" />
    <glyph glyph-name="anglebracketleft.cap" unicode="&#xe497;" horiz-adv-x="373" 
d="M222 -81l-121 476l235 476h50l-234 -480l117 -472h-47z" />
    <glyph glyph-name="anglebracketright.cap" unicode="&#xe498;" horiz-adv-x="373" 
d="M204 871l121 -476l-235 -476h-50l234 480l-117 472h47z" />
    <glyph glyph-name="parenleft.smcp" unicode="&#xe499;" horiz-adv-x="395" 
d="M94 220c0 218 115 360 283 472l25 -37c-137 -100 -253 -215 -253 -432c0 -148 70 -235 160 -316l-33 -35c-117 98 -182 209 -182 348z" />
    <glyph glyph-name="parenleft.smcp" unicode="&#xf618;" horiz-adv-x="395" 
d="M94 220c0 218 115 360 283 472l25 -37c-137 -100 -253 -215 -253 -432c0 -148 70 -235 160 -316l-33 -35c-117 98 -182 209 -182 348z" />
    <glyph glyph-name="parenright.smcp" unicode="&#xe49a;" horiz-adv-x="395" 
d="M324 344c0 -218 -115 -360 -283 -472l-25 37c137 100 253 215 253 432c0 148 -70 235 -160 316l33 35c117 -98 182 -209 182 -348z" />
    <glyph glyph-name="parenright.smcp" unicode="&#xf619;" horiz-adv-x="395" 
d="M324 344c0 -218 -115 -360 -283 -472l-25 37c137 100 253 215 253 432c0 148 -70 235 -160 316l33 35c117 -98 182 -209 182 -348z" />
    <glyph glyph-name="bracketleft.smcp" unicode="&#xe49b;" horiz-adv-x="323" 
d="M220 639l-86 -714h114l-6 -41h-163l96 796h164l-5 -41h-114z" />
    <glyph glyph-name="bracketleft.smcp" unicode="&#xf60e;" horiz-adv-x="323" 
d="M220 639l-86 -714h114l-6 -41h-163l96 796h164l-5 -41h-114z" />
    <glyph glyph-name="bracketright.smcp" unicode="&#xe49c;" horiz-adv-x="323" 
d="M136 -75l86 714h-114l6 41h163l-96 -796h-164l5 41h114z" />
    <glyph glyph-name="bracketright.smcp" unicode="&#xf60f;" horiz-adv-x="323" 
d="M136 -75l86 714h-114l6 41h163l-96 -796h-164l5 41h114z" />
    <glyph glyph-name="braceleft.smcp" unicode="&#xe49d;" horiz-adv-x="402" 
d="M63 261l5 42c124 0 156 54 156 113c0 33 -11 68 -11 107c0 95 42 157 206 157l-5 -42c-94 0 -146 -25 -146 -109c0 -41 13 -79 13 -111c0 -55 -45 -123 -128 -136c67 -11 98 -62 98 -110c0 -44 -48 -107 -48 -174c0 -55 45 -72 123 -72l-5 -42c-136 0 -174 41 -174 107
c0 73 48 132 48 187c0 46 -28 83 -132 83z" />
    <glyph glyph-name="braceleft.smcp" unicode="&#xf60c;" horiz-adv-x="402" 
d="M63 261l5 42c124 0 156 54 156 113c0 33 -11 68 -11 107c0 95 42 157 206 157l-5 -42c-94 0 -146 -25 -146 -109c0 -41 13 -79 13 -111c0 -55 -45 -123 -128 -136c67 -11 98 -62 98 -110c0 -44 -48 -107 -48 -174c0 -55 45 -72 123 -72l-5 -42c-136 0 -174 41 -174 107
c0 73 48 132 48 187c0 46 -28 83 -132 83z" />
    <glyph glyph-name="braceright.smcp" unicode="&#xe49e;" horiz-adv-x="402" 
d="M366 303l-5 -42c-124 0 -156 -54 -156 -113c0 -33 11 -68 11 -107c0 -95 -42 -157 -206 -157l5 42c94 0 146 25 146 109c0 41 -13 79 -13 111c0 55 45 123 128 136c-67 11 -98 62 -98 110c0 44 48 107 48 174c0 55 -45 72 -123 72l5 42c136 0 174 -41 174 -107
c0 -73 -48 -132 -48 -187c0 -46 28 -83 132 -83z" />
    <glyph glyph-name="braceright.smcp" unicode="&#xf60d;" horiz-adv-x="402" 
d="M366 303l-5 -42c-124 0 -156 -54 -156 -113c0 -33 11 -68 11 -107c0 -95 -42 -157 -206 -157l5 42c94 0 146 25 146 109c0 41 -13 79 -13 111c0 55 45 123 128 136c-67 11 -98 62 -98 110c0 44 48 107 48 174c0 55 -45 72 -123 72l5 42c136 0 174 -41 174 -107
c0 -73 -48 -132 -48 -187c0 -46 28 -83 132 -83z" />
    <glyph glyph-name="anglebracketleft.smcp" unicode="&#xe49f;" horiz-adv-x="383" 
d="M239 -116l-126 398l222 398h54l-217 -397l120 -399h-53z" />
    <glyph glyph-name="lowline" unicode="&#xe511;" horiz-adv-x="300" 
d="M250 0h-260l7 53h260z" />
    <glyph glyph-name="underscoremonospace" unicode="&#xe512;" 
d="M634 -200h-640l8 55h640z" />
    <glyph glyph-name="underscoremonospace" unicode="&#xff3f;" 
d="M634 -200h-640l8 55h640z" />
    <glyph glyph-name="at.cap" unicode="&#xe513;" horiz-adv-x="1108" 
d="M480 191c37 0 72 22 130 98c66 86 113 211 115 274c-13 33 -37 47 -73 47c-129 0 -222 -152 -223 -313c0 -60 11 -106 51 -106zM768 185c135 0 239 129 239 311c0 226 -128 379 -381 379c-269 0 -461 -229 -461 -510c0 -258 172 -439 419 -439c132 0 237 27 343 95
l16 -32c-79 -64 -220 -110 -359 -110c-299 0 -494 198 -494 486c0 302 234 554 536 554c277 0 452 -168 452 -423c0 -209 -132 -350 -328 -350c-54 0 -82 21 -82 57c0 29 28 136 39 190h-4c-17 -36 -23 -66 -61 -117c-75 -101 -123 -130 -181 -130c-77 0 -108 63 -108 151
c0 184 135 356 299 356c57 0 88 -29 97 -53l66 60h25l-34 -102c-29 -116 -61 -295 -61 -345c0 -18 7 -28 23 -28z" />
    <glyph glyph-name="Euro.LP" unicode="&#xe521;" horiz-adv-x="760" 
d="M81 432l5 42h97c44 165 157 316 346 316c79 0 151 -21 211 -72l-15 -158h-25c-19 129 -87 184 -175 184c-142 0 -223 -122 -254 -270h323l-23 -42h-308c-4 -27 -7 -54 -8 -81h282l-24 -42h-258c2 -175 81 -274 205 -274c107 0 175 60 228 196h29l-37 -180
c-58 -43 -152 -61 -227 -61c-167 0 -288 116 -290 319h-98l6 42h93c1 27 5 54 10 81h-93z" />
    <glyph glyph-name="dollar.LP" unicode="&#xe522;" horiz-adv-x="616" 
d="M289 -10c-10 0 -20 1 -29 1l-24 -116h-41l24 120c-69 11 -129 38 -168 72l17 183h25c18 -123 66 -184 137 -205l68 332l-8 5c-111 62 -159 118 -159 210c0 118 90 198 230 198c7 0 14 0 22 -1l24 116h41l-25 -120c58 -8 111 -28 153 -58l-20 -159h-23
c-13 89 -54 147 -120 167l-61 -296c120 -66 195 -128 195 -240c0 -138 -112 -209 -258 -209zM469 185c0 79 -49 121 -134 171l-66 -319c9 -1 18 -1 27 -1c105 0 173 44 173 149zM204 607c0 -70 37 -105 111 -148l58 284c-6 0 -13 1 -20 1c-94 0 -149 -54 -149 -137z" />
    <glyph glyph-name="cent.LP" unicode="&#xe523;" horiz-adv-x="534" 
d="M173 -6l30 102c-94 23 -133 105 -133 201c0 182 103 353 299 368l36 121h43l-35 -121c84 -5 121 -51 121 -93c0 -28 -19 -47 -37 -56h-39c-3 45 -23 81 -61 95l-137 -469c7 -1 14 -1 22 -1c75 0 140 53 186 120l31 -19c-43 -78 -126 -153 -237 -153h-17l-28 -95h-44z
M154 313c0 -83 20 -136 66 -159l135 463c-138 -4 -201 -162 -201 -304z" />
    <glyph glyph-name="sterling.LP" unicode="&#xe524;" horiz-adv-x="768" 
d="M396 560l-38 -140h217l-7 -42h-221l-58 -219c80 -32 187 -97 271 -97c62 0 101 31 101 84c0 27 -12 50 -35 68l19 22c42 -21 73 -57 73 -112c0 -92 -63 -134 -159 -134c-111 0 -213 80 -283 122c-31 -74 -80 -122 -162 -122c-70 0 -106 41 -106 100c0 70 56 114 130 114
c25 0 58 -7 84 -21l44 195h-124l6 42h127l35 154c32 140 109 216 246 216c91 0 151 -45 151 -108c0 -25 -15 -47 -35 -54h-58c3 10 5 20 5 36c0 41 -20 86 -82 86c-77 0 -113 -77 -141 -190zM113 36c43 0 79 31 98 106c-18 10 -44 18 -73 18c-50 0 -78 -27 -78 -70
c0 -32 21 -54 53 -54z" />
    <glyph glyph-name="florin.LP" unicode="&#xe525;" horiz-adv-x="521" 
d="M48 -216l136 611h-99l5 38h103l31 140c34 150 103 217 217 217c68 0 116 -30 116 -81c0 -24 -10 -46 -29 -56h-59c2 13 4 26 4 43c0 28 -17 49 -52 49c-61 0 -92 -47 -118 -163l-33 -149h154l-6 -38h-157l-136 -611h-77z" />
    <glyph glyph-name="yen.LP" unicode="&#xe526;" horiz-adv-x="733" 
d="M121 373l5 41h169l-143 292c-13 26 -30 39 -65 41l4 33h278l-4 -33c-87 0 -113 -13 -113 -43c0 -16 5 -30 13 -45l132 -287l203 282c11 16 23 30 23 50c0 29 -19 42 -100 43l4 33h252l-4 -33c-35 -4 -52 -11 -75 -41l-218 -292h176l-5 -41h-202l-33 -45l-3 -19h230
l-4 -40h-230l-16 -138c-2 -21 -2 -31 -2 -36c0 -53 43 -59 112 -62l-4 -33h-324l4 33c74 3 125 13 133 83l18 153h-223l4 40h224l2 16l-24 48h-194z" />
    <glyph glyph-name="numbersign.LP" unicode="&#xe533;" horiz-adv-x="677" 
d="M622 780l-79 -235h113l-5 -42h-122l-73 -220h123l-5 -42h-132l-80 -241h-46l80 241h-183l-80 -241h-46l80 241h-108l5 42h117l74 220h-119l5 42h128l78 235h46l-79 -235h184l78 235h46zM300 503l-73 -220h183l74 220h-184z" />
    <glyph glyph-name="zero.LP" unicode="&#xe534;" horiz-adv-x="696" 
d="M332 35c196 0 254 276 254 428c0 151 -49 282 -170 282c-196 0 -254 -276 -254 -428c0 -151 49 -282 170 -282zM332 -10c-185 0 -260 165 -260 327c0 202 104 473 344 473c185 0 260 -165 260 -327c0 -202 -104 -473 -344 -473z" />
    <glyph glyph-name="one.LP" unicode="&#xe536;" horiz-adv-x="481" 
d="M351 790h16l-81 -659c-2 -15 -3 -27 -3 -34c0 -51 39 -57 150 -63l-4 -34h-412l4 34c121 7 176 12 184 79l68 553h-175l4 29l30 3c108 11 158 17 219 92z" />
    <glyph glyph-name="two.LP" unicode="&#xe537;" horiz-adv-x="587" 
d="M120 66h184c100 0 144 11 214 118h26l-61 -184h-483l1 13c385 345 466 413 466 563c0 97 -59 145 -148 145c-109 0 -157 -54 -215 -117l-19 21c56 92 132 165 264 165c139 0 213 -84 213 -194c0 -192 -203 -321 -442 -530z" />
    <glyph glyph-name="three.LP" unicode="&#xe538;" horiz-adv-x="610" 
d="M228 411c138 46 249 102 249 214c0 65 -45 102 -118 102c-90 0 -155 -59 -210 -129l-21 23c52 86 129 169 261 169c117 0 176 -66 176 -154c0 -117 -123 -179 -201 -207c118 -4 201 -86 201 -194c0 -165 -147 -245 -277 -245c-174 0 -239 94 -239 167c0 45 24 74 57 87
h43c-6 -24 -9 -45 -9 -69c0 -72 45 -144 147 -144c121 0 192 69 192 193c0 96 -67 168 -166 168c-26 0 -45 -4 -76 -13z" />
    <glyph glyph-name="four.LP" unicode="&#xe539;" horiz-adv-x="673" 
d="M104 246h331l47 389zM419 116l10 84h-399l4 33l524 547h20l-65 -534h132l-6 -46h-132l-8 -68c-2 -16 -3 -27 -3 -33c0 -55 43 -63 112 -66l-4 -33h-321l4 33c75 3 124 13 132 83z" />
    <glyph glyph-name="five.LP" unicode="&#xe53a;" horiz-adv-x="606" 
d="M287 31c111 0 182 75 182 187c0 172 -150 215 -322 216l82 346h232c54 0 82 11 110 58h35l-65 -133h-287l-46 -203c161 -2 338 -74 338 -256c0 -154 -106 -256 -258 -256c-174 0 -239 94 -239 167c0 45 24 74 57 87h43c-6 -24 -9 -45 -9 -69c0 -72 45 -144 147 -144z" />
    <glyph glyph-name="six.LP" unicode="&#xe53b;" horiz-adv-x="633" 
d="M603 754c-182 -46 -369 -162 -424 -356c46 56 111 90 197 90c141 0 225 -93 225 -222c0 -165 -119 -276 -266 -276c-174 0 -258 142 -258 291c0 230 186 440 514 509zM339 431c-65 0 -126 -27 -170 -75c-4 -25 -6 -50 -6 -77c0 -132 50 -242 172 -242
c120 0 179 91 179 211c0 116 -71 183 -175 183z" />
    <glyph glyph-name="seven.LP" unicode="&#xe53c;" horiz-adv-x="549" 
d="M522 704h-303c-52 0 -77 -17 -110 -71h-35l65 147h456l-3 -24l-406 -756h-85z" />
    <glyph glyph-name="eight.LP" unicode="&#xe53d;" horiz-adv-x="626" 
d="M596 607c0 -105 -99 -172 -184 -195l41 -26c72 -45 114 -93 114 -182c0 -102 -80 -214 -252 -214c-155 0 -255 94 -255 213c0 112 95 184 212 214l-16 10c-52 32 -96 88 -96 166c0 102 76 197 216 197c142 0 220 -77 220 -183zM394 342l-92 58
c-116 -50 -156 -115 -156 -198c0 -96 66 -170 167 -170c98 0 175 56 175 166c0 64 -37 108 -94 144zM321 474l66 -43c87 38 130 84 130 174c0 79 -50 143 -140 143c-81 0 -143 -55 -143 -136c0 -66 33 -103 87 -138z" />
    <glyph glyph-name="nine.LP" unicode="&#xe53e;" horiz-adv-x="633" 
d="M82 26c182 45 368 162 423 355c-46 -55 -111 -89 -196 -89c-141 0 -225 93 -225 222c0 165 119 276 266 276c174 0 258 -142 258 -291c0 -230 -186 -440 -514 -509zM346 349c65 0 126 27 169 75c5 24 7 50 7 77c0 132 -50 242 -172 242c-120 0 -179 -91 -179 -211
c0 -116 71 -183 175 -183z" />
    <glyph glyph-name="zero.LT" unicode="&#xe53f;" 
d="M308 35c160 0 228 183 248 334c4 34 6 66 6 94c0 151 -49 282 -170 282c-158 0 -227 -180 -247 -330c-5 -35 -7 -69 -7 -98c0 -151 49 -282 170 -282zM308 -10c-185 0 -260 165 -260 327c0 202 104 473 344 473c185 0 260 -165 260 -327c0 -202 -104 -473 -344 -473z" />
    <glyph glyph-name="five.OP" unicode="&#xe540;" horiz-adv-x="512" 
d="M155 -180c107 0 190 77 190 189c0 138 -126 222 -282 260l134 289h170c53 0 83 13 110 59h35l-62 -131h-244l-72 -158c165 -54 275 -139 275 -280c0 -166 -130 -280 -318 -280c-92 0 -134 34 -134 70c0 22 13 40 34 46c29 -28 89 -64 164 -64z" />
    <glyph glyph-name="one.LT" unicode="&#xe541;" 
d="M447 790h11l-78 -644c-2 -13 -4 -32 -4 -42c0 -57 75 -61 188 -68l-4 -36h-481l4 36c121 7 200 12 208 79l67 551h-198l3 22l58 8c118 15 154 20 226 94z" />
    <glyph glyph-name="two.LT" unicode="&#xe542;" 
d="M146 66h184c100 0 144 11 214 118h26l-61 -184h-483l1 13c385 345 466 413 466 563c0 97 -59 145 -148 145c-109 0 -157 -54 -215 -117l-19 21c56 92 132 165 264 165c139 0 213 -84 213 -194c0 -192 -203 -321 -442 -530z" />
    <glyph glyph-name="three.LT" unicode="&#xe543;" 
d="M240 411c138 46 249 102 249 214c0 65 -45 102 -118 102c-90 0 -155 -59 -210 -129l-21 23c52 86 129 169 261 169c117 0 176 -66 176 -154c0 -117 -123 -179 -201 -207c118 -4 201 -86 201 -194c0 -165 -147 -245 -277 -245c-174 0 -239 94 -239 167c0 45 24 74 57 87
h43c-6 -24 -9 -45 -9 -69c0 -72 45 -144 147 -144c121 0 192 69 192 193c0 96 -67 168 -166 168c-26 0 -45 -4 -76 -13z" />
    <glyph glyph-name="four.LT" unicode="&#xe544;" 
d="M96 246h331l47 389zM411 116l10 84h-399l4 33l524 547h20l-65 -534h132l-6 -46h-132l-8 -68c-2 -16 -3 -27 -3 -33c0 -55 43 -63 112 -66l-4 -33h-321l4 33c75 3 124 13 132 83z" />
    <glyph glyph-name="five.LT" unicode="&#xe545;" 
d="M312 31c111 0 182 75 182 187c0 172 -150 215 -322 216l82 346h232c54 0 82 11 110 58h35l-65 -133h-287l-46 -203c161 -2 338 -74 338 -256c0 -154 -106 -256 -258 -256c-174 0 -239 94 -239 167c0 45 24 74 57 87h43c-6 -24 -9 -45 -9 -69c0 -72 45 -144 147 -144z" />
    <glyph glyph-name="six.LT" unicode="&#xe546;" 
d="M607 754c-182 -46 -369 -162 -424 -356c46 56 111 90 197 90c141 0 225 -93 225 -222c0 -165 -119 -276 -266 -276c-174 0 -258 142 -258 291c0 230 186 440 514 509zM343 431c-65 0 -126 -27 -170 -75c-4 -25 -6 -50 -6 -77c0 -132 50 -242 172 -242
c120 0 179 91 179 211c0 116 -71 183 -175 183z" />
    <glyph glyph-name="seven.LT" unicode="&#xe547;" 
d="M570 704h-303c-52 0 -77 -17 -110 -71h-35l65 147h456l-3 -24l-406 -756h-85z" />
    <glyph glyph-name="eight.LT" unicode="&#xe548;" 
d="M608 607c0 -105 -99 -172 -184 -195l41 -26c72 -45 114 -93 114 -182c0 -102 -80 -214 -252 -214c-155 0 -255 94 -255 213c0 112 95 184 212 214l-16 10c-52 32 -96 88 -96 166c0 102 76 197 216 197c142 0 220 -77 220 -183zM406 342l-92 58
c-116 -50 -156 -115 -156 -198c0 -96 66 -170 167 -170c98 0 175 56 175 166c0 64 -37 108 -94 144zM333 474l66 -43c87 38 130 84 130 174c0 79 -50 143 -140 143c-81 0 -143 -55 -143 -136c0 -66 33 -103 87 -138z" />
    <glyph glyph-name="nine.LT" unicode="&#xe549;" 
d="M82 26c182 45 368 162 423 355c-46 -55 -111 -89 -196 -89c-141 0 -225 93 -225 222c0 165 119 276 266 276c174 0 258 -142 258 -291c0 -230 -186 -440 -514 -509zM346 349c65 0 126 27 169 75c5 24 7 50 7 77c0 132 -50 242 -172 242c-120 0 -179 -91 -179 -211
c0 -116 71 -183 175 -183z" />
    <glyph glyph-name="zero.OP" unicode="&#xe54a;" horiz-adv-x="601" 
d="M331 524c-131 0 -200 -141 -200 -287c0 -118 44 -203 139 -203c131 0 200 141 200 287c0 118 -44 203 -139 203zM270 -10c-130 0 -220 89 -220 247c0 151 107 331 281 331c130 0 220 -89 220 -247c0 -151 -107 -331 -281 -331z" />
    <glyph glyph-name="one.OP" unicode="&#xe54c;" horiz-adv-x="487" 
d="M337 565l-54 -419c-2 -18 -3 -36 -3 -47c0 -54 36 -63 147 -66l-4 -33h-399l4 33c120 5 169 11 177 79l40 327h-167l2 24l32 4c110 16 142 25 208 98h17z" />
    <glyph glyph-name="two.OP" unicode="&#xe54d;" horiz-adv-x="577" 
d="M122 61h202c86 0 109 28 159 92h34l-81 -153h-445l5 17c277 181 395 267 395 386c0 71 -46 106 -112 106c-83 0 -139 -47 -180 -104l-25 19c50 87 123 143 223 143c117 0 182 -61 182 -151c0 -144 -197 -259 -357 -355z" />
    <glyph glyph-name="three.OP" unicode="&#xe54e;" horiz-adv-x="513" 
d="M153 -180c107 0 189 56 189 186c0 90 -64 169 -156 169c-21 0 -47 -4 -71 -11l-10 31c138 40 260 90 260 199c0 72 -41 116 -116 116c-76 0 -132 -48 -169 -95l-20 20c45 75 110 132 213 132c100 0 170 -53 170 -149c0 -120 -127 -182 -192 -202
c100 -13 167 -90 167 -187c0 -175 -163 -261 -329 -261c-92 0 -134 34 -134 70c0 22 13 40 34 46c29 -28 89 -64 164 -64z" />
    <glyph glyph-name="four.OP" unicode="&#xe54f;" horiz-adv-x="649" 
d="M73 54h305l48 386zM419 -223h-75l28 223h-377l4 38l490 533h28l-64 -517h146l-6 -54h-146z" />
    <glyph glyph-name="six.OP" unicode="&#xe551;" horiz-adv-x="587" 
d="M597 761c-216 -69 -366 -196 -429 -346c45 38 101 62 167 62c129 0 206 -92 206 -214c0 -166 -118 -273 -252 -273c-129 0 -234 94 -234 256c0 272 226 469 534 544zM289 32c106 0 172 93 172 218c0 112 -66 177 -157 177c-56 0 -107 -15 -150 -48
c-13 -42 -20 -86 -20 -130c0 -125 58 -217 155 -217z" />
    <glyph glyph-name="seven.OP" unicode="&#xe552;" horiz-adv-x="574" 
d="M103 557h466l-2 -17l-429 -763h-56l403 707h-302c-52 0 -77 -17 -110 -71h-35z" />
    <glyph glyph-name="eight.OP" unicode="&#xe553;" horiz-adv-x="565" 
d="M46 187c0 110 71 172 204 216l-15 15c-63 64 -99 120 -99 193c0 88 57 179 200 179c135 0 204 -80 204 -172c0 -117 -82 -162 -194 -213l69 -72c49 -52 73 -104 73 -165c0 -100 -86 -178 -214 -178c-142 0 -228 88 -228 197zM331 321l-61 62
c-109 -50 -145 -110 -145 -195c0 -96 66 -155 152 -155c77 0 140 44 140 122c0 69 -39 118 -86 166zM209 624c0 -59 26 -101 70 -148l47 -50c85 44 138 101 138 187c0 79 -48 134 -131 134c-73 0 -124 -47 -124 -123z" />
    <glyph glyph-name="nine.OP" unicode="&#xe554;" horiz-adv-x="587" 
d="M-10 -203c215 69 365 196 429 346c-46 -38 -101 -62 -167 -62c-129 0 -206 92 -206 214c0 166 118 273 252 273c129 0 234 -94 234 -256c0 -272 -226 -469 -534 -544zM298 526c-106 0 -172 -93 -172 -218c0 -112 66 -177 157 -177c55 0 106 15 149 47c14 42 21 86 21 131
c0 125 -58 217 -155 217z" />
    <glyph glyph-name="zero.OT" unicode="&#xe555;" 
d="M380 524c-131 0 -200 -141 -200 -287c0 -118 44 -203 139 -203c131 0 200 141 200 287c0 118 -44 203 -139 203zM319 -10c-130 0 -220 89 -220 247c0 151 107 331 281 331c130 0 220 -89 220 -247c0 -151 -107 -331 -281 -331z" />
    <glyph glyph-name="one.OT" unicode="&#xe557;" 
d="M448 565l-54 -419c-2 -18 -3 -36 -3 -47c0 -54 68 -63 187 -63l-4 -36h-475l4 36c121 0 205 8 213 76l40 327h-167l2 24l32 4c110 16 142 25 208 98h17z" />
    <glyph glyph-name="two.OT" unicode="&#xe558;" 
d="M187 61h202c86 0 109 28 159 92h34l-81 -153h-445l5 17c277 181 395 267 395 386c0 71 -46 106 -112 106c-83 0 -139 -47 -180 -104l-25 19c50 87 123 143 223 143c117 0 182 -61 182 -151c0 -144 -197 -259 -357 -355z" />
    <glyph glyph-name="three.OT" unicode="&#xe559;" 
d="M243 -180c107 0 189 56 189 186c0 90 -64 169 -156 169c-21 0 -47 -4 -71 -11l-10 31c138 40 260 90 260 199c0 72 -41 116 -116 116c-76 0 -132 -48 -169 -95l-20 20c45 75 110 132 213 132c100 0 170 -53 170 -149c0 -120 -127 -182 -192 -202
c100 -13 167 -90 167 -187c0 -175 -163 -261 -329 -261c-92 0 -134 34 -134 70c0 22 13 40 34 46c29 -28 89 -64 164 -64z" />
    <glyph glyph-name="four.OT" unicode="&#xe55a;" 
d="M103 54h305l48 386zM449 -223h-75l28 223h-377l4 38l490 533h28l-64 -517h146l-6 -54h-146z" />
    <glyph glyph-name="five.OT" unicode="&#xe55b;" 
d="M247 -180c107 0 190 77 190 189c0 138 -126 222 -282 260l134 289h170c53 0 83 13 110 59h35l-62 -131h-244l-72 -158c165 -54 275 -139 275 -280c0 -166 -130 -280 -318 -280c-92 0 -134 34 -134 70c0 22 13 40 34 46c29 -28 89 -64 164 -64z" />
    <glyph glyph-name="six.OT" unicode="&#xe55c;" 
d="M644 761c-216 -69 -366 -196 -429 -346c45 38 101 62 167 62c129 0 206 -92 206 -214c0 -166 -118 -273 -252 -273c-129 0 -234 94 -234 256c0 272 226 469 534 544zM336 32c106 0 172 93 172 218c0 112 -66 177 -157 177c-56 0 -107 -15 -150 -48
c-13 -42 -20 -86 -20 -130c0 -125 58 -217 155 -217z" />
    <glyph glyph-name="seven.OT" unicode="&#xe55d;" 
d="M170 557h466l-2 -17l-429 -763h-56l403 707h-302c-52 0 -77 -17 -110 -71h-35z" />
    <glyph glyph-name="eight.OT" unicode="&#xe55e;" 
d="M111 187c0 110 71 172 204 216l-15 15c-63 64 -99 120 -99 193c0 88 57 179 200 179c135 0 204 -80 204 -172c0 -117 -82 -162 -194 -213l69 -72c49 -52 73 -104 73 -165c0 -100 -86 -178 -214 -178c-142 0 -228 88 -228 197zM396 321l-61 62
c-109 -50 -145 -110 -145 -195c0 -96 66 -155 152 -155c77 0 140 44 140 122c0 69 -39 118 -86 166zM274 624c0 -59 26 -101 70 -148l47 -50c85 44 138 101 138 187c0 79 -48 134 -131 134c-73 0 -124 -47 -124 -123z" />
    <glyph glyph-name="nine.OT" unicode="&#xe55f;" 
d="M48 -203c215 69 365 196 429 346c-46 -38 -101 -62 -167 -62c-129 0 -206 92 -206 214c0 166 118 273 252 273c129 0 234 -94 234 -256c0 -272 -226 -469 -534 -544zM356 526c-106 0 -172 -93 -172 -218c0 -112 66 -177 157 -177c55 0 106 15 149 47c14 42 21 86 21 131
c0 125 -58 217 -155 217z" />
    <glyph glyph-name="zero.inf" unicode="&#xe571;" horiz-adv-x="441" 
d="M182 -213c108 0 139 181 139 268c0 91 -26 162 -90 162c-109 0 -140 -184 -140 -268c0 -92 26 -162 91 -162zM179 -246c-106 0 -163 91 -163 203c0 126 64 293 218 293c106 0 162 -91 162 -203c0 -127 -64 -293 -217 -293z" />
    <glyph glyph-name="one.inf" unicode="&#xe572;" horiz-adv-x="339" 
d="M237 250l-50 -403c-1 -7 -2 -16 -2 -24c0 -30 41 -32 105 -36l-3 -27h-296l2 27c75 4 122 7 127 49l38 313h-121l2 23l37 6c69 10 104 25 144 72h17z" />
    <glyph glyph-name="two.inf" unicode="&#xe573;" horiz-adv-x="383" 
d="M70 -184h104c62 0 81 6 123 72h22l-39 -128h-311l2 14c236 209 275 249 275 339c0 53 -33 82 -85 82c-59 0 -89 -30 -121 -64l-16 14c34 60 84 105 165 105c86 0 134 -49 134 -117c0 -119 -106 -181 -253 -317z" />
    <glyph glyph-name="three.inf" unicode="&#xe574;" horiz-adv-x="392" 
d="M112 15c75 25 145 61 145 124c0 38 -25 62 -69 62c-50 0 -86 -28 -119 -69l-17 16c32 54 83 102 162 102c75 0 116 -40 116 -99c0 -69 -68 -102 -118 -117c74 -9 118 -60 118 -127c0 -104 -93 -153 -179 -153c-109 0 -152 57 -152 103c0 29 17 49 37 57h38
c-3 -15 -5 -28 -5 -43c0 -45 26 -88 83 -88c67 0 105 42 105 116c0 58 -37 101 -95 101c-15 0 -26 -2 -44 -6z" />
    <glyph glyph-name="four.inf" unicode="&#xe575;" horiz-adv-x="429" 
d="M44 -79h188l27 225zM279 -240h-67l15 126h-239l2 26l314 332h34l-39 -323h79l-5 -35h-79z" />
    <glyph glyph-name="five.inf" unicode="&#xe576;" horiz-adv-x="389" 
d="M322 -87c0 -97 -71 -159 -170 -159c-112 0 -153 58 -153 105c0 28 17 47 37 55h39c-4 -15 -6 -28 -6 -43c0 -45 24 -87 85 -87c62 0 103 42 103 107c0 104 -90 131 -199 131l53 222h142c35 0 51 4 68 33h31l-41 -96h-183l-23 -106c113 0 217 -49 217 -162z" />
    <glyph glyph-name="six.inf" unicode="&#xe577;" horiz-adv-x="401" 
d="M350 226c-113 -30 -215 -98 -252 -205c27 26 64 44 111 44c90 0 140 -61 140 -140c0 -105 -77 -171 -172 -171c-111 0 -167 84 -167 179c0 145 120 275 332 317zM176 27c-33 0 -63 -14 -87 -35c-4 -19 -6 -40 -6 -62c0 -76 27 -144 95 -144s100 53 100 129
c0 69 -37 112 -102 112z" />
    <glyph glyph-name="seven.inf" unicode="&#xe578;" horiz-adv-x="379" 
d="M304 179h-177c-41 0 -60 -24 -83 -59h-25l50 124h298l-2 -18l-253 -466h-70z" />
    <glyph glyph-name="eight.inf" unicode="&#xe579;" horiz-adv-x="401" 
d="M354 137c0 -65 -56 -101 -113 -116l19 -12c49 -29 79 -63 79 -118c0 -70 -57 -137 -166 -137c-100 0 -165 57 -165 129c0 69 55 111 124 129l-7 4c-34 19 -62 57 -62 107c0 68 53 127 146 127c90 0 145 -47 145 -113zM214 -37l-59 35c-62 -29 -81 -68 -81 -114
c0 -58 39 -99 100 -99c57 0 99 33 99 95c0 35 -23 62 -59 83zM177 60l44 -26c49 25 70 55 70 103c0 45 -28 82 -83 82c-49 0 -81 -31 -81 -79c0 -35 18 -61 50 -80z" />
    <glyph glyph-name="nine.inf" unicode="&#xe57a;" horiz-adv-x="401" 
d="M15 -223c113 31 215 98 252 204c-28 -25 -65 -43 -111 -43c-89 0 -140 61 -140 140c0 106 78 171 173 171c112 0 167 -83 167 -179c0 -145 -121 -275 -333 -317zM190 -24c31 0 61 14 85 34c5 20 7 41 7 63c0 77 -25 144 -94 144c-68 0 -100 -53 -100 -128
c0 -70 37 -113 102 -113z" />
    <glyph glyph-name="plus.inf" unicode="&#xe57b;" horiz-adv-x="438" 
d="M155 -185l18 151h-147l5 39h147l18 149h44l-18 -149h147l-5 -39h-147l-18 -151h-44z" />
    <glyph glyph-name="minus.inf" unicode="&#xe57c;" horiz-adv-x="438" 
d="M361 -34h-338l5 39h338z" />
    <glyph glyph-name="equal.inf" unicode="&#xe57d;" horiz-adv-x="438" 
d="M357 -79h-338l5 40h338zM368 10h-338l4 39h338z" />
    <glyph glyph-name="parenleft.inf" unicode="&#xe57e;" horiz-adv-x="245" 
d="M32 -55c0 136 61 255 185 346l21 -31c-91 -82 -161 -169 -161 -315c0 -98 43 -167 95 -227l-29 -25c-72 70 -111 150 -111 252z" />
    <glyph glyph-name="parenright.inf" unicode="&#xe57f;" horiz-adv-x="245" 
d="M177 39c0 -136 -62 -255 -185 -346l-21 31c91 82 161 169 161 315c0 98 -43 167 -95 227l28 25c72 -70 112 -150 112 -252z" />
    <glyph glyph-name="plus.cap" unicode="&#xe591;" 
d="M307 119l30 245h-242l7 51h242l30 244h56l-30 -244h242l-7 -51h-242l-30 -245h-56z" />
    <glyph glyph-name="minus.cap" unicode="&#xe592;" 
d="M639 364h-540l7 51h540z" />
    <glyph glyph-name="multiply.cap" unicode="&#xe593;" 
d="M104 177l243 217l-189 212l39 34l188 -213l238 214l31 -37l-239 -214l187 -213l-39 -34l-185 215l-243 -218z" />
    <glyph glyph-name="divide.cap" unicode="&#xe594;" 
d="M639 364h-540l7 51h540zM343 611c0 31 26 56 58 56s59 -25 59 -56c0 -30 -27 -56 -59 -56s-58 26 -58 56zM287 168c0 30 26 56 58 56s59 -26 59 -56c0 -31 -27 -56 -59 -56s-58 25 -58 56z" />
    <glyph glyph-name="equal.cap" unicode="&#xe595;" 
d="M659 422h-540l6 50h540zM641 276h-540l6 50h540z" />
    <glyph glyph-name="less.cap" unicode="&#xe596;" 
d="M306 455l-163 -68l146 -65l330 -153l-6 -55l-510 244l7 63l570 244l-6 -53z" />
    <glyph glyph-name="greater.cap" unicode="&#xe597;" 
d="M466 324l163 68l-146 65l-330 153l6 55l510 -244l-7 -63l-570 -244l6 53z" />
    <glyph glyph-name="x.smcp" unicode="&#xf778;" horiz-adv-x="622" 
d="M257 461l86 -128l116 126c18 19 27 29 27 45s-14 22 -67 22l4 31h208l-4 -31c-33 -1 -49 -7 -76 -34l-185 -191l162 -236c18 -26 31 -34 63 -34l-4 -31h-232l4 31c54 0 77 7 77 25c0 13 -4 21 -16 38l-109 162l-149 -161c-18 -19 -26 -28 -26 -42s14 -22 67 -22l-4 -31
h-209l4 31c32 0 57 7 82 34l211 224l-142 202c-19 27 -35 34 -64 35l4 31h233l-4 -31c-56 0 -73 -10 -73 -27c0 -14 6 -23 16 -38z" />
    <glyph glyph-name="tbar" unicode="&#x167;" horiz-adv-x="394" 
d="M218 480l-21 -121h141l-8 -43h-141l-32 -184c-5 -30 -7 -45 -7 -58c0 -17 6 -32 27 -32c42 0 100 48 141 112l27 -18c-47 -80 -117 -146 -191 -146c-47 0 -72 26 -72 73c0 19 2 38 6 63l32 190h-71l8 43h70l21 121h-73l6 27c60 26 101 73 148 128h17l-20 -112h138l-8 -43
h-138z" />
    <glyph glyph-name="registered.cap" horiz-adv-x="890" 
d="M64 390c0 221 179 400 400 400s400 -179 400 -400s-179 -400 -400 -400s-400 179 -400 400zM94 390c0 -204 166 -370 370 -370s370 166 370 370s-166 370 -370 370s-370 -166 -370 -370zM277 629h216c118 0 170 -43 170 -114c0 -81 -77 -126 -147 -135l85 -113
c39 -53 67 -82 122 -83l-3 -25h-111c-23 19 -46 43 -87 101l-81 113h-49l-12 -97c-2 -17 -6 -39 -6 -50c0 -29 27 -41 71 -42l-4 -25h-222l2 25c47 1 78 11 83 53l35 276c2 18 5 40 5 50c0 30 -27 40 -71 41zM420 596l-24 -190h57c78 0 127 29 127 110c0 56 -33 80 -102 80
h-58z" />
    <glyph glyph-name="p_hist.smcp" horiz-adv-x="574" 
d="M267 517l-47 -381c-2 -17 -5 -44 -5 -58c0 -34 23 -44 108 -47l-5 -31h-288l4 31c64 0 98 12 104 60l41 327c3 27 5 47 5 59c0 35 -28 48 -91 49l4 31h245c148 0 217 -52 217 -154c0 -115 -83 -170 -183 -170c-43 0 -78 8 -102 20l1 16h45c102 0 156 37 156 139
c0 68 -41 109 -133 109h-76z" />
    <glyph glyph-name="j_hist.smcp" horiz-adv-x="450" 
d="M362 460l-20 -167h64l-5 -38h-63l-27 -231c-19 -159 -107 -214 -219 -214c-78 0 -118 32 -118 68c0 27 18 48 54 48c18 -40 47 -73 100 -73c61 0 94 36 105 130l24 209c2 19 4 41 7 63h-121l4 38h123c9 54 20 110 35 157c-70 4 -123 67 -174 67c-22 0 -31 -14 -37 -32
l64 -29l-5 -17c-6 -23 -23 -38 -51 -38s-51 18 -51 57c0 48 39 109 116 109c64 0 104 -61 149 -85c21 51 49 85 86 85c15 0 27 -8 27 -25c0 -42 -32 -72 -67 -82z" />
    <glyph glyph-name="n_hist.smcp" horiz-adv-x="759" 
d="M593 88l47 -69l-2 -19h-72l-334 451l-39 -312c-3 -27 -5 -47 -5 -59c0 -35 28 -48 91 -49l-4 -31h-245l4 31c64 0 98 12 104 60l49 390c-28 37 -40 45 -89 45l4 31h141l310 -416l33 277c3 27 5 47 5 59c0 35 -28 48 -91 49l4 31h245l-4 -31c-64 0 -98 -12 -104 -60z" />
    <glyph glyph-name="q_hist.smcp" horiz-adv-x="636" 
d="M302 -10h-13c-29 -24 -77 -53 -100 -62c71 0 130 -52 223 -52c63 0 101 12 142 42l14 -21c-38 -55 -96 -94 -170 -94c-99 0 -161 93 -236 93c-13 0 -35 -2 -56 -10l-14 33c50 17 110 49 150 78c-105 23 -179 111 -179 244c0 159 102 326 297 326c136 0 239 -94 239 -251
c0 -159 -102 -326 -297 -326zM309 32c128 0 205 123 205 282c0 124 -59 211 -161 211c-128 0 -205 -120 -205 -282c0 -127 59 -211 161 -211z" />
    <glyph glyph-name="zero.slash" unicode="&#xe515;" horiz-adv-x="601" 
d="M270 -10c-130 0 -220 89 -220 247c0 151 107 331 281 331c130 0 220 -89 220 -247c0 -151 -107 -331 -281 -331zM470 321c0 49 -8 92 -24 126l-279 -359c23 -34 57 -54 103 -54c131 0 200 141 200 287zM331 524c-131 0 -200 -141 -200 -287c0 -42 6 -80 17 -112l277 356
c-22 27 -54 43 -94 43z" />
    <glyph glyph-name="zero_slash.OP" horiz-adv-x="601" 
d="M270 -10c-130 0 -220 89 -220 247c0 151 107 331 281 331c130 0 220 -89 220 -247c0 -151 -107 -331 -281 -331zM470 321c0 49 -8 92 -24 126l-279 -359c23 -34 57 -54 103 -54c131 0 200 141 200 287zM331 524c-131 0 -200 -141 -200 -287c0 -42 6 -80 17 -112l277 356
c-22 27 -54 43 -94 43z" />
    <glyph glyph-name="zero_slash.LP" horiz-adv-x="696" 
d="M332 -10c-185 0 -260 165 -260 327c0 202 104 473 344 473c185 0 260 -165 260 -327c0 -202 -104 -473 -344 -473zM162 317c0 -68 10 -132 32 -182l336 550c-27 37 -64 60 -114 60c-196 0 -254 -276 -254 -428zM332 35c196 0 254 276 254 428c0 68 -10 131 -32 181
l-337 -550c27 -37 65 -59 115 -59z" />
    <glyph glyph-name="zero_slash.LT" 
d="M308 -10c-185 0 -260 165 -260 327c0 202 104 473 344 473c185 0 260 -165 260 -327c0 -202 -104 -473 -344 -473zM138 317c0 -69 10 -134 33 -184l336 551c-27 38 -65 61 -115 61c-155 0 -224 -174 -246 -321c-6 -39 -8 -76 -8 -107zM308 35c157 0 225 176 246 324
c6 38 8 73 8 104c0 67 -10 129 -31 179l-337 -550c27 -36 65 -57 114 -57z" />
    <glyph glyph-name="zero_slash.OT" 
d="M319 -10c-130 0 -220 89 -220 247c0 151 107 331 281 331c130 0 220 -89 220 -247c0 -151 -107 -331 -281 -331zM519 321c0 47 -8 89 -22 123l-279 -359c23 -32 56 -51 101 -51c131 0 200 141 200 287zM380 524c-131 0 -200 -141 -200 -287c0 -44 6 -83 18 -115l278 357
c-22 28 -54 45 -96 45z" />
    <glyph glyph-name="period.T" horiz-adv-x="355" 
d="M79 53c0 35 28 64 63 64s64 -29 64 -64s-29 -63 -64 -63s-63 28 -63 63z" />
    <glyph glyph-name="comma.T" horiz-adv-x="353" 
d="M163 -1h-37c-27 7 -45 25 -45 56c0 37 27 60 64 60c52 0 74 -45 74 -89c0 -90 -83 -164 -203 -176l7 38c81 12 140 63 140 111z" />
    <glyph glyph-name="colon.T" horiz-adv-x="355" 
d="M79 53c0 35 28 64 63 64s64 -29 64 -64s-29 -63 -64 -63s-63 28 -63 63zM124 375c0 35 28 64 63 64s64 -29 64 -64s-29 -63 -64 -63s-63 28 -63 63z" />
    <glyph glyph-name="semicolon.T" horiz-adv-x="353" 
d="M124 375c0 35 28 64 63 64s64 -29 64 -64s-29 -63 -64 -63s-63 28 -63 63zM163 -1h-37c-27 7 -45 25 -45 56c0 37 27 60 64 60c52 0 74 -45 74 -89c0 -90 -83 -164 -203 -176l7 38c81 12 140 63 140 111z" />
    <glyph glyph-name="uni00AD" unicode="&#xad;" horiz-adv-x="348" 
d="M310 309h-248l8 58h248z" />
    <glyph glyph-name="periodcentered.smcp" horiz-adv-x="318" 
d="M103 276c0 35 28 64 63 64s64 -29 64 -64s-29 -63 -64 -63s-63 28 -63 63z" />
    <glyph glyph-name="hyphen.smcp" unicode="&#xf614;" horiz-adv-x="348" 
d="M305 246h-248l8 58h248z" />
    <glyph glyph-name="onethirdemdash.smcp" horiz-adv-x="333" 
d="M290 246h-233l8 58h233z" />
    <glyph glyph-name="endash.smcp" horiz-adv-x="500" 
d="M457 246h-400l8 58h400z" />
    <glyph glyph-name="threequarteremdash.smcp" horiz-adv-x="750" 
d="M707 246h-650l8 58h650z" />
    <glyph glyph-name="emdash.smcp" horiz-adv-x="1000" 
d="M957 246h-900l8 58h900z" />
    <glyph glyph-name="figuredash.smcp" 
d="M657 246h-600l8 58h600z" />
    <glyph glyph-name="uni2015.smcp" horiz-adv-x="1400" 
d="M1357 246h-1300l8 58h1300z" />
    <glyph glyph-name="nbspace" unicode="&#xa0;" horiz-adv-x="240" 
 />
    <glyph glyph-name="enspace" unicode="&#x2002;" horiz-adv-x="500" 
 />
    <glyph glyph-name="emspace" unicode="&#x2003;" horiz-adv-x="1000" 
 />
    <glyph glyph-name="threeperemspace" unicode="&#x2004;" horiz-adv-x="333" 
 />
    <glyph glyph-name="fourperemspace" unicode="&#x2005;" horiz-adv-x="250" 
 />
    <glyph glyph-name="sixperemspace" unicode="&#x2006;" horiz-adv-x="167" 
 />
    <glyph glyph-name="figurespace" unicode="&#x2007;" 
 />
    <glyph glyph-name="punctuationspace" unicode="&#x2008;" horiz-adv-x="280" 
 />
    <glyph glyph-name="thinspace" unicode="&#x2009;" horiz-adv-x="200" 
 />
    <glyph glyph-name="hairspace" unicode="&#x200a;" horiz-adv-x="100" 
 />
    <glyph glyph-name="zerowidthspace" unicode="&#x200b;" horiz-adv-x="0" 
 />
    <glyph glyph-name="reversequoteleft" unicode="&#x201b;" horiz-adv-x="319" 
d="M219 690h-37c0 -48 59 -99 140 -111l7 -38c-120 12 -203 86 -203 176c0 44 22 89 74 89c37 0 64 -23 64 -60c0 -31 -18 -49 -45 -56z" />
    <glyph glyph-name="reversequotedblleft" unicode="&#x201f;" horiz-adv-x="519" 
d="M219 691h-37c0 -48 59 -99 140 -111l7 -38c-116 12 -203 86 -203 176c0 44 22 89 74 89c37 0 64 -23 64 -60c0 -31 -18 -49 -45 -56zM419 691h-37c0 -48 59 -99 140 -111l7 -38c-120 12 -203 86 -203 176c0 44 22 89 74 89c37 0 64 -23 64 -60c0 -31 -18 -49 -45 -56z
" />
    <glyph glyph-name="guilsinglleft.smcp" unicode="&#xf610;" horiz-adv-x="307" 
d="M64 271l1 10l192 190h37l-152 -195l104 -195h-37z" />
    <glyph glyph-name="guilsinglright.smcp" unicode="&#xf613;" horiz-adv-x="307" 
d="M264 281l-1 -10l-193 -190h-37l152 195l-104 195h37z" />
    <glyph glyph-name="guillemotleft.smcp" unicode="&#xf611;" horiz-adv-x="464" 
d="M64 271l1 10l192 190h37l-152 -195l104 -195h-37zM222 271l1 10l191 190h37l-152 -195l104 -195h-37z" />
    <glyph glyph-name="guillemotright.smcp" unicode="&#xf612;" horiz-adv-x="464" 
d="M264 281l-1 -10l-193 -190h-37l152 195l-104 195h37zM421 281l-1 -10l-193 -190h-36l152 195l-104 195h36z" />
    <glyph glyph-name="percent.LT" 
d="M225 505c50 0 94 43 94 152c0 68 -29 97 -75 97c-50 0 -94 -43 -94 -152c0 -66 29 -97 75 -97zM222 469c-72 0 -143 44 -143 138c0 124 89 183 168 183c72 0 143 -44 143 -138c0 -124 -89 -183 -168 -183zM481 275c-50 0 -94 -43 -94 -152c0 -68 29 -97 75 -97
c50 0 94 43 94 152c0 66 -29 97 -75 97zM674 780l-587 -780h-55l587 780h55zM484 311c72 0 143 -44 143 -138c0 -124 -89 -183 -168 -183c-72 0 -143 44 -143 138c0 124 89 183 168 183z" />
    <glyph glyph-name="percent.LP" horiz-adv-x="1012" 
d="M853 780l-604 -780h-56l604 780h56zM285 375c-103 0 -171 65 -171 176c0 125 63 239 191 239c103 0 171 -65 171 -176c0 -125 -63 -239 -191 -239zM404 630c0 64 -23 119 -99 119c-93 0 -119 -125 -119 -214c0 -64 23 -119 99 -119c93 0 119 125 119 214zM761 364
c-93 0 -119 -125 -119 -214c0 -64 23 -119 99 -119c93 0 119 125 119 214c0 64 -23 119 -99 119zM761 405c103 0 171 -65 171 -176c0 -125 -63 -239 -191 -239c-103 0 -171 65 -171 176c0 125 63 239 191 239z" />
    <glyph glyph-name="perthousand.LP" horiz-adv-x="1440" 
d="M853 780l-604 -780h-56l604 780h56zM285 375c-103 0 -171 65 -171 176c0 125 63 239 191 239c103 0 171 -65 171 -176c0 -125 -63 -239 -191 -239zM404 630c0 64 -23 119 -99 119c-93 0 -119 -125 -119 -214c0 -64 23 -119 99 -119c93 0 119 125 119 214zM761 364
c-93 0 -119 -125 -119 -214c0 -64 23 -119 99 -119c93 0 119 125 119 214c0 64 -23 119 -99 119zM761 405c103 0 171 -65 171 -176c0 -125 -63 -239 -191 -239c-103 0 -171 65 -171 176c0 125 63 239 191 239zM1189 364c-93 0 -119 -125 -119 -214c0 -64 23 -119 99 -119
c93 0 119 125 119 214c0 64 -23 119 -99 119zM1189 405c103 0 171 -65 171 -176c0 -125 -63 -239 -191 -239c-103 0 -171 65 -171 176c0 125 63 239 191 239z" />
    <glyph glyph-name="mediumwhitecircle" unicode="&#x26aa;" horiz-adv-x="710" 
d="M80 265c0 152 123 275 275 275s275 -123 275 -275s-123 -275 -275 -275s-275 123 -275 275zM561 265c0 115 -92 208 -206 208s-206 -93 -206 -208s92 -208 206 -208s206 93 206 208z" />
    <glyph glyph-name="mediumblackcircle" unicode="&#x26ab;" horiz-adv-x="710" 
d="M80 265c0 152 123 275 275 275s275 -123 275 -275s-123 -275 -275 -275s-275 123 -275 275z" />
    <glyph glyph-name="logicalnot" unicode="&#xac;" 
d="M540 208l38 317h-486l5 47h540l-45 -364h-52z" />
    <glyph glyph-name="equivalence" unicode="&#x2261;" 
d="M614 120h-540l6 47h540zM675 613h-540l6 47h540zM645 368h-540l5 46h540z" />
    <glyph glyph-name="minute" unicode="&#x2032;" horiz-adv-x="171" 
d="M123 780h78l-76 -250h-32z" />
    <glyph glyph-name="second" unicode="&#x2033;" horiz-adv-x="316" 
d="M123 780h78l-76 -250h-32zM269 780h78l-76 -250h-32z" />
    <glyph glyph-name="uni0300" unicode="&#x300;" horiz-adv-x="600" 
d="M208 1030h116l80 -208h-35z" />
    <glyph glyph-name="uni0301" unicode="&#x301;" horiz-adv-x="600" 
d="M296 1030h134l-226 -208h-33z" />
    <glyph glyph-name="uni0302" unicode="&#x302;" horiz-adv-x="600" 
d="M360 1030l118 -208h-36l-125 132l-157 -132h-38l170 208h68z" />
    <glyph glyph-name="uni0303" unicode="&#x303;" horiz-adv-x="600" 
d="M379 927c34 0 50 16 79 60l42 -5c-35 -69 -80 -117 -142 -117c-64 0 -93 63 -138 63c-34 0 -50 -17 -79 -61l-42 5c35 69 80 117 142 117c64 0 93 -62 138 -62z" />
    <glyph glyph-name="uni0304" unicode="&#x304;" horiz-adv-x="600" 
d="M162 909l8 55h268l-8 -55h-268z" />
    <glyph glyph-name="uni0305" unicode="&#x305;" horiz-adv-x="600" 
d="M276 833c-107 0 -156 53 -156 152c0 14 1 29 3 45h40c0 -109 53 -142 120 -142s131 33 155 142h41c-16 -126 -79 -197 -203 -197z" />
    <glyph glyph-name="uni0306" unicode="&#x306;" horiz-adv-x="600" 
d="M323 1019c107 0 156 -53 156 -152c0 -13 -1 -29 -3 -45h-40c0 109 -53 142 -120 142s-131 -33 -155 -142h-41c16 126 79 197 203 197z" />
    <glyph glyph-name="uni0307" unicode="&#x307;" horiz-adv-x="600" 
d="M297 864c-35 0 -62 26 -62 59c0 36 32 64 67 64c34 0 62 -26 62 -58c0 -36 -32 -65 -67 -65z" />
    <glyph glyph-name="uni0308" unicode="&#x308;" horiz-adv-x="600" 
d="M200 864c-35 0 -62 26 -62 59c0 36 32 64 67 64s62 -26 62 -58c0 -36 -32 -65 -67 -65zM394 864c-35 0 -62 26 -62 59c0 36 32 64 67 64s62 -26 62 -58c0 -36 -32 -65 -67 -65z" />
    <glyph glyph-name="uni0309" unicode="&#x309;" horiz-adv-x="600" 
d="M292 853c49 0 72 42 72 87c0 35 -17 59 -56 59c-49 0 -72 -42 -72 -87c0 -35 18 -59 56 -59zM286 812c-61 0 -99 43 -99 97c0 76 54 131 127 131c61 0 100 -43 100 -97c0 -76 -54 -131 -128 -131z" />
    <glyph glyph-name="uni030A" unicode="&#x30a;" horiz-adv-x="600" 
d="M222 1030h94l-145 -208h-42zM376 1030h94l-145 -208h-42z" />
    <glyph glyph-name="uni030B" unicode="&#x30b;" horiz-adv-x="600" 
d="M310 1030h94l40 -208h-38zM157 1030h93l41 -208h-39z" />
    <glyph glyph-name="uni030C" unicode="&#x30c;" horiz-adv-x="600" 
d="M240 822l-118 208h36l125 -132l157 132h38l-170 -208h-68z" />
    <glyph glyph-name="grave.cap" unicode="&#xe421;" horiz-adv-x="600" 
d="M209 1030h98l84 -208h-33z" />
    <glyph glyph-name="acute.cap" unicode="&#xe422;" horiz-adv-x="600" 
d="M319 1030h107l-219 -208h-33z" />
    <glyph glyph-name="circumflex.cap" unicode="&#xe423;" horiz-adv-x="600" 
d="M354 1030l122 -208h-34l-121 137l-163 -137h-34l174 208h56z" />
    <glyph glyph-name="tilde.cap" unicode="&#xe424;" horiz-adv-x="600" 
d="M461 964l35 -6c-35 -69 -79 -111 -140 -111c-58 0 -88 64 -136 64c-34 0 -54 -14 -82 -57l-35 6c35 69 79 111 140 111c58 0 88 -64 136 -64c34 0 54 14 82 57z" />
    <glyph glyph-name="macron.cap" unicode="&#xe425;" horiz-adv-x="600" 
d="M165 880l6 52h264l-6 -52h-264z" />
    <glyph glyph-name="breve.cap" unicode="&#xe426;" horiz-adv-x="600" 
d="M277 833c-100 0 -153 55 -153 154c0 14 1 29 3 45h37c0 -109 53 -142 120 -142s131 33 155 142h37c-16 -126 -75 -199 -199 -199z" />
    <glyph glyph-name="invertedbreve.cap" unicode="&#xe427;" horiz-adv-x="600" 
d="M323 1021c100 0 153 -55 153 -154c0 -14 -1 -29 -3 -45h-37c0 109 -53 142 -120 142s-131 -33 -155 -142h-37c16 126 75 199 199 199z" />
    <glyph glyph-name="dotaccent.cap" unicode="&#xe428;" horiz-adv-x="600" 
d="M297 851c-32 0 -56 23 -56 54c0 33 25 63 60 63c32 0 56 -23 56 -54c0 -33 -25 -63 -60 -63z" />
    <glyph glyph-name="dieresis.cap" unicode="&#xe429;" horiz-adv-x="600" 
d="M197 853c-32 0 -56 23 -56 54c0 33 25 63 60 63c32 0 56 -23 56 -54c0 -33 -25 -63 -60 -63zM397 853c-32 0 -56 23 -56 54c0 33 25 63 60 63c32 0 56 -23 56 -54c0 -33 -25 -63 -60 -63z" />
    <glyph glyph-name="ring.cap" unicode="&#xe42a;" horiz-adv-x="600" 
d="M363 939c0 35 -16 60 -54 60c-49 0 -71 -42 -71 -88c0 -35 16 -60 54 -60c49 0 71 42 71 88zM412 942c0 -75 -52 -130 -126 -130c-61 0 -97 43 -97 96c0 75 52 130 126 130c61 0 97 -43 97 -96z" />
    <glyph glyph-name="hungarumlaut.cap" unicode="&#xe42b;" horiz-adv-x="600" 
d="M225 1030h90l-145 -208h-38zM379 1030h90l-145 -208h-38z" />
    <glyph glyph-name="doublegrave.cap" unicode="&#xe42c;" horiz-adv-x="600" 
d="M312 1030h89l40 -208h-33zM159 1030h88l41 -208h-34z" />
    <glyph glyph-name="caron.cap" unicode="&#xe42d;" horiz-adv-x="600" 
d="M246 822l-122 208h34l121 -137l163 137h34l-174 -208h-56z" />
    <glyph glyph-name="uni0312" unicode="&#x312;" horiz-adv-x="600" 
d="M279 706h31c28 -7 44 -25 44 -52c0 -32 -23 -56 -59 -56c-46 0 -67 33 -67 72c0 59 50 119 145 122l-6 -34c-49 -5 -71 -19 -88 -52z" />
    <glyph glyph-name="a.superiorschool" horiz-adv-x="443" 
d="M166 386c26 0 53 22 89 75c45 64 77 151 84 202c-9 22 -27 34 -52 34c-93 0 -157 -122 -158 -232c0 -47 9 -79 37 -79zM296 395c0 27 17 97 27 139h-2c-11 -27 -23 -55 -51 -95c-47 -69 -87 -94 -127 -94c-57 0 -81 45 -81 108c0 143 109 275 223 275c40 0 64 -18 76 -39
l45 45h25l-25 -78c-22 -87 -42 -208 -42 -247c0 -13 5 -19 15 -19c17 0 38 19 63 52l19 -13c-31 -53 -68 -84 -112 -84c-35 0 -53 18 -53 50z" />
    <glyph glyph-name="g.superiorschool" horiz-adv-x="436" 
d="M169 383c26 0 52 23 90 78c45 64 78 151 86 202c-11 23 -30 34 -55 34c-94 0 -159 -126 -159 -235c0 -47 9 -79 38 -79zM300 407l28 127h-2c-11 -27 -26 -56 -52 -94c-47 -70 -88 -98 -130 -98c-56 0 -81 44 -81 109c0 145 110 277 225 277c37 0 64 -17 76 -39l47 45h25
l-25 -78l-56 -282c-30 -148 -110 -197 -200 -197c-67 0 -132 26 -132 79c0 23 15 37 29 43h32c0 -56 23 -92 75 -92c79 0 115 79 141 200z" />
    <glyph glyph-name="y.superiorschool" horiz-adv-x="462" 
d="M330 411l46 203h-3c-53 -126 -128 -274 -213 -274c-38 0 -57 23 -57 63c0 69 52 210 52 262c0 9 -3 16 -15 16c-21 0 -46 -29 -66 -59l-22 13c37 71 82 93 121 93c37 0 53 -20 53 -49c0 -56 -55 -204 -55 -264c0 -21 6 -29 19 -29c56 0 150 201 195 335h64l-66 -342
c-30 -152 -112 -202 -202 -202c-66 0 -132 26 -132 79c0 23 14 37 29 43h32c0 -56 23 -92 75 -92c81 0 116 79 145 204z" />
    <glyph glyph-name="ordfeminine" unicode="&#xaa;" horiz-adv-x="443" 
d="M166 386c26 0 53 22 89 75c45 64 77 151 84 202c-9 22 -27 34 -52 34c-93 0 -157 -122 -158 -232c0 -47 9 -79 37 -79zM296 395c0 27 17 97 27 139h-2c-11 -27 -23 -55 -51 -95c-47 -69 -87 -94 -127 -94c-57 0 -81 45 -81 108c0 143 109 275 223 275c40 0 64 -18 76 -39
l45 45h25l-25 -78c-22 -87 -42 -208 -42 -247c0 -13 5 -19 15 -19c17 0 38 19 63 52l19 -13c-31 -53 -68 -84 -112 -84c-35 0 -53 18 -53 50z" />
    <glyph glyph-name="ordmasculine" unicode="&#xba;" horiz-adv-x="375" 
d="M198 377c72 0 115 105 115 207c0 70 -18 112 -65 112c-72 0 -116 -106 -116 -208c0 -70 19 -111 66 -111zM188 345c-87 0 -126 60 -126 138c0 119 74 245 196 245c87 0 125 -60 125 -138c0 -119 -74 -245 -195 -245z" />
    <glyph glyph-name="cordinal" unicode="&#xe181;" horiz-adv-x="328" 
d="M244 693c-72 0 -113 -104 -113 -195c0 -73 19 -112 72 -112c43 0 77 33 107 74l22 -14c-26 -48 -80 -101 -147 -101c-85 0 -123 61 -123 132c0 133 85 251 206 251c56 0 85 -31 85 -62c0 -20 -13 -35 -25 -41h-30c-3 35 -16 68 -54 68z" />
    <glyph glyph-name="ordfeminine.smcp" unicode="&#xe351;" horiz-adv-x="515" 
d="M388 433l-18 51h-188l-27 -51c-4 -6 -9 -17 -9 -27c0 -16 11 -22 60 -25l-4 -29h-165l4 29c21 0 44 6 55 26l186 329l-17 44h76l133 -373c7 -20 27 -25 49 -26l-4 -29h-198l4 29c49 3 68 10 68 30c0 6 -2 14 -5 22zM299 696l-98 -179h159z" />
    <glyph glyph-name="ordmasculine.smcp" unicode="&#xe352;" horiz-adv-x="520" 
d="M281 382c98 0 152 96 152 211c0 88 -40 156 -118 156c-98 0 -152 -96 -152 -211c0 -88 40 -156 118 -156zM276 345c-104 0 -190 72 -190 192c0 121 85 249 234 249c104 0 190 -72 190 -192c0 -121 -85 -249 -234 -249z" />
    <glyph glyph-name="cordinal.smcp" unicode="&#xe353;" horiz-adv-x="476" 
d="M289 345c-121 0 -203 67 -203 188c0 124 88 253 244 253c66 0 116 -20 148 -44l-11 -97h-19c-15 77 -59 104 -124 104c-100 0 -161 -97 -161 -216c0 -97 52 -152 131 -152c73 0 118 44 155 115h24l-30 -113c-42 -23 -90 -38 -154 -38z" />
    <glyph glyph-name="Thorn.hist" horiz-adv-x="724" 
d="M450 173c-67 0 -107 13 -132 26l2 19h80c128 0 223 57 223 191c0 110 -57 171 -190 171h-128l-51 -409c-5 -38 -7 -57 -7 -76c0 -53 60 -59 129 -62l-4 -33h-342l4 33c74 3 125 13 133 83l65 533c3 21 3 31 3 36c0 53 -44 59 -113 62l4 33h326l-4 -33
c-74 -3 -125 -13 -133 -83l-5 -40h126c204 0 282 -86 282 -205c0 -145 -99 -246 -268 -246z" />
    <glyph glyph-name="thorn_hist.smcp" horiz-adv-x="597" 
d="M375 119c-43 0 -78 8 -102 20l1 16h45c102 0 174 31 174 139c0 72 -45 118 -143 118h-96l-36 -299c-2 -17 -3 -21 -3 -35c0 -34 23 -44 108 -47l-5 -31h-288l4 31c64 0 98 12 104 60l41 327c3 27 5 47 5 59c0 35 -28 48 -91 49l4 31h272l-5 -30c-64 -1 -97 -12 -105 -74
h98c149 0 220 -61 220 -160c0 -116 -88 -174 -202 -174z" />
    <glyph glyph-name="cdotaccent.smcp" unicode="&#xe237;" horiz-adv-x="617" 
d="M333 -10c-162 0 -270 100 -270 254c0 163 111 323 311 323c93 0 153 -27 200 -57l-15 -128h-20c-14 94 -78 143 -165 143c-157 0 -226 -132 -226 -274c0 -134 74 -219 185 -219c104 0 158 58 206 147h27l-38 -140c-55 -30 -113 -49 -195 -49zM390 646
c-32 0 -56 23 -56 54c0 33 25 63 60 63c32 0 56 -23 56 -54c0 -33 -25 -63 -60 -63z" />
    </font>
</defs>
</svg>
